%TF.GenerationSoftware,KiCad,Pcbnew,9.0.0*%
%TF.CreationDate,2025-05-10T20:39:51+02:00*%
%TF.ProjectId,ESP32CAM Shield,45535033-3243-4414-9d20-536869656c64,rev?*%
%TF.SameCoordinates,Original*%
%TF.FileFunction,Copper,L2,Inr*%
%TF.FilePolarity,Positive*%
%FSLAX46Y46*%
G04 Gerber Fmt 4.6, Leading zero omitted, Abs format (unit mm)*
G04 Created by KiCad (PCBNEW 9.0.0) date 2025-05-10 20:39:51*
%MOMM*%
%LPD*%
G01*
G04 APERTURE LIST*
G04 Aperture macros list*
%AMRoundRect*
0 Rectangle with rounded corners*
0 $1 Rounding radius*
0 $2 $3 $4 $5 $6 $7 $8 $9 X,Y pos of 4 corners*
0 Add a 4 corners polygon primitive as box body*
4,1,4,$2,$3,$4,$5,$6,$7,$8,$9,$2,$3,0*
0 Add four circle primitives for the rounded corners*
1,1,$1+$1,$2,$3*
1,1,$1+$1,$4,$5*
1,1,$1+$1,$6,$7*
1,1,$1+$1,$8,$9*
0 Add four rect primitives between the rounded corners*
20,1,$1+$1,$2,$3,$4,$5,0*
20,1,$1+$1,$4,$5,$6,$7,0*
20,1,$1+$1,$6,$7,$8,$9,0*
20,1,$1+$1,$8,$9,$2,$3,0*%
G04 Aperture macros list end*
%TA.AperFunction,ComponentPad*%
%ADD10RoundRect,0.250000X-0.625000X0.350000X-0.625000X-0.350000X0.625000X-0.350000X0.625000X0.350000X0*%
%TD*%
%TA.AperFunction,ComponentPad*%
%ADD11O,1.750000X1.200000*%
%TD*%
%TA.AperFunction,HeatsinkPad*%
%ADD12O,0.800000X1.400000*%
%TD*%
%TA.AperFunction,ComponentPad*%
%ADD13R,1.700000X1.700000*%
%TD*%
%TA.AperFunction,ComponentPad*%
%ADD14O,1.700000X1.700000*%
%TD*%
%TA.AperFunction,ViaPad*%
%ADD15C,0.600000*%
%TD*%
G04 APERTURE END LIST*
D10*
%TO.N,+BATT*%
%TO.C,J3*%
X131064000Y-100616000D03*
D11*
%TO.N,GND*%
X131064000Y-102616000D03*
%TD*%
D12*
%TO.N,GND*%
%TO.C,J4*%
X135210000Y-106218000D03*
X135570000Y-100268000D03*
X143830000Y-100268000D03*
X144190000Y-106218000D03*
%TD*%
D13*
%TO.N,+3.3V*%
%TO.C,J2*%
X150317200Y-67106800D03*
D14*
%TO.N,unconnected-(J2-Pin_2-Pad2)*%
X150317200Y-69646800D03*
%TO.N,io00*%
X150317200Y-72186800D03*
%TO.N,GND*%
X150317200Y-74726800D03*
%TO.N,unconnected-(J2-Pin_5-Pad5)*%
X150317200Y-77266800D03*
%TO.N,UART_USB_RX*%
X150317200Y-79806800D03*
%TO.N,UART_USB_TX*%
X150317200Y-82346800D03*
%TO.N,GND*%
X150317200Y-84886800D03*
%TD*%
D13*
%TO.N,unconnected-(J1-Pin_1-Pad1)*%
%TO.C,J1*%
X127254000Y-67106800D03*
D14*
%TO.N,GND*%
X127254000Y-69646800D03*
%TO.N,I2S_BCLK*%
X127254000Y-72186800D03*
%TO.N,I2S_DATA*%
X127254000Y-74726800D03*
%TO.N,I2S_WS*%
X127254000Y-77266800D03*
%TO.N,I2C_SCL*%
X127254000Y-79806800D03*
%TO.N,I2C_SDA*%
X127254000Y-82346800D03*
%TO.N,unconnected-(J1-Pin_8-Pad8)*%
X127254000Y-84886800D03*
%TD*%
D15*
%TO.N,VBUS*%
X138176000Y-101092000D03*
X137668000Y-96520000D03*
%TO.N,GND*%
X135636000Y-92456000D03*
X136906000Y-86995000D03*
X144100900Y-93778834D03*
X137629889Y-77495727D03*
X147828000Y-101600000D03*
X148751468Y-87082303D03*
X145764465Y-88370168D03*
X144780000Y-72390000D03*
X130004138Y-95070565D03*
X133477000Y-79502000D03*
X137922000Y-68072000D03*
X141224000Y-89154000D03*
X141224000Y-66040000D03*
X144780000Y-80772000D03*
X136398000Y-71120000D03*
X144018000Y-75946000D03*
X133604000Y-100584000D03*
X147955000Y-90424000D03*
X141351000Y-93345000D03*
%TO.N,+3.3V*%
X134620000Y-71374000D03*
X134620000Y-68072000D03*
%TO.N,VBUS*%
X139192000Y-87122000D03*
X131318000Y-85090000D03*
X147828000Y-82042000D03*
X146812000Y-88138000D03*
%TO.N,I2C_SDA*%
X141478000Y-74676000D03*
%TO.N,I2C_SCL*%
X138430000Y-74676000D03*
%TO.N,Net-(U4-OC)*%
X133604000Y-84836000D03*
X134432000Y-83312000D03*
%TO.N,Net-(D1-K)*%
X130104753Y-93117964D03*
X138430000Y-93218000D03*
%TO.N,UART_USB_TX*%
X144526000Y-79156800D03*
X146304000Y-80772000D03*
%TD*%
%TA.AperFunction,Conductor*%
%TO.N,GND*%
G36*
X152406922Y-63493280D02*
G01*
X152415353Y-63494230D01*
X152500831Y-63503861D01*
X152527892Y-63510037D01*
X152610481Y-63538937D01*
X152635491Y-63550980D01*
X152709581Y-63597534D01*
X152731290Y-63614847D01*
X152793152Y-63676709D01*
X152810465Y-63698418D01*
X152857017Y-63772505D01*
X152869064Y-63797522D01*
X152897960Y-63880101D01*
X152904139Y-63907172D01*
X152914720Y-64001077D01*
X152915500Y-64014961D01*
X152915500Y-106927038D01*
X152914720Y-106940922D01*
X152904139Y-107034827D01*
X152897960Y-107061898D01*
X152869064Y-107144477D01*
X152857017Y-107169494D01*
X152810465Y-107243581D01*
X152793152Y-107265290D01*
X152731290Y-107327152D01*
X152709581Y-107344465D01*
X152635494Y-107391017D01*
X152610477Y-107403064D01*
X152527898Y-107431960D01*
X152500828Y-107438139D01*
X152487949Y-107439590D01*
X152473483Y-107441220D01*
X152459602Y-107442000D01*
X144835868Y-107442000D01*
X144768829Y-107422315D01*
X144723074Y-107369511D01*
X144713130Y-107300353D01*
X144742155Y-107236797D01*
X144759479Y-107221513D01*
X144759009Y-107220940D01*
X144763720Y-107217073D01*
X144889073Y-107091720D01*
X144889076Y-107091716D01*
X144987566Y-106944316D01*
X144987571Y-106944307D01*
X145055413Y-106780520D01*
X145055415Y-106780512D01*
X145089999Y-106606646D01*
X145090000Y-106606643D01*
X145090000Y-106468000D01*
X144440000Y-106468000D01*
X144440000Y-105968000D01*
X145090000Y-105968000D01*
X145090000Y-105829357D01*
X145089999Y-105829353D01*
X145055415Y-105655487D01*
X145055413Y-105655479D01*
X144987571Y-105491692D01*
X144987566Y-105491683D01*
X144889076Y-105344283D01*
X144889073Y-105344279D01*
X144763720Y-105218926D01*
X144763716Y-105218923D01*
X144616316Y-105120433D01*
X144616307Y-105120428D01*
X144452519Y-105052585D01*
X144440000Y-105050094D01*
X144440000Y-105868272D01*
X144401940Y-105776386D01*
X144331614Y-105706060D01*
X144239728Y-105668000D01*
X144140272Y-105668000D01*
X144048386Y-105706060D01*
X143978060Y-105776386D01*
X143940000Y-105868272D01*
X143940000Y-105050095D01*
X143939999Y-105050094D01*
X143927480Y-105052585D01*
X143763692Y-105120428D01*
X143763683Y-105120433D01*
X143616283Y-105218923D01*
X143616279Y-105218926D01*
X143490926Y-105344279D01*
X143490923Y-105344283D01*
X143392433Y-105491683D01*
X143392428Y-105491692D01*
X143324586Y-105655479D01*
X143324584Y-105655487D01*
X143290000Y-105829353D01*
X143290000Y-105968000D01*
X143940000Y-105968000D01*
X143940000Y-106468000D01*
X143290000Y-106468000D01*
X143290000Y-106606646D01*
X143324584Y-106780512D01*
X143324586Y-106780520D01*
X143392428Y-106944307D01*
X143392433Y-106944316D01*
X143490923Y-107091716D01*
X143490926Y-107091720D01*
X143616279Y-107217073D01*
X143620991Y-107220940D01*
X143619544Y-107222702D01*
X143657827Y-107268507D01*
X143666536Y-107337832D01*
X143636383Y-107400860D01*
X143576941Y-107437581D01*
X143544132Y-107442000D01*
X135855868Y-107442000D01*
X135788829Y-107422315D01*
X135743074Y-107369511D01*
X135733130Y-107300353D01*
X135762155Y-107236797D01*
X135779479Y-107221513D01*
X135779009Y-107220940D01*
X135783720Y-107217073D01*
X135909073Y-107091720D01*
X135909076Y-107091716D01*
X136007566Y-106944316D01*
X136007571Y-106944307D01*
X136075413Y-106780520D01*
X136075415Y-106780512D01*
X136109999Y-106606646D01*
X136110000Y-106606643D01*
X136110000Y-106468000D01*
X135460000Y-106468000D01*
X135460000Y-105968000D01*
X136110000Y-105968000D01*
X136110000Y-105829357D01*
X136109999Y-105829353D01*
X136075415Y-105655487D01*
X136075413Y-105655479D01*
X136007571Y-105491692D01*
X136007566Y-105491683D01*
X135909076Y-105344283D01*
X135909073Y-105344279D01*
X135783720Y-105218926D01*
X135783716Y-105218923D01*
X135636316Y-105120433D01*
X135636307Y-105120428D01*
X135472519Y-105052585D01*
X135460000Y-105050094D01*
X135460000Y-105868272D01*
X135421940Y-105776386D01*
X135351614Y-105706060D01*
X135259728Y-105668000D01*
X135160272Y-105668000D01*
X135068386Y-105706060D01*
X134998060Y-105776386D01*
X134960000Y-105868272D01*
X134960000Y-105050095D01*
X134959999Y-105050094D01*
X134947480Y-105052585D01*
X134783692Y-105120428D01*
X134783683Y-105120433D01*
X134636283Y-105218923D01*
X134636279Y-105218926D01*
X134510926Y-105344279D01*
X134510923Y-105344283D01*
X134412433Y-105491683D01*
X134412428Y-105491692D01*
X134344586Y-105655479D01*
X134344584Y-105655487D01*
X134310000Y-105829353D01*
X134310000Y-105968000D01*
X134960000Y-105968000D01*
X134960000Y-106468000D01*
X134310000Y-106468000D01*
X134310000Y-106606646D01*
X134344584Y-106780512D01*
X134344586Y-106780520D01*
X134412428Y-106944307D01*
X134412433Y-106944316D01*
X134510923Y-107091716D01*
X134510926Y-107091720D01*
X134636279Y-107217073D01*
X134640991Y-107220940D01*
X134639544Y-107222702D01*
X134677827Y-107268507D01*
X134686536Y-107337832D01*
X134656383Y-107400860D01*
X134596941Y-107437581D01*
X134564132Y-107442000D01*
X125416398Y-107442000D01*
X125402516Y-107441220D01*
X125375171Y-107438139D01*
X125348101Y-107431960D01*
X125265522Y-107403064D01*
X125240505Y-107391017D01*
X125166418Y-107344465D01*
X125144709Y-107327152D01*
X125082847Y-107265290D01*
X125065534Y-107243581D01*
X125018982Y-107169494D01*
X125006937Y-107144481D01*
X124978037Y-107061892D01*
X124971861Y-107034831D01*
X124963608Y-106961583D01*
X124961280Y-106940921D01*
X124960500Y-106927038D01*
X124960500Y-104287713D01*
X148636500Y-104287713D01*
X148636500Y-104500286D01*
X148669753Y-104710239D01*
X148735444Y-104912414D01*
X148831951Y-105101820D01*
X148956890Y-105273786D01*
X149107213Y-105424109D01*
X149279179Y-105549048D01*
X149279181Y-105549049D01*
X149279184Y-105549051D01*
X149468588Y-105645557D01*
X149670757Y-105711246D01*
X149880713Y-105744500D01*
X149880714Y-105744500D01*
X150093286Y-105744500D01*
X150093287Y-105744500D01*
X150303243Y-105711246D01*
X150505412Y-105645557D01*
X150694816Y-105549051D01*
X150716789Y-105533086D01*
X150866786Y-105424109D01*
X150866788Y-105424106D01*
X150866792Y-105424104D01*
X151017104Y-105273792D01*
X151017106Y-105273788D01*
X151017109Y-105273786D01*
X151142048Y-105101820D01*
X151142047Y-105101820D01*
X151142051Y-105101816D01*
X151238557Y-104912412D01*
X151304246Y-104710243D01*
X151337500Y-104500287D01*
X151337500Y-104287713D01*
X151304246Y-104077757D01*
X151238557Y-103875588D01*
X151142051Y-103686184D01*
X151142049Y-103686181D01*
X151142048Y-103686179D01*
X151017109Y-103514213D01*
X150866786Y-103363890D01*
X150694820Y-103238951D01*
X150505414Y-103142444D01*
X150505413Y-103142443D01*
X150505412Y-103142443D01*
X150303243Y-103076754D01*
X150303241Y-103076753D01*
X150303240Y-103076753D01*
X150141957Y-103051208D01*
X150093287Y-103043500D01*
X149880713Y-103043500D01*
X149832042Y-103051208D01*
X149670760Y-103076753D01*
X149468585Y-103142444D01*
X149279179Y-103238951D01*
X149107213Y-103363890D01*
X148956890Y-103514213D01*
X148831951Y-103686179D01*
X148735444Y-103875585D01*
X148669753Y-104077760D01*
X148636500Y-104287713D01*
X124960500Y-104287713D01*
X124960500Y-100215983D01*
X129688500Y-100215983D01*
X129688500Y-101016001D01*
X129688501Y-101016019D01*
X129699000Y-101118796D01*
X129699001Y-101118799D01*
X129716248Y-101170846D01*
X129754186Y-101285334D01*
X129846288Y-101434656D01*
X129970344Y-101558712D01*
X130034981Y-101598580D01*
X130081705Y-101650526D01*
X130092928Y-101719489D01*
X130065085Y-101783571D01*
X130057566Y-101791799D01*
X129949964Y-101899401D01*
X129848195Y-102039475D01*
X129769591Y-102193744D01*
X129716085Y-102358415D01*
X129714884Y-102365999D01*
X129714885Y-102366000D01*
X130783670Y-102366000D01*
X130763925Y-102385745D01*
X130714556Y-102471255D01*
X130689000Y-102566630D01*
X130689000Y-102665370D01*
X130714556Y-102760745D01*
X130763925Y-102846255D01*
X130783670Y-102866000D01*
X129714885Y-102866000D01*
X129716085Y-102873584D01*
X129769591Y-103038255D01*
X129848195Y-103192524D01*
X129949967Y-103332602D01*
X130072397Y-103455032D01*
X130212475Y-103556804D01*
X130366742Y-103635408D01*
X130531415Y-103688914D01*
X130702429Y-103716000D01*
X130814000Y-103716000D01*
X130814000Y-102896330D01*
X130833745Y-102916075D01*
X130919255Y-102965444D01*
X131014630Y-102991000D01*
X131113370Y-102991000D01*
X131208745Y-102965444D01*
X131294255Y-102916075D01*
X131314000Y-102896330D01*
X131314000Y-103716000D01*
X131425571Y-103716000D01*
X131596584Y-103688914D01*
X131761257Y-103635408D01*
X131915524Y-103556804D01*
X132055602Y-103455032D01*
X132178032Y-103332602D01*
X132279804Y-103192524D01*
X132358408Y-103038255D01*
X132411914Y-102873584D01*
X132413115Y-102866000D01*
X131344330Y-102866000D01*
X131364075Y-102846255D01*
X131413444Y-102760745D01*
X131439000Y-102665370D01*
X131439000Y-102566630D01*
X131413444Y-102471255D01*
X131364075Y-102385745D01*
X131344330Y-102366000D01*
X132413115Y-102366000D01*
X132413115Y-102365999D01*
X132411914Y-102358415D01*
X132358408Y-102193744D01*
X132279804Y-102039475D01*
X132178032Y-101899397D01*
X132070434Y-101791799D01*
X132036949Y-101730476D01*
X132041933Y-101660784D01*
X132083805Y-101604851D01*
X132092995Y-101598594D01*
X132157656Y-101558712D01*
X132281712Y-101434656D01*
X132373814Y-101285334D01*
X132428999Y-101118797D01*
X132439500Y-101016009D01*
X132439499Y-100215992D01*
X132428999Y-100113203D01*
X132373814Y-99946666D01*
X132332295Y-99879353D01*
X134670000Y-99879353D01*
X134670000Y-100018000D01*
X135320000Y-100018000D01*
X135320000Y-100518000D01*
X134670000Y-100518000D01*
X134670000Y-100656646D01*
X134704584Y-100830512D01*
X134704586Y-100830520D01*
X134772428Y-100994307D01*
X134772433Y-100994316D01*
X134870923Y-101141716D01*
X134870926Y-101141720D01*
X134996279Y-101267073D01*
X134996283Y-101267076D01*
X135143683Y-101365566D01*
X135143693Y-101365571D01*
X135307476Y-101433412D01*
X135307483Y-101433415D01*
X135320000Y-101435904D01*
X135320000Y-100617728D01*
X135358060Y-100709614D01*
X135428386Y-100779940D01*
X135520272Y-100818000D01*
X135619728Y-100818000D01*
X135711614Y-100779940D01*
X135781940Y-100709614D01*
X135820000Y-100617728D01*
X135820000Y-101435903D01*
X135832516Y-101433415D01*
X135832523Y-101433412D01*
X135996306Y-101365571D01*
X135996316Y-101365566D01*
X136143716Y-101267076D01*
X136143720Y-101267073D01*
X136269073Y-101141720D01*
X136269076Y-101141716D01*
X136354979Y-101013153D01*
X137375500Y-101013153D01*
X137375500Y-101170846D01*
X137406261Y-101325489D01*
X137406264Y-101325501D01*
X137466602Y-101471172D01*
X137466609Y-101471185D01*
X137554210Y-101602288D01*
X137554213Y-101602292D01*
X137665707Y-101713786D01*
X137665711Y-101713789D01*
X137796814Y-101801390D01*
X137796827Y-101801397D01*
X137942498Y-101861735D01*
X137942503Y-101861737D01*
X138097153Y-101892499D01*
X138097156Y-101892500D01*
X138097158Y-101892500D01*
X138254844Y-101892500D01*
X138254845Y-101892499D01*
X138409497Y-101861737D01*
X138555179Y-101801394D01*
X138686289Y-101713789D01*
X138797789Y-101602289D01*
X138885394Y-101471179D01*
X138945737Y-101325497D01*
X138976500Y-101170842D01*
X138976500Y-101013158D01*
X138976500Y-101013155D01*
X138976499Y-101013153D01*
X138945738Y-100858510D01*
X138945737Y-100858503D01*
X138928960Y-100818000D01*
X138885397Y-100712827D01*
X138885390Y-100712814D01*
X138797789Y-100581711D01*
X138797786Y-100581707D01*
X138686292Y-100470213D01*
X138686288Y-100470210D01*
X138555185Y-100382609D01*
X138555172Y-100382602D01*
X138409501Y-100322264D01*
X138409489Y-100322261D01*
X138254845Y-100291500D01*
X138254842Y-100291500D01*
X138097158Y-100291500D01*
X138097155Y-100291500D01*
X137942510Y-100322261D01*
X137942498Y-100322264D01*
X137796827Y-100382602D01*
X137796814Y-100382609D01*
X137665711Y-100470210D01*
X137665707Y-100470213D01*
X137554213Y-100581707D01*
X137554210Y-100581711D01*
X137466609Y-100712814D01*
X137466602Y-100712827D01*
X137406264Y-100858498D01*
X137406261Y-100858510D01*
X137375500Y-101013153D01*
X136354979Y-101013153D01*
X136367566Y-100994316D01*
X136367573Y-100994303D01*
X136381942Y-100959614D01*
X136381942Y-100959613D01*
X136435413Y-100830520D01*
X136435415Y-100830512D01*
X136469999Y-100656646D01*
X136470000Y-100656643D01*
X136470000Y-100518000D01*
X135820000Y-100518000D01*
X135820000Y-100018000D01*
X136470000Y-100018000D01*
X136470000Y-99879357D01*
X136469999Y-99879353D01*
X136435415Y-99705487D01*
X136435414Y-99705483D01*
X136404624Y-99631150D01*
X136397155Y-99561681D01*
X136428429Y-99499201D01*
X136447401Y-99484100D01*
X136446914Y-99483465D01*
X136453358Y-99478518D01*
X136453365Y-99478515D01*
X136560515Y-99371365D01*
X136636281Y-99240135D01*
X136675500Y-99093766D01*
X136675500Y-98942234D01*
X142574500Y-98942234D01*
X142574500Y-99093766D01*
X142577921Y-99106532D01*
X142613719Y-99240136D01*
X142651602Y-99305750D01*
X142689485Y-99371365D01*
X142796635Y-99478515D01*
X142913865Y-99546198D01*
X142962080Y-99596764D01*
X142975303Y-99665371D01*
X142966429Y-99701027D01*
X142964590Y-99705467D01*
X142964584Y-99705485D01*
X142930000Y-99879353D01*
X142930000Y-100018000D01*
X143580000Y-100018000D01*
X143580000Y-100518000D01*
X142930000Y-100518000D01*
X142930000Y-100656646D01*
X142964584Y-100830512D01*
X142964586Y-100830520D01*
X143032428Y-100994307D01*
X143032433Y-100994316D01*
X143130923Y-101141716D01*
X143130926Y-101141720D01*
X143256279Y-101267073D01*
X143256283Y-101267076D01*
X143403683Y-101365566D01*
X143403693Y-101365571D01*
X143567476Y-101433412D01*
X143567483Y-101433415D01*
X143580000Y-101435904D01*
X143580000Y-100617728D01*
X143618060Y-100709614D01*
X143688386Y-100779940D01*
X143780272Y-100818000D01*
X143879728Y-100818000D01*
X143971614Y-100779940D01*
X144041940Y-100709614D01*
X144080000Y-100617728D01*
X144080000Y-101435903D01*
X144092516Y-101433415D01*
X144092523Y-101433412D01*
X144256306Y-101365571D01*
X144256316Y-101365566D01*
X144403716Y-101267076D01*
X144403720Y-101267073D01*
X144529073Y-101141720D01*
X144529076Y-101141716D01*
X144627566Y-100994316D01*
X144627571Y-100994307D01*
X144695413Y-100830520D01*
X144695415Y-100830512D01*
X144729999Y-100656646D01*
X144730000Y-100656643D01*
X144730000Y-100518000D01*
X144080000Y-100518000D01*
X144080000Y-100018000D01*
X144730000Y-100018000D01*
X144730000Y-99879357D01*
X144729999Y-99879353D01*
X144695415Y-99705487D01*
X144695413Y-99705479D01*
X144627571Y-99541692D01*
X144627566Y-99541683D01*
X144529076Y-99394283D01*
X144529073Y-99394279D01*
X144403720Y-99268926D01*
X144403716Y-99268923D01*
X144256316Y-99170433D01*
X144256307Y-99170428D01*
X144102047Y-99106532D01*
X144047644Y-99062691D01*
X144025579Y-98996397D01*
X144025500Y-98991971D01*
X144025500Y-98942236D01*
X144025500Y-98942234D01*
X143986281Y-98795865D01*
X143910515Y-98664635D01*
X143803365Y-98557485D01*
X143737750Y-98519602D01*
X143672136Y-98481719D01*
X143598950Y-98462109D01*
X143525766Y-98442500D01*
X143074234Y-98442500D01*
X142927863Y-98481719D01*
X142796635Y-98557485D01*
X142796632Y-98557487D01*
X142689487Y-98664632D01*
X142689485Y-98664635D01*
X142613719Y-98795863D01*
X142574500Y-98942234D01*
X136675500Y-98942234D01*
X136636281Y-98795865D01*
X136560515Y-98664635D01*
X136453365Y-98557485D01*
X136387750Y-98519602D01*
X136322136Y-98481719D01*
X136248950Y-98462109D01*
X136175766Y-98442500D01*
X136024234Y-98442500D01*
X135877863Y-98481719D01*
X135746635Y-98557485D01*
X135746632Y-98557487D01*
X135639487Y-98664632D01*
X135639485Y-98664635D01*
X135563719Y-98795863D01*
X135524500Y-98942234D01*
X135524500Y-98957654D01*
X135504815Y-99024693D01*
X135452011Y-99070448D01*
X135424691Y-99079271D01*
X135307487Y-99102584D01*
X135307479Y-99102586D01*
X135143692Y-99170428D01*
X135143683Y-99170433D01*
X134996283Y-99268923D01*
X134996279Y-99268926D01*
X134870926Y-99394279D01*
X134870923Y-99394283D01*
X134772433Y-99541683D01*
X134772428Y-99541692D01*
X134704586Y-99705479D01*
X134704584Y-99705487D01*
X134670000Y-99879353D01*
X132332295Y-99879353D01*
X132281712Y-99797344D01*
X132157656Y-99673288D01*
X132033590Y-99596764D01*
X132008336Y-99581187D01*
X132008331Y-99581185D01*
X132006862Y-99580698D01*
X131841797Y-99526001D01*
X131841795Y-99526000D01*
X131739010Y-99515500D01*
X130388998Y-99515500D01*
X130388981Y-99515501D01*
X130286203Y-99526000D01*
X130286200Y-99526001D01*
X130119668Y-99581185D01*
X130119663Y-99581187D01*
X129970342Y-99673289D01*
X129846289Y-99797342D01*
X129754187Y-99946663D01*
X129754186Y-99946666D01*
X129699001Y-100113203D01*
X129699001Y-100113204D01*
X129699000Y-100113204D01*
X129688500Y-100215983D01*
X124960500Y-100215983D01*
X124960500Y-96441153D01*
X136867500Y-96441153D01*
X136867500Y-96598846D01*
X136898261Y-96753489D01*
X136898264Y-96753501D01*
X136958602Y-96899172D01*
X136958609Y-96899185D01*
X137046210Y-97030288D01*
X137046213Y-97030292D01*
X137157707Y-97141786D01*
X137157711Y-97141789D01*
X137288814Y-97229390D01*
X137288827Y-97229397D01*
X137434498Y-97289735D01*
X137434503Y-97289737D01*
X137589153Y-97320499D01*
X137589156Y-97320500D01*
X137589158Y-97320500D01*
X137746844Y-97320500D01*
X137746845Y-97320499D01*
X137901497Y-97289737D01*
X138047179Y-97229394D01*
X138178289Y-97141789D01*
X138289789Y-97030289D01*
X138377394Y-96899179D01*
X138437737Y-96753497D01*
X138468500Y-96598842D01*
X138468500Y-96441158D01*
X138468500Y-96441155D01*
X138468499Y-96441153D01*
X138437738Y-96286510D01*
X138437737Y-96286503D01*
X138437735Y-96286498D01*
X138377397Y-96140827D01*
X138377390Y-96140814D01*
X138289789Y-96009711D01*
X138289786Y-96009707D01*
X138178292Y-95898213D01*
X138178288Y-95898210D01*
X138047185Y-95810609D01*
X138047172Y-95810602D01*
X137901501Y-95750264D01*
X137901489Y-95750261D01*
X137746845Y-95719500D01*
X137746842Y-95719500D01*
X137589158Y-95719500D01*
X137589155Y-95719500D01*
X137434510Y-95750261D01*
X137434498Y-95750264D01*
X137288827Y-95810602D01*
X137288814Y-95810609D01*
X137157711Y-95898210D01*
X137157707Y-95898213D01*
X137046213Y-96009707D01*
X137046210Y-96009711D01*
X136958609Y-96140814D01*
X136958602Y-96140827D01*
X136898264Y-96286498D01*
X136898261Y-96286510D01*
X136867500Y-96441153D01*
X124960500Y-96441153D01*
X124960500Y-93930995D01*
X125791499Y-93930995D01*
X125818418Y-94066322D01*
X125818421Y-94066332D01*
X125871221Y-94193804D01*
X125871228Y-94193817D01*
X125947885Y-94308541D01*
X125947888Y-94308545D01*
X126045454Y-94406111D01*
X126045458Y-94406114D01*
X126160182Y-94482771D01*
X126160195Y-94482778D01*
X126287667Y-94535578D01*
X126287672Y-94535580D01*
X126287676Y-94535580D01*
X126287677Y-94535581D01*
X126423004Y-94562500D01*
X126423007Y-94562500D01*
X126560995Y-94562500D01*
X126652041Y-94544389D01*
X126696328Y-94535580D01*
X126823811Y-94482775D01*
X126938542Y-94406114D01*
X127036114Y-94308542D01*
X127095948Y-94218995D01*
X150683499Y-94218995D01*
X150710418Y-94354322D01*
X150710421Y-94354332D01*
X150763221Y-94481804D01*
X150763228Y-94481817D01*
X150839885Y-94596541D01*
X150839888Y-94596545D01*
X150937454Y-94694111D01*
X150937458Y-94694114D01*
X151052182Y-94770771D01*
X151052195Y-94770778D01*
X151179667Y-94823578D01*
X151179672Y-94823580D01*
X151179676Y-94823580D01*
X151179677Y-94823581D01*
X151315004Y-94850500D01*
X151315007Y-94850500D01*
X151452995Y-94850500D01*
X151544041Y-94832389D01*
X151588328Y-94823580D01*
X151715811Y-94770775D01*
X151830542Y-94694114D01*
X151928114Y-94596542D01*
X152004775Y-94481811D01*
X152057580Y-94354328D01*
X152084500Y-94218993D01*
X152084500Y-94081007D01*
X152084500Y-94081004D01*
X152057581Y-93945677D01*
X152057580Y-93945676D01*
X152057580Y-93945672D01*
X152050009Y-93927394D01*
X152004778Y-93818195D01*
X152004771Y-93818182D01*
X151928114Y-93703458D01*
X151928111Y-93703454D01*
X151830545Y-93605888D01*
X151830541Y-93605885D01*
X151715817Y-93529228D01*
X151715804Y-93529221D01*
X151588332Y-93476421D01*
X151588322Y-93476418D01*
X151452995Y-93449500D01*
X151452993Y-93449500D01*
X151315007Y-93449500D01*
X151315005Y-93449500D01*
X151179677Y-93476418D01*
X151179667Y-93476421D01*
X151052195Y-93529221D01*
X151052182Y-93529228D01*
X150937458Y-93605885D01*
X150937454Y-93605888D01*
X150839888Y-93703454D01*
X150839885Y-93703458D01*
X150763228Y-93818182D01*
X150763221Y-93818195D01*
X150710421Y-93945667D01*
X150710418Y-93945677D01*
X150683500Y-94081004D01*
X150683500Y-94081007D01*
X150683500Y-94218993D01*
X150683500Y-94218995D01*
X150683499Y-94218995D01*
X127095948Y-94218995D01*
X127112775Y-94193811D01*
X127165580Y-94066328D01*
X127192500Y-93930993D01*
X127192500Y-93793007D01*
X127192500Y-93793004D01*
X127165581Y-93657677D01*
X127165580Y-93657676D01*
X127165580Y-93657672D01*
X127153394Y-93628252D01*
X127112778Y-93530195D01*
X127112771Y-93530182D01*
X127036114Y-93415458D01*
X127036111Y-93415454D01*
X126938545Y-93317888D01*
X126938541Y-93317885D01*
X126823817Y-93241228D01*
X126823804Y-93241221D01*
X126696332Y-93188421D01*
X126696322Y-93188418D01*
X126560995Y-93161500D01*
X126560993Y-93161500D01*
X126423007Y-93161500D01*
X126423005Y-93161500D01*
X126287677Y-93188418D01*
X126287667Y-93188421D01*
X126160195Y-93241221D01*
X126160182Y-93241228D01*
X126045458Y-93317885D01*
X126045454Y-93317888D01*
X125947888Y-93415454D01*
X125947885Y-93415458D01*
X125871228Y-93530182D01*
X125871221Y-93530195D01*
X125818421Y-93657667D01*
X125818418Y-93657677D01*
X125791500Y-93793004D01*
X125791500Y-93793007D01*
X125791500Y-93930993D01*
X125791500Y-93930995D01*
X125791499Y-93930995D01*
X124960500Y-93930995D01*
X124960500Y-93039117D01*
X129304253Y-93039117D01*
X129304253Y-93196810D01*
X129335014Y-93351453D01*
X129335017Y-93351465D01*
X129395355Y-93497136D01*
X129395362Y-93497149D01*
X129482963Y-93628252D01*
X129482966Y-93628256D01*
X129594460Y-93739750D01*
X129594464Y-93739753D01*
X129725567Y-93827354D01*
X129725580Y-93827361D01*
X129871251Y-93887699D01*
X129871256Y-93887701D01*
X130025906Y-93918463D01*
X130025909Y-93918464D01*
X130025911Y-93918464D01*
X130183597Y-93918464D01*
X130183598Y-93918463D01*
X130338250Y-93887701D01*
X130483932Y-93827358D01*
X130615042Y-93739753D01*
X130726542Y-93628253D01*
X130814147Y-93497143D01*
X130874490Y-93351461D01*
X130905253Y-93196806D01*
X130905253Y-93139153D01*
X137629500Y-93139153D01*
X137629500Y-93296846D01*
X137660261Y-93451489D01*
X137660264Y-93451501D01*
X137720602Y-93597172D01*
X137720609Y-93597185D01*
X137808210Y-93728288D01*
X137808213Y-93728292D01*
X137919707Y-93839786D01*
X137919711Y-93839789D01*
X138050814Y-93927390D01*
X138050827Y-93927397D01*
X138196498Y-93987735D01*
X138196503Y-93987737D01*
X138351153Y-94018499D01*
X138351156Y-94018500D01*
X138351158Y-94018500D01*
X138508844Y-94018500D01*
X138508845Y-94018499D01*
X138663497Y-93987737D01*
X138692109Y-93975885D01*
X138729607Y-93960354D01*
X138809172Y-93927397D01*
X138809172Y-93927396D01*
X138809179Y-93927394D01*
X138940289Y-93839789D01*
X139051789Y-93728289D01*
X139139394Y-93597179D01*
X139199737Y-93451497D01*
X139230500Y-93296842D01*
X139230500Y-93139158D01*
X139230500Y-93139155D01*
X139230499Y-93139153D01*
X139199738Y-92984510D01*
X139199737Y-92984503D01*
X139158299Y-92884462D01*
X139139397Y-92838827D01*
X139139390Y-92838814D01*
X139051789Y-92707711D01*
X139051786Y-92707707D01*
X138940292Y-92596213D01*
X138940288Y-92596210D01*
X138809185Y-92508609D01*
X138809172Y-92508602D01*
X138663501Y-92448264D01*
X138663489Y-92448261D01*
X138508845Y-92417500D01*
X138508842Y-92417500D01*
X138351158Y-92417500D01*
X138351155Y-92417500D01*
X138196510Y-92448261D01*
X138196498Y-92448264D01*
X138050827Y-92508602D01*
X138050814Y-92508609D01*
X137919711Y-92596210D01*
X137919707Y-92596213D01*
X137808213Y-92707707D01*
X137808210Y-92707711D01*
X137720609Y-92838814D01*
X137720602Y-92838827D01*
X137660264Y-92984498D01*
X137660261Y-92984510D01*
X137629500Y-93139153D01*
X130905253Y-93139153D01*
X130905253Y-93039122D01*
X130905253Y-93039119D01*
X130905252Y-93039117D01*
X130894390Y-92984510D01*
X130874490Y-92884467D01*
X130874488Y-92884462D01*
X130814150Y-92738791D01*
X130814143Y-92738778D01*
X130726542Y-92607675D01*
X130726539Y-92607671D01*
X130615045Y-92496177D01*
X130615041Y-92496174D01*
X130483938Y-92408573D01*
X130483925Y-92408566D01*
X130338254Y-92348228D01*
X130338242Y-92348225D01*
X130183598Y-92317464D01*
X130183595Y-92317464D01*
X130025911Y-92317464D01*
X130025908Y-92317464D01*
X129871263Y-92348225D01*
X129871251Y-92348228D01*
X129725580Y-92408566D01*
X129725567Y-92408573D01*
X129594464Y-92496174D01*
X129594460Y-92496177D01*
X129482966Y-92607671D01*
X129482963Y-92607675D01*
X129395362Y-92738778D01*
X129395355Y-92738791D01*
X129335017Y-92884462D01*
X129335014Y-92884474D01*
X129304253Y-93039117D01*
X124960500Y-93039117D01*
X124960500Y-90930995D01*
X125791499Y-90930995D01*
X125818418Y-91066322D01*
X125818421Y-91066332D01*
X125871221Y-91193804D01*
X125871228Y-91193817D01*
X125947885Y-91308541D01*
X125947888Y-91308545D01*
X126045454Y-91406111D01*
X126045458Y-91406114D01*
X126160182Y-91482771D01*
X126160195Y-91482778D01*
X126287667Y-91535578D01*
X126287672Y-91535580D01*
X126287676Y-91535580D01*
X126287677Y-91535581D01*
X126423004Y-91562500D01*
X126423007Y-91562500D01*
X126560995Y-91562500D01*
X126652041Y-91544389D01*
X126696328Y-91535580D01*
X126823811Y-91482775D01*
X126938542Y-91406114D01*
X127036114Y-91308542D01*
X127095948Y-91218995D01*
X150683499Y-91218995D01*
X150710418Y-91354322D01*
X150710421Y-91354332D01*
X150763221Y-91481804D01*
X150763228Y-91481817D01*
X150839885Y-91596541D01*
X150839888Y-91596545D01*
X150937454Y-91694111D01*
X150937458Y-91694114D01*
X151052182Y-91770771D01*
X151052195Y-91770778D01*
X151179667Y-91823578D01*
X151179672Y-91823580D01*
X151179676Y-91823580D01*
X151179677Y-91823581D01*
X151315004Y-91850500D01*
X151315007Y-91850500D01*
X151452995Y-91850500D01*
X151544041Y-91832389D01*
X151588328Y-91823580D01*
X151715811Y-91770775D01*
X151830542Y-91694114D01*
X151928114Y-91596542D01*
X152004775Y-91481811D01*
X152057580Y-91354328D01*
X152084500Y-91218993D01*
X152084500Y-91081007D01*
X152084500Y-91081004D01*
X152057581Y-90945677D01*
X152057580Y-90945676D01*
X152057580Y-90945672D01*
X152051500Y-90930993D01*
X152004778Y-90818195D01*
X152004771Y-90818182D01*
X151928114Y-90703458D01*
X151928111Y-90703454D01*
X151830545Y-90605888D01*
X151830541Y-90605885D01*
X151715817Y-90529228D01*
X151715804Y-90529221D01*
X151588332Y-90476421D01*
X151588322Y-90476418D01*
X151452995Y-90449500D01*
X151452993Y-90449500D01*
X151315007Y-90449500D01*
X151315005Y-90449500D01*
X151179677Y-90476418D01*
X151179667Y-90476421D01*
X151052195Y-90529221D01*
X151052182Y-90529228D01*
X150937458Y-90605885D01*
X150937454Y-90605888D01*
X150839888Y-90703454D01*
X150839885Y-90703458D01*
X150763228Y-90818182D01*
X150763221Y-90818195D01*
X150710421Y-90945667D01*
X150710418Y-90945677D01*
X150683500Y-91081004D01*
X150683500Y-91081007D01*
X150683500Y-91218993D01*
X150683500Y-91218995D01*
X150683499Y-91218995D01*
X127095948Y-91218995D01*
X127112775Y-91193811D01*
X127165580Y-91066328D01*
X127192500Y-90930993D01*
X127192500Y-90793007D01*
X127192500Y-90793004D01*
X127165581Y-90657677D01*
X127165580Y-90657676D01*
X127165580Y-90657672D01*
X127165578Y-90657667D01*
X127112778Y-90530195D01*
X127112771Y-90530182D01*
X127036114Y-90415458D01*
X127036111Y-90415454D01*
X126938545Y-90317888D01*
X126938541Y-90317885D01*
X126823817Y-90241228D01*
X126823804Y-90241221D01*
X126696332Y-90188421D01*
X126696322Y-90188418D01*
X126560995Y-90161500D01*
X126560993Y-90161500D01*
X126423007Y-90161500D01*
X126423005Y-90161500D01*
X126287677Y-90188418D01*
X126287667Y-90188421D01*
X126160195Y-90241221D01*
X126160182Y-90241228D01*
X126045458Y-90317885D01*
X126045454Y-90317888D01*
X125947888Y-90415454D01*
X125947885Y-90415458D01*
X125871228Y-90530182D01*
X125871221Y-90530195D01*
X125818421Y-90657667D01*
X125818418Y-90657677D01*
X125791500Y-90793004D01*
X125791500Y-90793007D01*
X125791500Y-90930993D01*
X125791500Y-90930995D01*
X125791499Y-90930995D01*
X124960500Y-90930995D01*
X124960500Y-88059153D01*
X146011500Y-88059153D01*
X146011500Y-88216846D01*
X146042261Y-88371489D01*
X146042264Y-88371501D01*
X146102602Y-88517172D01*
X146102609Y-88517185D01*
X146190210Y-88648288D01*
X146190213Y-88648292D01*
X146301707Y-88759786D01*
X146301711Y-88759789D01*
X146432814Y-88847390D01*
X146432827Y-88847397D01*
X146578498Y-88907735D01*
X146578503Y-88907737D01*
X146733153Y-88938499D01*
X146733156Y-88938500D01*
X146733158Y-88938500D01*
X146890844Y-88938500D01*
X146890845Y-88938499D01*
X147045497Y-88907737D01*
X147191179Y-88847394D01*
X147322289Y-88759789D01*
X147433789Y-88648289D01*
X147521394Y-88517179D01*
X147581737Y-88371497D01*
X147612500Y-88216842D01*
X147612500Y-88059158D01*
X147612500Y-88059155D01*
X147612499Y-88059153D01*
X147585317Y-87922500D01*
X147581737Y-87904503D01*
X147551456Y-87831397D01*
X147521397Y-87758827D01*
X147521390Y-87758814D01*
X147433789Y-87627711D01*
X147433786Y-87627707D01*
X147322292Y-87516213D01*
X147322288Y-87516210D01*
X147191185Y-87428609D01*
X147191172Y-87428602D01*
X147045501Y-87368264D01*
X147045489Y-87368261D01*
X146890845Y-87337500D01*
X146890842Y-87337500D01*
X146733158Y-87337500D01*
X146733155Y-87337500D01*
X146578510Y-87368261D01*
X146578498Y-87368264D01*
X146432827Y-87428602D01*
X146432814Y-87428609D01*
X146301711Y-87516210D01*
X146301707Y-87516213D01*
X146190213Y-87627707D01*
X146190210Y-87627711D01*
X146102609Y-87758814D01*
X146102602Y-87758827D01*
X146042264Y-87904498D01*
X146042261Y-87904510D01*
X146011500Y-88059153D01*
X124960500Y-88059153D01*
X124960500Y-87043153D01*
X138391500Y-87043153D01*
X138391500Y-87200846D01*
X138422261Y-87355489D01*
X138422264Y-87355501D01*
X138482602Y-87501172D01*
X138482609Y-87501185D01*
X138570210Y-87632288D01*
X138570213Y-87632292D01*
X138681707Y-87743786D01*
X138681711Y-87743789D01*
X138812814Y-87831390D01*
X138812827Y-87831397D01*
X138958498Y-87891735D01*
X138958503Y-87891737D01*
X139113153Y-87922499D01*
X139113156Y-87922500D01*
X139113158Y-87922500D01*
X139270844Y-87922500D01*
X139270845Y-87922499D01*
X139425497Y-87891737D01*
X139571179Y-87831394D01*
X139702289Y-87743789D01*
X139813789Y-87632289D01*
X139901394Y-87501179D01*
X139961737Y-87355497D01*
X139992500Y-87200842D01*
X139992500Y-87043158D01*
X139992500Y-87043155D01*
X139992499Y-87043153D01*
X139961738Y-86888510D01*
X139961737Y-86888503D01*
X139961735Y-86888498D01*
X139901397Y-86742827D01*
X139901390Y-86742814D01*
X139813789Y-86611711D01*
X139813786Y-86611707D01*
X139702292Y-86500213D01*
X139702288Y-86500210D01*
X139571185Y-86412609D01*
X139571172Y-86412602D01*
X139425501Y-86352264D01*
X139425489Y-86352261D01*
X139270845Y-86321500D01*
X139270842Y-86321500D01*
X139113158Y-86321500D01*
X139113155Y-86321500D01*
X138958510Y-86352261D01*
X138958498Y-86352264D01*
X138812827Y-86412602D01*
X138812814Y-86412609D01*
X138681711Y-86500210D01*
X138681707Y-86500213D01*
X138570213Y-86611707D01*
X138570210Y-86611711D01*
X138482609Y-86742814D01*
X138482602Y-86742827D01*
X138422264Y-86888498D01*
X138422261Y-86888510D01*
X138391500Y-87043153D01*
X124960500Y-87043153D01*
X124960500Y-66208935D01*
X125903500Y-66208935D01*
X125903500Y-68004670D01*
X125903501Y-68004676D01*
X125909908Y-68064283D01*
X125960202Y-68199128D01*
X125960206Y-68199135D01*
X126046452Y-68314344D01*
X126046455Y-68314347D01*
X126161664Y-68400593D01*
X126161671Y-68400597D01*
X126161674Y-68400598D01*
X126293598Y-68449802D01*
X126349531Y-68491673D01*
X126373949Y-68557137D01*
X126359098Y-68625410D01*
X126337947Y-68653665D01*
X126224271Y-68767341D01*
X126099379Y-68939242D01*
X126002904Y-69128582D01*
X125937242Y-69330670D01*
X125937242Y-69330673D01*
X125926769Y-69396800D01*
X126820988Y-69396800D01*
X126788075Y-69453807D01*
X126754000Y-69580974D01*
X126754000Y-69712626D01*
X126788075Y-69839793D01*
X126820988Y-69896800D01*
X125926769Y-69896800D01*
X125937242Y-69962926D01*
X125937242Y-69962929D01*
X126002904Y-70165017D01*
X126099379Y-70354357D01*
X126224272Y-70526259D01*
X126224276Y-70526264D01*
X126374535Y-70676523D01*
X126374540Y-70676527D01*
X126546444Y-70801422D01*
X126555495Y-70806034D01*
X126606292Y-70854008D01*
X126623087Y-70921829D01*
X126600550Y-70987964D01*
X126555499Y-71027002D01*
X126546182Y-71031749D01*
X126374213Y-71156690D01*
X126223890Y-71307013D01*
X126098951Y-71478979D01*
X126002444Y-71668385D01*
X125936753Y-71870560D01*
X125903500Y-72080513D01*
X125903500Y-72293086D01*
X125936753Y-72503039D01*
X126002444Y-72705214D01*
X126098951Y-72894620D01*
X126223890Y-73066586D01*
X126374213Y-73216909D01*
X126546182Y-73341850D01*
X126554946Y-73346316D01*
X126605742Y-73394291D01*
X126622536Y-73462112D01*
X126599998Y-73528247D01*
X126554946Y-73567284D01*
X126546182Y-73571749D01*
X126374213Y-73696690D01*
X126223890Y-73847013D01*
X126098951Y-74018979D01*
X126002444Y-74208385D01*
X125936753Y-74410560D01*
X125935291Y-74419793D01*
X125903500Y-74620513D01*
X125903500Y-74833087D01*
X125936754Y-75043043D01*
X125983297Y-75186288D01*
X126002444Y-75245214D01*
X126098951Y-75434620D01*
X126223890Y-75606586D01*
X126374213Y-75756909D01*
X126546182Y-75881850D01*
X126554946Y-75886316D01*
X126605742Y-75934291D01*
X126622536Y-76002112D01*
X126599998Y-76068247D01*
X126554946Y-76107284D01*
X126546182Y-76111749D01*
X126374213Y-76236690D01*
X126223890Y-76387013D01*
X126098951Y-76558979D01*
X126002444Y-76748385D01*
X125936753Y-76950560D01*
X125903500Y-77160513D01*
X125903500Y-77373086D01*
X125936753Y-77583039D01*
X126002444Y-77785214D01*
X126098951Y-77974620D01*
X126223890Y-78146586D01*
X126374213Y-78296909D01*
X126546182Y-78421850D01*
X126554946Y-78426316D01*
X126605742Y-78474291D01*
X126622536Y-78542112D01*
X126599998Y-78608247D01*
X126554946Y-78647284D01*
X126546182Y-78651749D01*
X126374213Y-78776690D01*
X126223890Y-78927013D01*
X126098951Y-79098979D01*
X126002444Y-79288385D01*
X125936753Y-79490560D01*
X125908794Y-79667088D01*
X125903500Y-79700513D01*
X125903500Y-79913087D01*
X125910503Y-79957299D01*
X125927181Y-80062606D01*
X125936754Y-80123043D01*
X125981810Y-80261711D01*
X126002444Y-80325214D01*
X126098951Y-80514620D01*
X126223890Y-80686586D01*
X126374213Y-80836909D01*
X126546182Y-80961850D01*
X126554946Y-80966316D01*
X126605742Y-81014291D01*
X126622536Y-81082112D01*
X126599998Y-81148247D01*
X126554946Y-81187284D01*
X126546182Y-81191749D01*
X126374213Y-81316690D01*
X126223890Y-81467013D01*
X126098951Y-81638979D01*
X126002444Y-81828385D01*
X125936753Y-82030560D01*
X125903500Y-82240513D01*
X125903500Y-82453086D01*
X125927181Y-82602606D01*
X125936754Y-82663043D01*
X125995063Y-82842500D01*
X126002444Y-82865214D01*
X126098951Y-83054620D01*
X126223890Y-83226586D01*
X126374213Y-83376909D01*
X126546182Y-83501850D01*
X126554946Y-83506316D01*
X126605742Y-83554291D01*
X126622536Y-83622112D01*
X126599998Y-83688247D01*
X126554946Y-83727284D01*
X126546182Y-83731749D01*
X126374213Y-83856690D01*
X126223890Y-84007013D01*
X126098951Y-84178979D01*
X126002444Y-84368385D01*
X125936753Y-84570560D01*
X125935304Y-84579711D01*
X125903500Y-84780513D01*
X125903500Y-84993087D01*
X125906362Y-85011155D01*
X125931337Y-85168846D01*
X125936754Y-85203043D01*
X125983297Y-85346288D01*
X126002444Y-85405214D01*
X126098951Y-85594620D01*
X126223890Y-85766586D01*
X126374213Y-85916909D01*
X126546179Y-86041848D01*
X126546181Y-86041849D01*
X126546184Y-86041851D01*
X126735588Y-86138357D01*
X126937757Y-86204046D01*
X127147713Y-86237300D01*
X127147714Y-86237300D01*
X127360286Y-86237300D01*
X127360287Y-86237300D01*
X127570243Y-86204046D01*
X127772412Y-86138357D01*
X127961816Y-86041851D01*
X127983789Y-86025886D01*
X128133786Y-85916909D01*
X128133788Y-85916906D01*
X128133792Y-85916904D01*
X128284104Y-85766592D01*
X128284106Y-85766588D01*
X128284109Y-85766586D01*
X128409048Y-85594620D01*
X128409047Y-85594620D01*
X128409051Y-85594616D01*
X128505557Y-85405212D01*
X128571246Y-85203043D01*
X128601639Y-85011153D01*
X130517500Y-85011153D01*
X130517500Y-85168846D01*
X130548261Y-85323489D01*
X130548264Y-85323501D01*
X130608602Y-85469172D01*
X130608609Y-85469185D01*
X130696210Y-85600288D01*
X130696213Y-85600292D01*
X130807707Y-85711786D01*
X130807711Y-85711789D01*
X130938814Y-85799390D01*
X130938827Y-85799397D01*
X131084498Y-85859735D01*
X131084503Y-85859737D01*
X131239153Y-85890499D01*
X131239156Y-85890500D01*
X131239158Y-85890500D01*
X131396844Y-85890500D01*
X131396845Y-85890499D01*
X131551497Y-85859737D01*
X131697179Y-85799394D01*
X131828289Y-85711789D01*
X131939789Y-85600289D01*
X132027394Y-85469179D01*
X132087737Y-85323497D01*
X132118500Y-85168842D01*
X132118500Y-85011158D01*
X132118500Y-85011155D01*
X132118499Y-85011153D01*
X132087738Y-84856510D01*
X132087737Y-84856503D01*
X132046585Y-84757153D01*
X132803500Y-84757153D01*
X132803500Y-84914846D01*
X132834261Y-85069489D01*
X132834264Y-85069501D01*
X132894602Y-85215172D01*
X132894609Y-85215185D01*
X132982210Y-85346288D01*
X132982213Y-85346292D01*
X133093707Y-85457786D01*
X133093711Y-85457789D01*
X133224814Y-85545390D01*
X133224827Y-85545397D01*
X133370498Y-85605735D01*
X133370503Y-85605737D01*
X133525153Y-85636499D01*
X133525156Y-85636500D01*
X133525158Y-85636500D01*
X133682844Y-85636500D01*
X133682845Y-85636499D01*
X133837497Y-85605737D01*
X133983179Y-85545394D01*
X134114289Y-85457789D01*
X134225789Y-85346289D01*
X134313394Y-85215179D01*
X134373737Y-85069497D01*
X134404500Y-84914842D01*
X134404500Y-84757158D01*
X134404500Y-84757155D01*
X134404499Y-84757153D01*
X134395283Y-84710821D01*
X134373737Y-84602503D01*
X134360553Y-84570673D01*
X134313397Y-84456827D01*
X134313390Y-84456814D01*
X134225789Y-84325711D01*
X134225786Y-84325707D01*
X134217058Y-84316979D01*
X134183573Y-84255656D01*
X134188557Y-84185964D01*
X134230429Y-84130031D01*
X134295893Y-84105614D01*
X134328931Y-84107680D01*
X134337876Y-84109460D01*
X134353157Y-84112500D01*
X134353158Y-84112500D01*
X134510844Y-84112500D01*
X134510845Y-84112499D01*
X134665497Y-84081737D01*
X134811179Y-84021394D01*
X134942289Y-83933789D01*
X135053789Y-83822289D01*
X135141394Y-83691179D01*
X135142609Y-83688247D01*
X135170002Y-83622112D01*
X135201737Y-83545497D01*
X135232500Y-83390842D01*
X135232500Y-83233158D01*
X135232500Y-83233155D01*
X135232499Y-83233153D01*
X135201738Y-83078510D01*
X135201737Y-83078503D01*
X135201735Y-83078498D01*
X135141397Y-82932827D01*
X135141390Y-82932814D01*
X135053789Y-82801711D01*
X135053786Y-82801707D01*
X134942292Y-82690213D01*
X134942288Y-82690210D01*
X134811185Y-82602609D01*
X134811172Y-82602602D01*
X134665501Y-82542264D01*
X134665489Y-82542261D01*
X134510845Y-82511500D01*
X134510842Y-82511500D01*
X134353158Y-82511500D01*
X134353155Y-82511500D01*
X134198510Y-82542261D01*
X134198498Y-82542264D01*
X134052827Y-82602602D01*
X134052814Y-82602609D01*
X133921711Y-82690210D01*
X133921707Y-82690213D01*
X133810213Y-82801707D01*
X133810210Y-82801711D01*
X133722609Y-82932814D01*
X133722602Y-82932827D01*
X133662264Y-83078498D01*
X133662261Y-83078510D01*
X133631500Y-83233153D01*
X133631500Y-83390846D01*
X133662261Y-83545489D01*
X133662264Y-83545501D01*
X133722602Y-83691172D01*
X133722609Y-83691185D01*
X133810210Y-83822288D01*
X133810213Y-83822292D01*
X133818941Y-83831020D01*
X133852426Y-83892343D01*
X133847442Y-83962035D01*
X133805570Y-84017968D01*
X133740106Y-84042385D01*
X133707070Y-84040319D01*
X133682842Y-84035500D01*
X133525158Y-84035500D01*
X133525155Y-84035500D01*
X133370510Y-84066261D01*
X133370498Y-84066264D01*
X133224827Y-84126602D01*
X133224814Y-84126609D01*
X133093711Y-84214210D01*
X133093707Y-84214213D01*
X132982213Y-84325707D01*
X132982210Y-84325711D01*
X132894609Y-84456814D01*
X132894602Y-84456827D01*
X132834264Y-84602498D01*
X132834261Y-84602510D01*
X132803500Y-84757153D01*
X132046585Y-84757153D01*
X132027397Y-84710826D01*
X132027390Y-84710814D01*
X131939789Y-84579711D01*
X131939786Y-84579707D01*
X131828292Y-84468213D01*
X131828288Y-84468210D01*
X131697185Y-84380609D01*
X131697172Y-84380602D01*
X131551501Y-84320264D01*
X131551489Y-84320261D01*
X131396845Y-84289500D01*
X131396842Y-84289500D01*
X131239158Y-84289500D01*
X131239155Y-84289500D01*
X131084510Y-84320261D01*
X131084498Y-84320264D01*
X130938827Y-84380602D01*
X130938814Y-84380609D01*
X130807711Y-84468210D01*
X130807707Y-84468213D01*
X130696213Y-84579707D01*
X130696210Y-84579711D01*
X130608609Y-84710814D01*
X130608602Y-84710827D01*
X130548264Y-84856498D01*
X130548261Y-84856510D01*
X130517500Y-85011153D01*
X128601639Y-85011153D01*
X128604500Y-84993087D01*
X128604500Y-84780513D01*
X128571246Y-84570557D01*
X128505557Y-84368388D01*
X128409051Y-84178984D01*
X128409049Y-84178981D01*
X128409048Y-84178979D01*
X128284109Y-84007013D01*
X128133786Y-83856690D01*
X127961820Y-83731751D01*
X127953600Y-83727563D01*
X127953054Y-83727285D01*
X127902259Y-83679312D01*
X127885463Y-83611492D01*
X127907999Y-83545356D01*
X127953054Y-83506315D01*
X127961816Y-83501851D01*
X127983789Y-83485886D01*
X128133786Y-83376909D01*
X128133788Y-83376906D01*
X128133792Y-83376904D01*
X128284104Y-83226592D01*
X128284106Y-83226588D01*
X128284109Y-83226586D01*
X128409048Y-83054620D01*
X128409047Y-83054620D01*
X128409051Y-83054616D01*
X128505557Y-82865212D01*
X128571246Y-82663043D01*
X128604500Y-82453087D01*
X128604500Y-82240513D01*
X128571246Y-82030557D01*
X128549345Y-81963153D01*
X147027500Y-81963153D01*
X147027500Y-82120846D01*
X147058261Y-82275489D01*
X147058264Y-82275501D01*
X147118602Y-82421172D01*
X147118609Y-82421185D01*
X147206210Y-82552288D01*
X147206213Y-82552292D01*
X147317707Y-82663786D01*
X147317711Y-82663789D01*
X147448814Y-82751390D01*
X147448827Y-82751397D01*
X147570288Y-82801707D01*
X147594503Y-82811737D01*
X147749153Y-82842499D01*
X147749156Y-82842500D01*
X147749158Y-82842500D01*
X147906844Y-82842500D01*
X147906845Y-82842499D01*
X148061497Y-82811737D01*
X148207179Y-82751394D01*
X148338289Y-82663789D01*
X148449789Y-82552289D01*
X148537394Y-82421179D01*
X148597737Y-82275497D01*
X148628500Y-82120842D01*
X148628500Y-81963158D01*
X148628500Y-81963155D01*
X148628499Y-81963153D01*
X148601692Y-81828388D01*
X148597737Y-81808503D01*
X148597735Y-81808498D01*
X148537397Y-81662827D01*
X148537390Y-81662814D01*
X148449789Y-81531711D01*
X148449786Y-81531707D01*
X148338292Y-81420213D01*
X148338288Y-81420210D01*
X148207185Y-81332609D01*
X148207172Y-81332602D01*
X148061501Y-81272264D01*
X148061489Y-81272261D01*
X147906845Y-81241500D01*
X147906842Y-81241500D01*
X147749158Y-81241500D01*
X147749155Y-81241500D01*
X147594510Y-81272261D01*
X147594498Y-81272264D01*
X147448827Y-81332602D01*
X147448814Y-81332609D01*
X147317711Y-81420210D01*
X147317707Y-81420213D01*
X147206213Y-81531707D01*
X147206210Y-81531711D01*
X147118609Y-81662814D01*
X147118602Y-81662827D01*
X147058264Y-81808498D01*
X147058261Y-81808510D01*
X147027500Y-81963153D01*
X128549345Y-81963153D01*
X128505557Y-81828388D01*
X128409051Y-81638984D01*
X128409049Y-81638981D01*
X128409048Y-81638979D01*
X128284109Y-81467013D01*
X128133786Y-81316690D01*
X127961820Y-81191751D01*
X127961115Y-81191391D01*
X127953054Y-81187285D01*
X127902259Y-81139312D01*
X127885463Y-81071492D01*
X127907999Y-81005356D01*
X127953054Y-80966315D01*
X127961816Y-80961851D01*
X127983789Y-80945886D01*
X128133786Y-80836909D01*
X128133788Y-80836906D01*
X128133792Y-80836904D01*
X128277543Y-80693153D01*
X145503500Y-80693153D01*
X145503500Y-80850846D01*
X145534261Y-81005489D01*
X145534264Y-81005501D01*
X145594602Y-81151172D01*
X145594609Y-81151185D01*
X145682210Y-81282288D01*
X145682213Y-81282292D01*
X145793707Y-81393786D01*
X145793711Y-81393789D01*
X145924814Y-81481390D01*
X145924827Y-81481397D01*
X146046288Y-81531707D01*
X146070503Y-81541737D01*
X146225153Y-81572499D01*
X146225156Y-81572500D01*
X146225158Y-81572500D01*
X146382844Y-81572500D01*
X146382845Y-81572499D01*
X146537497Y-81541737D01*
X146683179Y-81481394D01*
X146814289Y-81393789D01*
X146925789Y-81282289D01*
X147013394Y-81151179D01*
X147014609Y-81148247D01*
X147042002Y-81082112D01*
X147073737Y-81005497D01*
X147104500Y-80850842D01*
X147104500Y-80693158D01*
X147104500Y-80693155D01*
X147104499Y-80693153D01*
X147073738Y-80538510D01*
X147073737Y-80538503D01*
X147073735Y-80538498D01*
X147013397Y-80392827D01*
X147013390Y-80392814D01*
X146925789Y-80261711D01*
X146925786Y-80261707D01*
X146814292Y-80150213D01*
X146814288Y-80150210D01*
X146683185Y-80062609D01*
X146683172Y-80062602D01*
X146537501Y-80002264D01*
X146537489Y-80002261D01*
X146382845Y-79971500D01*
X146382842Y-79971500D01*
X146225158Y-79971500D01*
X146225155Y-79971500D01*
X146070510Y-80002261D01*
X146070498Y-80002264D01*
X145924827Y-80062602D01*
X145924814Y-80062609D01*
X145793711Y-80150210D01*
X145793707Y-80150213D01*
X145682213Y-80261707D01*
X145682210Y-80261711D01*
X145594609Y-80392814D01*
X145594602Y-80392827D01*
X145534264Y-80538498D01*
X145534261Y-80538510D01*
X145503500Y-80693153D01*
X128277543Y-80693153D01*
X128284104Y-80686592D01*
X128409051Y-80514616D01*
X128505557Y-80325212D01*
X128571246Y-80123043D01*
X128604500Y-79913087D01*
X128604500Y-79700513D01*
X128571246Y-79490557D01*
X128505557Y-79288388D01*
X128409051Y-79098984D01*
X128409050Y-79098982D01*
X128393772Y-79077953D01*
X143725500Y-79077953D01*
X143725500Y-79235646D01*
X143756261Y-79390289D01*
X143756264Y-79390301D01*
X143816602Y-79535972D01*
X143816609Y-79535985D01*
X143904210Y-79667088D01*
X143904213Y-79667092D01*
X144015707Y-79778586D01*
X144015711Y-79778589D01*
X144146814Y-79866190D01*
X144146827Y-79866197D01*
X144292498Y-79926535D01*
X144292503Y-79926537D01*
X144447153Y-79957299D01*
X144447156Y-79957300D01*
X144447158Y-79957300D01*
X144604844Y-79957300D01*
X144604845Y-79957299D01*
X144759497Y-79926537D01*
X144905179Y-79866194D01*
X145036289Y-79778589D01*
X145147789Y-79667089D01*
X145235394Y-79535979D01*
X145295737Y-79390297D01*
X145326500Y-79235642D01*
X145326500Y-79077958D01*
X145326500Y-79077955D01*
X145326499Y-79077953D01*
X145295738Y-78923310D01*
X145295737Y-78923303D01*
X145295735Y-78923298D01*
X145235397Y-78777627D01*
X145235390Y-78777614D01*
X145147789Y-78646511D01*
X145147786Y-78646507D01*
X145036292Y-78535013D01*
X145036288Y-78535010D01*
X144905185Y-78447409D01*
X144905172Y-78447402D01*
X144759501Y-78387064D01*
X144759489Y-78387061D01*
X144604845Y-78356300D01*
X144604842Y-78356300D01*
X144447158Y-78356300D01*
X144447155Y-78356300D01*
X144292510Y-78387061D01*
X144292498Y-78387064D01*
X144146827Y-78447402D01*
X144146814Y-78447409D01*
X144015711Y-78535010D01*
X144015707Y-78535013D01*
X143904213Y-78646507D01*
X143904210Y-78646511D01*
X143816609Y-78777614D01*
X143816602Y-78777627D01*
X143756264Y-78923298D01*
X143756261Y-78923310D01*
X143725500Y-79077953D01*
X128393772Y-79077953D01*
X128284109Y-78927013D01*
X128133786Y-78776690D01*
X127961820Y-78651751D01*
X127961115Y-78651391D01*
X127953054Y-78647285D01*
X127902259Y-78599312D01*
X127885463Y-78531492D01*
X127907999Y-78465356D01*
X127953054Y-78426315D01*
X127961816Y-78421851D01*
X128052040Y-78356300D01*
X128133786Y-78296909D01*
X128133788Y-78296906D01*
X128133792Y-78296904D01*
X128284104Y-78146592D01*
X128284106Y-78146588D01*
X128284109Y-78146586D01*
X128409048Y-77974620D01*
X128409047Y-77974620D01*
X128409051Y-77974616D01*
X128505557Y-77785212D01*
X128571246Y-77583043D01*
X128604500Y-77373087D01*
X128604500Y-77160513D01*
X128571246Y-76950557D01*
X128505557Y-76748388D01*
X128409051Y-76558984D01*
X128409049Y-76558981D01*
X128409048Y-76558979D01*
X128284109Y-76387013D01*
X128133786Y-76236690D01*
X127961820Y-76111751D01*
X127961115Y-76111391D01*
X127953054Y-76107285D01*
X127902259Y-76059312D01*
X127885463Y-75991492D01*
X127907999Y-75925356D01*
X127953054Y-75886315D01*
X127961816Y-75881851D01*
X127983789Y-75865886D01*
X128133786Y-75756909D01*
X128133788Y-75756906D01*
X128133792Y-75756904D01*
X128284104Y-75606592D01*
X128284106Y-75606588D01*
X128284109Y-75606586D01*
X128409048Y-75434620D01*
X128409047Y-75434620D01*
X128409051Y-75434616D01*
X128505557Y-75245212D01*
X128571246Y-75043043D01*
X128604500Y-74833087D01*
X128604500Y-74620513D01*
X128600800Y-74597153D01*
X137629500Y-74597153D01*
X137629500Y-74754846D01*
X137660261Y-74909489D01*
X137660264Y-74909501D01*
X137720602Y-75055172D01*
X137720609Y-75055185D01*
X137808210Y-75186288D01*
X137808213Y-75186292D01*
X137919707Y-75297786D01*
X137919711Y-75297789D01*
X138050814Y-75385390D01*
X138050827Y-75385397D01*
X138169029Y-75434357D01*
X138196503Y-75445737D01*
X138351153Y-75476499D01*
X138351156Y-75476500D01*
X138351158Y-75476500D01*
X138508844Y-75476500D01*
X138508845Y-75476499D01*
X138663497Y-75445737D01*
X138809179Y-75385394D01*
X138940289Y-75297789D01*
X139051789Y-75186289D01*
X139139394Y-75055179D01*
X139199737Y-74909497D01*
X139230500Y-74754842D01*
X139230500Y-74597158D01*
X139230500Y-74597155D01*
X139230499Y-74597153D01*
X140677500Y-74597153D01*
X140677500Y-74754846D01*
X140708261Y-74909489D01*
X140708264Y-74909501D01*
X140768602Y-75055172D01*
X140768609Y-75055185D01*
X140856210Y-75186288D01*
X140856213Y-75186292D01*
X140967707Y-75297786D01*
X140967711Y-75297789D01*
X141098814Y-75385390D01*
X141098827Y-75385397D01*
X141217029Y-75434357D01*
X141244503Y-75445737D01*
X141399153Y-75476499D01*
X141399156Y-75476500D01*
X141399158Y-75476500D01*
X141556844Y-75476500D01*
X141556845Y-75476499D01*
X141711497Y-75445737D01*
X141857179Y-75385394D01*
X141988289Y-75297789D01*
X142099789Y-75186289D01*
X142187394Y-75055179D01*
X142247737Y-74909497D01*
X142278500Y-74754842D01*
X142278500Y-74597158D01*
X142278500Y-74597155D01*
X142278499Y-74597153D01*
X142247737Y-74442503D01*
X142234553Y-74410673D01*
X142187397Y-74296827D01*
X142187390Y-74296814D01*
X142099789Y-74165711D01*
X142099786Y-74165707D01*
X141988292Y-74054213D01*
X141988288Y-74054210D01*
X141857185Y-73966609D01*
X141857172Y-73966602D01*
X141711501Y-73906264D01*
X141711489Y-73906261D01*
X141556845Y-73875500D01*
X141556842Y-73875500D01*
X141399158Y-73875500D01*
X141399155Y-73875500D01*
X141244510Y-73906261D01*
X141244498Y-73906264D01*
X141098827Y-73966602D01*
X141098814Y-73966609D01*
X140967711Y-74054210D01*
X140967707Y-74054213D01*
X140856213Y-74165707D01*
X140856210Y-74165711D01*
X140768609Y-74296814D01*
X140768602Y-74296827D01*
X140708264Y-74442498D01*
X140708261Y-74442510D01*
X140677500Y-74597153D01*
X139230499Y-74597153D01*
X139199737Y-74442503D01*
X139186553Y-74410673D01*
X139139397Y-74296827D01*
X139139390Y-74296814D01*
X139051789Y-74165711D01*
X139051786Y-74165707D01*
X138940292Y-74054213D01*
X138940288Y-74054210D01*
X138809185Y-73966609D01*
X138809172Y-73966602D01*
X138663501Y-73906264D01*
X138663489Y-73906261D01*
X138508845Y-73875500D01*
X138508842Y-73875500D01*
X138351158Y-73875500D01*
X138351155Y-73875500D01*
X138196510Y-73906261D01*
X138196498Y-73906264D01*
X138050827Y-73966602D01*
X138050814Y-73966609D01*
X137919711Y-74054210D01*
X137919707Y-74054213D01*
X137808213Y-74165707D01*
X137808210Y-74165711D01*
X137720609Y-74296814D01*
X137720602Y-74296827D01*
X137660264Y-74442498D01*
X137660261Y-74442510D01*
X137629500Y-74597153D01*
X128600800Y-74597153D01*
X128571246Y-74410557D01*
X128505557Y-74208388D01*
X128409051Y-74018984D01*
X128409049Y-74018981D01*
X128409048Y-74018979D01*
X128284109Y-73847013D01*
X128133786Y-73696690D01*
X127961820Y-73571751D01*
X127953600Y-73567563D01*
X127953054Y-73567285D01*
X127902259Y-73519312D01*
X127885463Y-73451492D01*
X127907999Y-73385356D01*
X127953054Y-73346315D01*
X127961816Y-73341851D01*
X127983789Y-73325886D01*
X128133786Y-73216909D01*
X128133788Y-73216906D01*
X128133792Y-73216904D01*
X128284104Y-73066592D01*
X128284106Y-73066588D01*
X128284109Y-73066586D01*
X128409048Y-72894620D01*
X128409047Y-72894620D01*
X128409051Y-72894616D01*
X128505557Y-72705212D01*
X128571246Y-72503043D01*
X128604500Y-72293087D01*
X128604500Y-72080513D01*
X128571246Y-71870557D01*
X128505557Y-71668388D01*
X128409051Y-71478984D01*
X128390058Y-71452842D01*
X128324023Y-71361951D01*
X128284109Y-71307013D01*
X128272249Y-71295153D01*
X133819500Y-71295153D01*
X133819500Y-71452846D01*
X133850261Y-71607489D01*
X133850264Y-71607501D01*
X133910602Y-71753172D01*
X133910609Y-71753185D01*
X133998210Y-71884288D01*
X133998213Y-71884292D01*
X134109707Y-71995786D01*
X134109711Y-71995789D01*
X134240814Y-72083390D01*
X134240827Y-72083397D01*
X134386498Y-72143735D01*
X134386503Y-72143737D01*
X134541153Y-72174499D01*
X134541156Y-72174500D01*
X134541158Y-72174500D01*
X134698844Y-72174500D01*
X134698845Y-72174499D01*
X134853497Y-72143737D01*
X134999179Y-72083394D01*
X135130289Y-71995789D01*
X135241789Y-71884289D01*
X135329394Y-71753179D01*
X135389737Y-71607497D01*
X135420500Y-71452842D01*
X135420500Y-71295158D01*
X135420500Y-71295155D01*
X135420499Y-71295153D01*
X135392958Y-71156696D01*
X135389737Y-71140503D01*
X135344690Y-71031749D01*
X135329397Y-70994827D01*
X135329390Y-70994814D01*
X135241789Y-70863711D01*
X135241786Y-70863707D01*
X135130292Y-70752213D01*
X135130288Y-70752210D01*
X134999185Y-70664609D01*
X134999172Y-70664602D01*
X134853501Y-70604264D01*
X134853489Y-70604261D01*
X134698845Y-70573500D01*
X134698842Y-70573500D01*
X134541158Y-70573500D01*
X134541155Y-70573500D01*
X134386510Y-70604261D01*
X134386498Y-70604264D01*
X134240827Y-70664602D01*
X134240814Y-70664609D01*
X134109711Y-70752210D01*
X134109707Y-70752213D01*
X133998213Y-70863707D01*
X133998210Y-70863711D01*
X133910609Y-70994814D01*
X133910602Y-70994827D01*
X133850264Y-71140498D01*
X133850261Y-71140510D01*
X133819500Y-71295153D01*
X128272249Y-71295153D01*
X128133786Y-71156690D01*
X127961817Y-71031749D01*
X127952504Y-71027004D01*
X127901707Y-70979030D01*
X127884912Y-70911209D01*
X127907449Y-70845074D01*
X127952507Y-70806032D01*
X127961558Y-70801420D01*
X128133459Y-70676527D01*
X128133464Y-70676523D01*
X128283723Y-70526264D01*
X128283727Y-70526259D01*
X128408620Y-70354357D01*
X128505095Y-70165017D01*
X128570757Y-69962929D01*
X128570757Y-69962926D01*
X128581231Y-69896800D01*
X127687012Y-69896800D01*
X127719925Y-69839793D01*
X127754000Y-69712626D01*
X127754000Y-69580974D01*
X127719925Y-69453807D01*
X127687012Y-69396800D01*
X128581231Y-69396800D01*
X128570757Y-69330673D01*
X128570757Y-69330670D01*
X128505095Y-69128582D01*
X128408620Y-68939242D01*
X128283727Y-68767340D01*
X128283723Y-68767335D01*
X128170053Y-68653665D01*
X128136568Y-68592342D01*
X128141552Y-68522650D01*
X128183424Y-68466717D01*
X128214400Y-68449802D01*
X128346331Y-68400596D01*
X128461546Y-68314346D01*
X128547796Y-68199131D01*
X128598091Y-68064283D01*
X128604500Y-68004673D01*
X128604500Y-67993153D01*
X133819500Y-67993153D01*
X133819500Y-68150846D01*
X133850261Y-68305489D01*
X133850264Y-68305501D01*
X133910602Y-68451172D01*
X133910609Y-68451185D01*
X133998210Y-68582288D01*
X133998213Y-68582292D01*
X134109707Y-68693786D01*
X134109711Y-68693789D01*
X134240814Y-68781390D01*
X134240827Y-68781397D01*
X134386498Y-68841735D01*
X134386503Y-68841737D01*
X134541153Y-68872499D01*
X134541156Y-68872500D01*
X134541158Y-68872500D01*
X134698844Y-68872500D01*
X134698845Y-68872499D01*
X134853497Y-68841737D01*
X134999179Y-68781394D01*
X135130289Y-68693789D01*
X135241789Y-68582289D01*
X135329394Y-68451179D01*
X135389737Y-68305497D01*
X135420500Y-68150842D01*
X135420500Y-67993158D01*
X135420500Y-67993155D01*
X135420499Y-67993153D01*
X135389738Y-67838510D01*
X135389737Y-67838503D01*
X135389735Y-67838498D01*
X135329397Y-67692827D01*
X135329390Y-67692814D01*
X135241789Y-67561711D01*
X135241786Y-67561707D01*
X135130292Y-67450213D01*
X135130288Y-67450210D01*
X134999185Y-67362609D01*
X134999172Y-67362602D01*
X134853501Y-67302264D01*
X134853489Y-67302261D01*
X134698845Y-67271500D01*
X134698842Y-67271500D01*
X134541158Y-67271500D01*
X134541155Y-67271500D01*
X134386510Y-67302261D01*
X134386498Y-67302264D01*
X134240827Y-67362602D01*
X134240814Y-67362609D01*
X134109711Y-67450210D01*
X134109707Y-67450213D01*
X133998213Y-67561707D01*
X133998210Y-67561711D01*
X133910609Y-67692814D01*
X133910602Y-67692827D01*
X133850264Y-67838498D01*
X133850261Y-67838510D01*
X133819500Y-67993153D01*
X128604500Y-67993153D01*
X128604499Y-66473805D01*
X128624184Y-66406767D01*
X128676987Y-66361012D01*
X128746146Y-66351068D01*
X128809702Y-66380093D01*
X128846430Y-66435487D01*
X128857038Y-66468137D01*
X128939080Y-66629150D01*
X129045291Y-66775340D01*
X129173084Y-66903133D01*
X129309884Y-67002522D01*
X129319278Y-67009347D01*
X129421873Y-67061622D01*
X129480287Y-67091386D01*
X129480289Y-67091386D01*
X129480292Y-67091388D01*
X129572415Y-67121320D01*
X129652157Y-67147231D01*
X129830640Y-67175500D01*
X129830645Y-67175500D01*
X130011360Y-67175500D01*
X130189842Y-67147231D01*
X130361708Y-67091388D01*
X130522722Y-67009347D01*
X130604805Y-66949710D01*
X130668915Y-66903133D01*
X130668917Y-66903130D01*
X130668921Y-66903128D01*
X130796703Y-66775346D01*
X130796705Y-66775342D01*
X130796708Y-66775340D01*
X130843285Y-66711230D01*
X130902922Y-66629147D01*
X130984963Y-66468133D01*
X131040806Y-66296267D01*
X131054638Y-66208935D01*
X148966700Y-66208935D01*
X148966700Y-68004670D01*
X148966701Y-68004676D01*
X148973108Y-68064283D01*
X149023402Y-68199128D01*
X149023406Y-68199135D01*
X149109652Y-68314344D01*
X149109655Y-68314347D01*
X149224864Y-68400593D01*
X149224871Y-68400597D01*
X149356282Y-68449610D01*
X149412216Y-68491481D01*
X149436633Y-68556945D01*
X149421782Y-68625218D01*
X149400631Y-68653473D01*
X149287089Y-68767015D01*
X149162151Y-68938979D01*
X149065644Y-69128385D01*
X148999953Y-69330560D01*
X148966700Y-69540513D01*
X148966700Y-69753086D01*
X148999953Y-69963039D01*
X149065644Y-70165214D01*
X149162151Y-70354620D01*
X149287090Y-70526586D01*
X149437413Y-70676909D01*
X149609382Y-70801850D01*
X149618146Y-70806316D01*
X149668942Y-70854291D01*
X149685736Y-70922112D01*
X149663198Y-70988247D01*
X149618146Y-71027284D01*
X149609382Y-71031749D01*
X149437413Y-71156690D01*
X149287090Y-71307013D01*
X149162151Y-71478979D01*
X149065644Y-71668385D01*
X148999953Y-71870560D01*
X148966700Y-72080513D01*
X148966700Y-72293086D01*
X148999953Y-72503039D01*
X149065644Y-72705214D01*
X149162151Y-72894620D01*
X149287090Y-73066586D01*
X149437413Y-73216909D01*
X149609379Y-73341848D01*
X149609381Y-73341849D01*
X149609384Y-73341851D01*
X149618693Y-73346594D01*
X149669490Y-73394566D01*
X149686287Y-73462387D01*
X149663752Y-73528522D01*
X149618702Y-73567562D01*
X149609643Y-73572178D01*
X149437740Y-73697072D01*
X149437735Y-73697076D01*
X149287476Y-73847335D01*
X149287472Y-73847340D01*
X149162579Y-74019242D01*
X149066104Y-74208582D01*
X149000442Y-74410670D01*
X149000442Y-74410673D01*
X148989969Y-74476800D01*
X149884188Y-74476800D01*
X149851275Y-74533807D01*
X149817200Y-74660974D01*
X149817200Y-74792626D01*
X149851275Y-74919793D01*
X149884188Y-74976800D01*
X148989969Y-74976800D01*
X149000442Y-75042926D01*
X149000442Y-75042929D01*
X149066104Y-75245017D01*
X149162579Y-75434357D01*
X149287472Y-75606259D01*
X149287476Y-75606264D01*
X149437735Y-75756523D01*
X149437740Y-75756527D01*
X149609644Y-75881422D01*
X149618695Y-75886034D01*
X149669492Y-75934008D01*
X149686287Y-76001829D01*
X149663750Y-76067964D01*
X149618699Y-76107002D01*
X149609382Y-76111749D01*
X149437413Y-76236690D01*
X149287090Y-76387013D01*
X149162151Y-76558979D01*
X149065644Y-76748385D01*
X148999953Y-76950560D01*
X148966700Y-77160513D01*
X148966700Y-77373086D01*
X148999953Y-77583039D01*
X149065644Y-77785214D01*
X149162151Y-77974620D01*
X149287090Y-78146586D01*
X149437413Y-78296909D01*
X149609382Y-78421850D01*
X149618146Y-78426316D01*
X149668942Y-78474291D01*
X149685736Y-78542112D01*
X149663198Y-78608247D01*
X149618146Y-78647284D01*
X149609382Y-78651749D01*
X149437413Y-78776690D01*
X149287090Y-78927013D01*
X149162151Y-79098979D01*
X149065644Y-79288385D01*
X148999953Y-79490560D01*
X148971994Y-79667088D01*
X148966700Y-79700513D01*
X148966700Y-79913087D01*
X148973703Y-79957299D01*
X148990381Y-80062606D01*
X148999954Y-80123043D01*
X149045010Y-80261711D01*
X149065644Y-80325214D01*
X149162151Y-80514620D01*
X149287090Y-80686586D01*
X149437413Y-80836909D01*
X149609382Y-80961850D01*
X149618146Y-80966316D01*
X149668942Y-81014291D01*
X149685736Y-81082112D01*
X149663198Y-81148247D01*
X149618146Y-81187284D01*
X149609382Y-81191749D01*
X149437413Y-81316690D01*
X149287090Y-81467013D01*
X149162151Y-81638979D01*
X149065644Y-81828385D01*
X148999953Y-82030560D01*
X148966700Y-82240513D01*
X148966700Y-82453086D01*
X148990381Y-82602606D01*
X148999954Y-82663043D01*
X149058263Y-82842500D01*
X149065644Y-82865214D01*
X149162151Y-83054620D01*
X149287090Y-83226586D01*
X149437413Y-83376909D01*
X149609379Y-83501848D01*
X149609381Y-83501849D01*
X149609384Y-83501851D01*
X149618693Y-83506594D01*
X149669490Y-83554566D01*
X149686287Y-83622387D01*
X149663752Y-83688522D01*
X149618702Y-83727562D01*
X149609643Y-83732178D01*
X149437740Y-83857072D01*
X149437735Y-83857076D01*
X149287476Y-84007335D01*
X149287472Y-84007340D01*
X149162579Y-84179242D01*
X149066104Y-84368582D01*
X149000442Y-84570670D01*
X149000442Y-84570673D01*
X148989969Y-84636800D01*
X149884188Y-84636800D01*
X149851275Y-84693807D01*
X149817200Y-84820974D01*
X149817200Y-84952626D01*
X149851275Y-85079793D01*
X149884188Y-85136800D01*
X148989969Y-85136800D01*
X149000442Y-85202926D01*
X149000442Y-85202929D01*
X149066104Y-85405017D01*
X149162579Y-85594357D01*
X149287472Y-85766259D01*
X149287476Y-85766264D01*
X149437735Y-85916523D01*
X149437740Y-85916527D01*
X149609642Y-86041420D01*
X149798982Y-86137895D01*
X150001071Y-86203557D01*
X150067200Y-86214031D01*
X150067200Y-85319812D01*
X150124207Y-85352725D01*
X150251374Y-85386800D01*
X150383026Y-85386800D01*
X150510193Y-85352725D01*
X150567200Y-85319812D01*
X150567200Y-86214030D01*
X150633326Y-86203557D01*
X150633329Y-86203557D01*
X150835417Y-86137895D01*
X151024757Y-86041420D01*
X151196659Y-85916527D01*
X151196664Y-85916523D01*
X151346923Y-85766264D01*
X151346927Y-85766259D01*
X151471820Y-85594357D01*
X151568295Y-85405017D01*
X151633957Y-85202929D01*
X151633957Y-85202926D01*
X151644431Y-85136800D01*
X150750212Y-85136800D01*
X150783125Y-85079793D01*
X150817200Y-84952626D01*
X150817200Y-84820974D01*
X150783125Y-84693807D01*
X150750212Y-84636800D01*
X151644431Y-84636800D01*
X151633957Y-84570673D01*
X151633957Y-84570670D01*
X151568295Y-84368582D01*
X151471820Y-84179242D01*
X151346927Y-84007340D01*
X151346923Y-84007335D01*
X151196664Y-83857076D01*
X151196659Y-83857072D01*
X151024755Y-83732177D01*
X151015700Y-83727563D01*
X150964906Y-83679588D01*
X150948112Y-83611766D01*
X150970651Y-83545632D01*
X151015708Y-83506593D01*
X151025016Y-83501851D01*
X151104207Y-83444315D01*
X151196986Y-83376909D01*
X151196988Y-83376906D01*
X151196992Y-83376904D01*
X151347304Y-83226592D01*
X151347306Y-83226588D01*
X151347309Y-83226586D01*
X151472248Y-83054620D01*
X151472247Y-83054620D01*
X151472251Y-83054616D01*
X151568757Y-82865212D01*
X151634446Y-82663043D01*
X151667700Y-82453087D01*
X151667700Y-82240513D01*
X151634446Y-82030557D01*
X151568757Y-81828388D01*
X151472251Y-81638984D01*
X151472249Y-81638981D01*
X151472248Y-81638979D01*
X151347309Y-81467013D01*
X151196986Y-81316690D01*
X151025020Y-81191751D01*
X151024315Y-81191391D01*
X151016254Y-81187285D01*
X150965459Y-81139312D01*
X150948663Y-81071492D01*
X150971199Y-81005356D01*
X151016254Y-80966315D01*
X151025016Y-80961851D01*
X151046989Y-80945886D01*
X151196986Y-80836909D01*
X151196988Y-80836906D01*
X151196992Y-80836904D01*
X151347304Y-80686592D01*
X151347306Y-80686588D01*
X151347309Y-80686586D01*
X151472248Y-80514620D01*
X151472249Y-80514619D01*
X151472251Y-80514616D01*
X151568757Y-80325212D01*
X151634446Y-80123043D01*
X151667700Y-79913087D01*
X151667700Y-79700513D01*
X151634446Y-79490557D01*
X151568757Y-79288388D01*
X151472251Y-79098984D01*
X151472249Y-79098981D01*
X151472248Y-79098979D01*
X151347309Y-78927013D01*
X151196986Y-78776690D01*
X151025020Y-78651751D01*
X151024315Y-78651391D01*
X151016254Y-78647285D01*
X150965459Y-78599312D01*
X150948663Y-78531492D01*
X150971199Y-78465356D01*
X151016254Y-78426315D01*
X151025016Y-78421851D01*
X151115240Y-78356300D01*
X151196986Y-78296909D01*
X151196988Y-78296906D01*
X151196992Y-78296904D01*
X151347304Y-78146592D01*
X151347306Y-78146588D01*
X151347309Y-78146586D01*
X151472248Y-77974620D01*
X151472247Y-77974620D01*
X151472251Y-77974616D01*
X151568757Y-77785212D01*
X151634446Y-77583043D01*
X151667700Y-77373087D01*
X151667700Y-77160513D01*
X151634446Y-76950557D01*
X151568757Y-76748388D01*
X151472251Y-76558984D01*
X151472249Y-76558981D01*
X151472248Y-76558979D01*
X151347309Y-76387013D01*
X151196986Y-76236690D01*
X151025017Y-76111749D01*
X151015704Y-76107004D01*
X150964907Y-76059030D01*
X150948112Y-75991209D01*
X150970649Y-75925074D01*
X151015707Y-75886032D01*
X151024758Y-75881420D01*
X151196659Y-75756527D01*
X151196664Y-75756523D01*
X151346923Y-75606264D01*
X151346927Y-75606259D01*
X151471820Y-75434357D01*
X151568295Y-75245017D01*
X151633957Y-75042929D01*
X151633957Y-75042926D01*
X151644431Y-74976800D01*
X150750212Y-74976800D01*
X150783125Y-74919793D01*
X150817200Y-74792626D01*
X150817200Y-74660974D01*
X150783125Y-74533807D01*
X150750212Y-74476800D01*
X151644431Y-74476800D01*
X151633957Y-74410673D01*
X151633957Y-74410670D01*
X151568295Y-74208582D01*
X151471820Y-74019242D01*
X151346927Y-73847340D01*
X151346923Y-73847335D01*
X151196664Y-73697076D01*
X151196659Y-73697072D01*
X151024755Y-73572177D01*
X151015700Y-73567563D01*
X150964906Y-73519588D01*
X150948112Y-73451766D01*
X150970651Y-73385632D01*
X151015708Y-73346593D01*
X151025016Y-73341851D01*
X151104207Y-73284315D01*
X151196986Y-73216909D01*
X151196988Y-73216906D01*
X151196992Y-73216904D01*
X151347304Y-73066592D01*
X151347306Y-73066588D01*
X151347309Y-73066586D01*
X151472248Y-72894620D01*
X151472247Y-72894620D01*
X151472251Y-72894616D01*
X151568757Y-72705212D01*
X151634446Y-72503043D01*
X151667700Y-72293087D01*
X151667700Y-72080513D01*
X151634446Y-71870557D01*
X151568757Y-71668388D01*
X151472251Y-71478984D01*
X151472249Y-71478981D01*
X151472248Y-71478979D01*
X151347309Y-71307013D01*
X151196986Y-71156690D01*
X151025020Y-71031751D01*
X151024315Y-71031391D01*
X151016254Y-71027285D01*
X150965459Y-70979312D01*
X150948663Y-70911492D01*
X150971199Y-70845356D01*
X151016254Y-70806315D01*
X151025016Y-70801851D01*
X151046989Y-70785886D01*
X151196986Y-70676909D01*
X151196988Y-70676906D01*
X151196992Y-70676904D01*
X151347304Y-70526592D01*
X151347306Y-70526588D01*
X151347309Y-70526586D01*
X151472248Y-70354620D01*
X151472247Y-70354620D01*
X151472251Y-70354616D01*
X151568757Y-70165212D01*
X151634446Y-69963043D01*
X151667700Y-69753087D01*
X151667700Y-69540513D01*
X151634446Y-69330557D01*
X151568757Y-69128388D01*
X151472251Y-68938984D01*
X151472249Y-68938981D01*
X151472248Y-68938979D01*
X151347309Y-68767013D01*
X151233769Y-68653473D01*
X151200284Y-68592150D01*
X151205268Y-68522458D01*
X151247140Y-68466525D01*
X151278115Y-68449610D01*
X151409531Y-68400596D01*
X151524746Y-68314346D01*
X151610996Y-68199131D01*
X151661291Y-68064283D01*
X151667700Y-68004673D01*
X151667699Y-66208928D01*
X151661291Y-66149317D01*
X151649530Y-66117785D01*
X151610997Y-66014471D01*
X151610993Y-66014464D01*
X151524747Y-65899255D01*
X151524744Y-65899252D01*
X151409535Y-65813006D01*
X151409528Y-65813002D01*
X151274682Y-65762708D01*
X151274683Y-65762708D01*
X151215083Y-65756301D01*
X151215081Y-65756300D01*
X151215073Y-65756300D01*
X151215064Y-65756300D01*
X149419329Y-65756300D01*
X149419323Y-65756301D01*
X149359716Y-65762708D01*
X149224871Y-65813002D01*
X149224864Y-65813006D01*
X149109655Y-65899252D01*
X149109652Y-65899255D01*
X149023406Y-66014464D01*
X149023402Y-66014471D01*
X148973108Y-66149317D01*
X148966701Y-66208916D01*
X148966701Y-66208923D01*
X148966700Y-66208935D01*
X131054638Y-66208935D01*
X131054639Y-66208928D01*
X131058238Y-66186208D01*
X131069075Y-66117785D01*
X131069075Y-65937064D01*
X131040806Y-65758582D01*
X130984961Y-65586712D01*
X130955197Y-65528298D01*
X130902922Y-65425703D01*
X130896097Y-65416309D01*
X130796708Y-65279509D01*
X130668915Y-65151716D01*
X130522725Y-65045505D01*
X130522724Y-65045504D01*
X130522722Y-65045503D01*
X130472441Y-65019883D01*
X130361712Y-64963463D01*
X130189842Y-64907618D01*
X130011360Y-64879350D01*
X130011355Y-64879350D01*
X129830645Y-64879350D01*
X129830640Y-64879350D01*
X129652157Y-64907618D01*
X129480287Y-64963463D01*
X129319274Y-65045505D01*
X129173084Y-65151716D01*
X129045291Y-65279509D01*
X128939080Y-65425699D01*
X128857038Y-65586712D01*
X128801193Y-65758582D01*
X128772925Y-65937064D01*
X128772925Y-65942645D01*
X128753240Y-66009684D01*
X128700436Y-66055439D01*
X128631278Y-66065383D01*
X128567722Y-66036358D01*
X128549659Y-66016957D01*
X128496327Y-65945715D01*
X128461546Y-65899254D01*
X128461544Y-65899253D01*
X128461544Y-65899252D01*
X128346335Y-65813006D01*
X128346328Y-65813002D01*
X128211482Y-65762708D01*
X128211483Y-65762708D01*
X128151883Y-65756301D01*
X128151881Y-65756300D01*
X128151873Y-65756300D01*
X128151864Y-65756300D01*
X126356129Y-65756300D01*
X126356123Y-65756301D01*
X126296516Y-65762708D01*
X126161671Y-65813002D01*
X126161664Y-65813006D01*
X126046455Y-65899252D01*
X126046452Y-65899255D01*
X125960206Y-66014464D01*
X125960202Y-66014471D01*
X125909908Y-66149317D01*
X125903501Y-66208916D01*
X125903501Y-66208923D01*
X125903500Y-66208935D01*
X124960500Y-66208935D01*
X124960500Y-64722108D01*
X138691500Y-64722108D01*
X138691500Y-64853892D01*
X138705896Y-64907618D01*
X138725608Y-64981187D01*
X138758554Y-65038250D01*
X138791500Y-65095314D01*
X138884686Y-65188500D01*
X138998814Y-65254392D01*
X139126108Y-65288500D01*
X139126110Y-65288500D01*
X139257890Y-65288500D01*
X139257892Y-65288500D01*
X139385186Y-65254392D01*
X139499314Y-65188500D01*
X139592500Y-65095314D01*
X139658392Y-64981186D01*
X139692500Y-64853892D01*
X139692500Y-64722108D01*
X139658392Y-64594814D01*
X139592500Y-64480686D01*
X139499314Y-64387500D01*
X139442250Y-64354554D01*
X139385187Y-64321608D01*
X139321539Y-64304554D01*
X139257892Y-64287500D01*
X139126108Y-64287500D01*
X138998812Y-64321608D01*
X138884686Y-64387500D01*
X138884683Y-64387502D01*
X138791502Y-64480683D01*
X138791500Y-64480686D01*
X138725608Y-64594812D01*
X138691500Y-64722108D01*
X124960500Y-64722108D01*
X124960500Y-64014961D01*
X124961280Y-64001078D01*
X124967924Y-63942108D01*
X124971861Y-63907164D01*
X124978036Y-63880109D01*
X125006938Y-63797514D01*
X125018978Y-63772511D01*
X125065537Y-63698414D01*
X125082843Y-63676713D01*
X125144713Y-63614843D01*
X125166414Y-63597537D01*
X125240511Y-63550978D01*
X125265514Y-63538938D01*
X125348109Y-63510036D01*
X125375166Y-63503861D01*
X125461852Y-63494094D01*
X125469078Y-63493280D01*
X125482961Y-63492500D01*
X125541892Y-63492500D01*
X152334108Y-63492500D01*
X152393039Y-63492500D01*
X152406922Y-63493280D01*
G37*
%TD.AperFunction*%
%TD*%
M02*
