%TF.GenerationSoftware,KiCad,Pcbnew,9.0.0*%
%TF.CreationDate,2025-05-10T20:39:51+02:00*%
%TF.ProjectId,ESP32CAM Shield,45535033-3243-4414-9d20-536869656c64,rev?*%
%TF.SameCoordinates,Original*%
%TF.FileFunction,Copper,L1,Top*%
%TF.FilePolarity,Positive*%
%FSLAX46Y46*%
G04 Gerber Fmt 4.6, Leading zero omitted, Abs format (unit mm)*
G04 Created by KiCad (PCBNEW 9.0.0) date 2025-05-10 20:39:51*
%MOMM*%
%LPD*%
G01*
G04 APERTURE LIST*
G04 Aperture macros list*
%AMRoundRect*
0 Rectangle with rounded corners*
0 $1 Rounding radius*
0 $2 $3 $4 $5 $6 $7 $8 $9 X,Y pos of 4 corners*
0 Add a 4 corners polygon primitive as box body*
4,1,4,$2,$3,$4,$5,$6,$7,$8,$9,$2,$3,0*
0 Add four circle primitives for the rounded corners*
1,1,$1+$1,$2,$3*
1,1,$1+$1,$4,$5*
1,1,$1+$1,$6,$7*
1,1,$1+$1,$8,$9*
0 Add four rect primitives between the rounded corners*
20,1,$1+$1,$2,$3,$4,$5,0*
20,1,$1+$1,$4,$5,$6,$7,0*
20,1,$1+$1,$6,$7,$8,$9,0*
20,1,$1+$1,$8,$9,$2,$3,0*%
%AMFreePoly0*
4,1,64,0.235711,1.439036,0.382774,1.378120,0.515127,1.289684,0.627684,1.177127,0.716120,1.044774,0.777036,0.897711,0.808090,0.741590,0.808090,0.582410,0.777036,0.426289,0.716120,0.279226,0.627684,0.146873,0.515127,0.034316,0.382774,-0.054120,0.235711,-0.115036,0.079590,-0.146090,0.031746,-0.146090,0.029264,-0.147118,-0.029264,-0.147118,-0.031746,-0.146090,-0.079590,-0.146090,
-0.235711,-0.115036,-0.382774,-0.054120,-0.515127,0.034316,-0.627684,0.146873,-0.716120,0.279226,-0.777036,0.426289,-0.808090,0.582410,-0.808090,0.729406,-0.512000,0.729406,-0.512000,0.594594,-0.477108,0.464375,-0.409702,0.347625,-0.314375,0.252298,-0.197625,0.184892,-0.067406,0.150000,0.067406,0.150000,0.197625,0.184892,0.314375,0.252298,0.409702,0.347625,0.477108,0.464375,
0.512000,0.594594,0.512000,0.729406,0.477108,0.859625,0.409702,0.976375,0.314375,1.071702,0.197625,1.139108,0.067406,1.174000,-0.067406,1.174000,-0.197625,1.139108,-0.314375,1.071702,-0.409702,0.976375,-0.477108,0.859625,-0.512000,0.729406,-0.808090,0.729406,-0.808090,0.741590,-0.777036,0.897711,-0.716120,1.044774,-0.627684,1.177127,-0.515127,1.289684,-0.382774,1.378120,
-0.235711,1.439036,-0.079590,1.470090,0.079590,1.470090,0.235711,1.439036,0.235711,1.439036,$1*%
G04 Aperture macros list end*
%TA.AperFunction,SMDPad,CuDef*%
%ADD10RoundRect,0.140000X-0.140000X-0.170000X0.140000X-0.170000X0.140000X0.170000X-0.140000X0.170000X0*%
%TD*%
%TA.AperFunction,SMDPad,CuDef*%
%ADD11RoundRect,0.140000X-0.170000X0.140000X-0.170000X-0.140000X0.170000X-0.140000X0.170000X0.140000X0*%
%TD*%
%TA.AperFunction,SMDPad,CuDef*%
%ADD12RoundRect,0.135000X0.135000X0.185000X-0.135000X0.185000X-0.135000X-0.185000X0.135000X-0.185000X0*%
%TD*%
%TA.AperFunction,SMDPad,CuDef*%
%ADD13RoundRect,0.140000X0.170000X-0.140000X0.170000X0.140000X-0.170000X0.140000X-0.170000X-0.140000X0*%
%TD*%
%TA.AperFunction,SMDPad,CuDef*%
%ADD14RoundRect,0.135000X-0.185000X0.135000X-0.185000X-0.135000X0.185000X-0.135000X0.185000X0.135000X0*%
%TD*%
%TA.AperFunction,SMDPad,CuDef*%
%ADD15RoundRect,0.150000X0.587500X0.150000X-0.587500X0.150000X-0.587500X-0.150000X0.587500X-0.150000X0*%
%TD*%
%TA.AperFunction,ComponentPad*%
%ADD16RoundRect,0.250000X-0.625000X0.350000X-0.625000X-0.350000X0.625000X-0.350000X0.625000X0.350000X0*%
%TD*%
%TA.AperFunction,ComponentPad*%
%ADD17O,1.750000X1.200000*%
%TD*%
%TA.AperFunction,SMDPad,CuDef*%
%ADD18RoundRect,0.225000X0.375000X-0.225000X0.375000X0.225000X-0.375000X0.225000X-0.375000X-0.225000X0*%
%TD*%
%TA.AperFunction,SMDPad,CuDef*%
%ADD19RoundRect,0.150000X0.150000X-0.512500X0.150000X0.512500X-0.150000X0.512500X-0.150000X-0.512500X0*%
%TD*%
%TA.AperFunction,SMDPad,CuDef*%
%ADD20R,0.300000X0.300000*%
%TD*%
%TA.AperFunction,SMDPad,CuDef*%
%ADD21R,0.300000X0.900000*%
%TD*%
%TA.AperFunction,SMDPad,CuDef*%
%ADD22R,0.900000X0.300000*%
%TD*%
%TA.AperFunction,SMDPad,CuDef*%
%ADD23R,1.800000X1.800000*%
%TD*%
%TA.AperFunction,SMDPad,CuDef*%
%ADD24RoundRect,0.200000X-0.275000X0.200000X-0.275000X-0.200000X0.275000X-0.200000X0.275000X0.200000X0*%
%TD*%
%TA.AperFunction,SMDPad,CuDef*%
%ADD25RoundRect,0.200000X0.275000X-0.200000X0.275000X0.200000X-0.275000X0.200000X-0.275000X-0.200000X0*%
%TD*%
%TA.AperFunction,SMDPad,CuDef*%
%ADD26RoundRect,0.150000X-0.512500X-0.150000X0.512500X-0.150000X0.512500X0.150000X-0.512500X0.150000X0*%
%TD*%
%TA.AperFunction,SMDPad,CuDef*%
%ADD27RoundRect,0.135000X-0.135000X-0.185000X0.135000X-0.185000X0.135000X0.185000X-0.135000X0.185000X0*%
%TD*%
%TA.AperFunction,SMDPad,CuDef*%
%ADD28R,0.800000X1.000000*%
%TD*%
%TA.AperFunction,SMDPad,CuDef*%
%ADD29R,1.500000X0.700000*%
%TD*%
%TA.AperFunction,SMDPad,CuDef*%
%ADD30RoundRect,0.135000X0.185000X-0.135000X0.185000X0.135000X-0.185000X0.135000X-0.185000X-0.135000X0*%
%TD*%
%TA.AperFunction,SMDPad,CuDef*%
%ADD31RoundRect,0.200000X0.200000X0.275000X-0.200000X0.275000X-0.200000X-0.275000X0.200000X-0.275000X0*%
%TD*%
%TA.AperFunction,SMDPad,CuDef*%
%ADD32RoundRect,0.150000X-0.150000X0.512500X-0.150000X-0.512500X0.150000X-0.512500X0.150000X0.512500X0*%
%TD*%
%TA.AperFunction,SMDPad,CuDef*%
%ADD33RoundRect,0.225000X0.250000X-0.225000X0.250000X0.225000X-0.250000X0.225000X-0.250000X-0.225000X0*%
%TD*%
%TA.AperFunction,SMDPad,CuDef*%
%ADD34RoundRect,0.243750X0.456250X-0.243750X0.456250X0.243750X-0.456250X0.243750X-0.456250X-0.243750X0*%
%TD*%
%TA.AperFunction,SMDPad,CuDef*%
%ADD35R,1.100000X0.250000*%
%TD*%
%TA.AperFunction,SMDPad,CuDef*%
%ADD36R,0.300000X0.700000*%
%TD*%
%TA.AperFunction,HeatsinkPad*%
%ADD37O,0.800000X1.400000*%
%TD*%
%TA.AperFunction,SMDPad,CuDef*%
%ADD38RoundRect,0.130500X0.169500X0.130500X-0.169500X0.130500X-0.169500X-0.130500X0.169500X-0.130500X0*%
%TD*%
%TA.AperFunction,SMDPad,CuDef*%
%ADD39FreePoly0,270.000000*%
%TD*%
%TA.AperFunction,ComponentPad*%
%ADD40R,1.700000X1.700000*%
%TD*%
%TA.AperFunction,ComponentPad*%
%ADD41O,1.700000X1.700000*%
%TD*%
%TA.AperFunction,ViaPad*%
%ADD42C,0.600000*%
%TD*%
%TA.AperFunction,Conductor*%
%ADD43C,0.300000*%
%TD*%
%TA.AperFunction,Conductor*%
%ADD44C,0.200000*%
%TD*%
%TA.AperFunction,Conductor*%
%ADD45C,0.750000*%
%TD*%
G04 APERTURE END LIST*
D10*
%TO.P,C5,1*%
%TO.N,+3.3V*%
X136680000Y-75438000D03*
%TO.P,C5,2*%
%TO.N,GND*%
X137640000Y-75438000D03*
%TD*%
D11*
%TO.P,C3,1*%
%TO.N,+3.3V*%
X136906000Y-67112000D03*
%TO.P,C3,2*%
%TO.N,GND*%
X136906000Y-68072000D03*
%TD*%
D10*
%TO.P,C4,1*%
%TO.N,+3.3V*%
X136680000Y-76454000D03*
%TO.P,C4,2*%
%TO.N,GND*%
X137640000Y-76454000D03*
%TD*%
D12*
%TO.P,R16,1*%
%TO.N,VBUS*%
X147832000Y-83058000D03*
%TO.P,R16,2*%
%TO.N,Net-(U5-~{RST})*%
X146812000Y-83058000D03*
%TD*%
D13*
%TO.P,C1,1*%
%TO.N,VBUS*%
X135382000Y-96746000D03*
%TO.P,C1,2*%
%TO.N,GND*%
X135382000Y-95786000D03*
%TD*%
D14*
%TO.P,R18,1*%
%TO.N,Net-(J4-CC1)*%
X133604000Y-98548000D03*
%TO.P,R18,2*%
%TO.N,GND*%
X133604000Y-99568000D03*
%TD*%
D12*
%TO.P,R8,1*%
%TO.N,I2C_SCL*%
X137414000Y-74168000D03*
%TO.P,R8,2*%
%TO.N,+3.3V*%
X136394000Y-74168000D03*
%TD*%
D15*
%TO.P,Q1,1,G*%
%TO.N,VBUS*%
X139289000Y-96134000D03*
%TO.P,Q1,2,S*%
%TO.N,Net-(D1-K)*%
X139289000Y-94234000D03*
%TO.P,Q1,3,D*%
%TO.N,+BATT*%
X137414000Y-95184000D03*
%TD*%
D14*
%TO.P,R10,1*%
%TO.N,Net-(MK1-WS)*%
X140208000Y-68070000D03*
%TO.P,R10,2*%
%TO.N,I2S_WS*%
X140208000Y-69090000D03*
%TD*%
D16*
%TO.P,J3,1,Pin_1*%
%TO.N,+BATT*%
X131064000Y-100616000D03*
D17*
%TO.P,J3,2,Pin_2*%
%TO.N,GND*%
X131064000Y-102616000D03*
%TD*%
D18*
%TO.P,D1,1,K*%
%TO.N,Net-(D1-K)*%
X139192000Y-91946000D03*
%TO.P,D1,2,A*%
%TO.N,VBUS*%
X139192000Y-88646000D03*
%TD*%
D19*
%TO.P,U6,1,I/O1*%
%TO.N,USB_CONN_D+*%
X143134000Y-92456000D03*
%TO.P,U6,2,GND*%
%TO.N,GND*%
X144084000Y-92456000D03*
%TO.P,U6,3,I/O2*%
%TO.N,USB_CONN_D-*%
X145034000Y-92456000D03*
%TO.P,U6,4,I/O2*%
%TO.N,USB_D-*%
X145034000Y-90181000D03*
%TO.P,U6,5,VBUS*%
%TO.N,VBUS*%
X144084000Y-90181000D03*
%TO.P,U6,6,I/O1*%
%TO.N,USB_D+*%
X143134000Y-90181000D03*
%TD*%
D20*
%TO.P,U5,1,RS485/GPIO.1*%
%TO.N,unconnected-(U5-RS485{slash}GPIO.1-Pad1)*%
X142764000Y-84790000D03*
D21*
%TO.P,U5,2,CLK/GPIO.0*%
%TO.N,unconnected-(U5-CLK{slash}GPIO.0-Pad2)*%
X143264000Y-85090000D03*
%TO.P,U5,3,GND*%
%TO.N,GND*%
X143764000Y-85090000D03*
%TO.P,U5,4,D+*%
%TO.N,USB_D+*%
X144264000Y-85090000D03*
%TO.P,U5,5,D-*%
%TO.N,USB_D-*%
X144764000Y-85090000D03*
D20*
%TO.P,U5,6,VDD*%
%TO.N,VDD*%
X145264000Y-84790000D03*
D22*
%TO.P,U5,7,VREGIN*%
%TO.N,VBUS*%
X145564000Y-84290000D03*
%TO.P,U5,8,VBUS*%
%TO.N,Net-(U5-VBUS)*%
X145564000Y-83790000D03*
%TO.P,U5,9,~{RST}*%
%TO.N,Net-(U5-~{RST})*%
X145564000Y-83290000D03*
%TO.P,U5,10,NC*%
%TO.N,unconnected-(U5-NC-Pad10)*%
X145564000Y-82790000D03*
D20*
%TO.P,U5,11,~{SUSPEND}*%
%TO.N,unconnected-(U5-~{SUSPEND}-Pad11)*%
X145264000Y-82290000D03*
D21*
%TO.P,U5,12,GND*%
%TO.N,GND*%
X144764000Y-81990000D03*
%TO.P,U5,13,~{WAKEUP}*%
%TO.N,unconnected-(U5-~{WAKEUP}-Pad13)*%
X144264000Y-81990000D03*
%TO.P,U5,14,SUSPEND*%
%TO.N,unconnected-(U5-SUSPEND-Pad14)*%
X143764000Y-81990000D03*
%TO.P,U5,15,~{CTS}*%
%TO.N,unconnected-(U5-~{CTS}-Pad15)*%
X143264000Y-81990000D03*
D20*
%TO.P,U5,16,~{RTS}*%
%TO.N,unconnected-(U5-~{RTS}-Pad16)*%
X142764000Y-82290000D03*
D22*
%TO.P,U5,17,RXD*%
%TO.N,UART_USB_RX*%
X142464000Y-82790000D03*
%TO.P,U5,18,TXD*%
%TO.N,UART_USB_TX*%
X142464000Y-83290000D03*
%TO.P,U5,19,~{RXT}/GPIO.3*%
%TO.N,unconnected-(U5-~{RXT}{slash}GPIO.3-Pad19)*%
X142464000Y-83790000D03*
%TO.P,U5,20,~{TXT}/GPIO.2*%
%TO.N,unconnected-(U5-~{TXT}{slash}GPIO.2-Pad20)*%
X142464000Y-84290000D03*
D23*
%TO.P,U5,21,GND*%
%TO.N,GND*%
X144014000Y-83540000D03*
%TD*%
D24*
%TO.P,R5,1*%
%TO.N,Net-(U3-AIN0)*%
X139637000Y-75883000D03*
%TO.P,R5,2*%
%TO.N,+BATT*%
X139637000Y-77533000D03*
%TD*%
D25*
%TO.P,R3,1*%
%TO.N,Net-(U1-STAT)*%
X131318000Y-91566000D03*
%TO.P,R3,2*%
%TO.N,Net-(D2-K)*%
X131318000Y-89916000D03*
%TD*%
D26*
%TO.P,U2,1,VIN*%
%TO.N,Net-(SW2-A)*%
X132853000Y-75824000D03*
%TO.P,U2,2,GND*%
%TO.N,GND*%
X132853000Y-76774000D03*
%TO.P,U2,3,EN*%
%TO.N,Net-(U2-EN)*%
X132853000Y-77724000D03*
%TO.P,U2,4,NC*%
%TO.N,unconnected-(U2-NC-Pad4)*%
X135128000Y-77724000D03*
%TO.P,U2,5,VOUT*%
%TO.N,+3.3V*%
X135128000Y-75824000D03*
%TD*%
D27*
%TO.P,R15,1*%
%TO.N,Net-(U5-VBUS)*%
X146810000Y-84074000D03*
%TO.P,R15,2*%
%TO.N,GND*%
X147830000Y-84074000D03*
%TD*%
D28*
%TO.P,SW2,*%
%TO.N,*%
X127602000Y-88712000D03*
X125392000Y-88712000D03*
X127602000Y-96012000D03*
X125392000Y-96012000D03*
D29*
%TO.P,SW2,1,A*%
%TO.N,Net-(SW2-A)*%
X128252000Y-90112000D03*
%TO.P,SW2,2,B*%
%TO.N,Net-(D1-K)*%
X128252000Y-93112000D03*
%TO.P,SW2,3,C*%
%TO.N,unconnected-(SW2-C-Pad3)*%
X128252000Y-94612000D03*
%TD*%
D30*
%TO.P,R2,1*%
%TO.N,GND*%
X135382000Y-94744000D03*
%TO.P,R2,2*%
%TO.N,Net-(U1-PROG)*%
X135382000Y-93724000D03*
%TD*%
%TO.P,R12,1*%
%TO.N,Net-(U4-CS)*%
X136906000Y-83822000D03*
%TO.P,R12,2*%
%TO.N,Net-(Q2-Pad6)*%
X136906000Y-82802000D03*
%TD*%
D31*
%TO.P,R7,1*%
%TO.N,+BATT*%
X135191000Y-90678000D03*
%TO.P,R7,2*%
%TO.N,Net-(U4-VCC)*%
X133541000Y-90678000D03*
%TD*%
D11*
%TO.P,C10,1*%
%TO.N,VBUS*%
X145768000Y-86388000D03*
%TO.P,C10,2*%
%TO.N,GND*%
X145768000Y-87348000D03*
%TD*%
%TO.P,C6,1*%
%TO.N,+3.3V*%
X135890000Y-67140000D03*
%TO.P,C6,2*%
%TO.N,GND*%
X135890000Y-68100000D03*
%TD*%
D27*
%TO.P,R17,1*%
%TO.N,Net-(J4-CC2)*%
X145792000Y-101600000D03*
%TO.P,R17,2*%
%TO.N,GND*%
X146812000Y-101600000D03*
%TD*%
D24*
%TO.P,R1,1*%
%TO.N,GND*%
X141321000Y-94425000D03*
%TO.P,R1,2*%
%TO.N,VBUS*%
X141321000Y-96075000D03*
%TD*%
D30*
%TO.P,R14,1*%
%TO.N,VBUS*%
X146812000Y-86108000D03*
%TO.P,R14,2*%
%TO.N,Net-(U5-VBUS)*%
X146812000Y-85088000D03*
%TD*%
D32*
%TO.P,Q2,1*%
%TO.N,unconnected-(Q2-Pad1)*%
X135382000Y-81037000D03*
%TO.P,Q2,2*%
%TO.N,GND*%
X134432000Y-81037000D03*
%TO.P,Q2,3*%
X133482000Y-81037000D03*
%TO.P,Q2,4*%
%TO.N,Net-(U4-OD)*%
X133482000Y-83312000D03*
%TO.P,Q2,5*%
%TO.N,Net-(U4-OC)*%
X134432000Y-83312000D03*
%TO.P,Q2,6*%
%TO.N,Net-(Q2-Pad6)*%
X135382000Y-83312000D03*
%TD*%
D12*
%TO.P,R9,1*%
%TO.N,I2C_SDA*%
X137416000Y-73152000D03*
%TO.P,R9,2*%
%TO.N,+3.3V*%
X136396000Y-73152000D03*
%TD*%
D10*
%TO.P,C9,1*%
%TO.N,VBUS*%
X146840000Y-87122000D03*
%TO.P,C9,2*%
%TO.N,GND*%
X147800000Y-87122000D03*
%TD*%
D33*
%TO.P,C2,1*%
%TO.N,Net-(D1-K)*%
X141224000Y-91948000D03*
%TO.P,C2,2*%
%TO.N,GND*%
X141224000Y-90398000D03*
%TD*%
D12*
%TO.P,R11,1*%
%TO.N,Net-(MK1-BCLK)*%
X136908000Y-66040000D03*
%TO.P,R11,2*%
%TO.N,I2S_BCLK*%
X135888000Y-66040000D03*
%TD*%
D14*
%TO.P,R13,1*%
%TO.N,Net-(MK1-DATA)*%
X139192000Y-68070000D03*
%TO.P,R13,2*%
%TO.N,I2S_DATA*%
X139192000Y-69090000D03*
%TD*%
D28*
%TO.P,SW1,*%
%TO.N,*%
X150274000Y-96300000D03*
X152484000Y-96300000D03*
X150274000Y-89000000D03*
X152484000Y-89000000D03*
D29*
%TO.P,SW1,1,A*%
%TO.N,unconnected-(SW1-A-Pad1)*%
X149624000Y-94900000D03*
%TO.P,SW1,2,B*%
%TO.N,io00*%
X149624000Y-91900000D03*
%TO.P,SW1,3,C*%
%TO.N,GND*%
X149624000Y-90400000D03*
%TD*%
D32*
%TO.P,U4,1,OD*%
%TO.N,Net-(U4-OD)*%
X135382000Y-86117000D03*
%TO.P,U4,2,CS*%
%TO.N,Net-(U4-CS)*%
X134432000Y-86117000D03*
%TO.P,U4,3,OC*%
%TO.N,Net-(U4-OC)*%
X133482000Y-86117000D03*
%TO.P,U4,4,TD*%
%TO.N,unconnected-(U4-TD-Pad4)*%
X133482000Y-88392000D03*
%TO.P,U4,5,VCC*%
%TO.N,Net-(U4-VCC)*%
X134432000Y-88392000D03*
%TO.P,U4,6,GND*%
%TO.N,GND*%
X135382000Y-88392000D03*
%TD*%
D34*
%TO.P,D2,1,K*%
%TO.N,Net-(D2-K)*%
X131318000Y-88392000D03*
%TO.P,D2,2,A*%
%TO.N,VBUS*%
X131318000Y-86517000D03*
%TD*%
D35*
%TO.P,U3,1,ADDR*%
%TO.N,unconnected-(U3-ADDR-Pad1)*%
X143120000Y-73390000D03*
%TO.P,U3,2,ALERT/RDY*%
%TO.N,unconnected-(U3-ALERT{slash}RDY-Pad2)*%
X143120000Y-72890000D03*
%TO.P,U3,3,GND*%
%TO.N,GND*%
X143120000Y-72390000D03*
%TO.P,U3,4,AIN0*%
%TO.N,Net-(U3-AIN0)*%
X143120000Y-71890000D03*
%TO.P,U3,5,AIN1*%
%TO.N,unconnected-(U3-AIN1-Pad5)*%
X143120000Y-71390000D03*
%TO.P,U3,6,AIN2*%
%TO.N,unconnected-(U3-AIN2-Pad6)*%
X138820000Y-71390000D03*
%TO.P,U3,7,AIN3*%
%TO.N,unconnected-(U3-AIN3-Pad7)*%
X138820000Y-71890000D03*
%TO.P,U3,8,VDD*%
%TO.N,+3.3V*%
X138820000Y-72390000D03*
%TO.P,U3,9,SDA*%
%TO.N,I2C_SDA*%
X138820000Y-72890000D03*
%TO.P,U3,10,SCL*%
%TO.N,I2C_SCL*%
X138820000Y-73390000D03*
%TD*%
D26*
%TO.P,U1,1,STAT*%
%TO.N,Net-(U1-STAT)*%
X131572000Y-94112000D03*
%TO.P,U1,2,V_{SS}*%
%TO.N,GND*%
X131572000Y-95062000D03*
%TO.P,U1,3,V_{BAT}*%
%TO.N,+BATT*%
X131572000Y-96012000D03*
%TO.P,U1,4,V_{DD}*%
%TO.N,VBUS*%
X133847000Y-96012000D03*
%TO.P,U1,5,PROG*%
%TO.N,Net-(U1-PROG)*%
X133847000Y-94112000D03*
%TD*%
D13*
%TO.P,C7,1*%
%TO.N,Net-(U4-VCC)*%
X136906000Y-88872000D03*
%TO.P,C7,2*%
%TO.N,GND*%
X136906000Y-87912000D03*
%TD*%
D36*
%TO.P,J4,A1,GND*%
%TO.N,GND*%
X136950000Y-98358000D03*
%TO.P,J4,A2*%
%TO.N,N/C*%
X137450000Y-98358000D03*
%TO.P,J4,A3*%
X137950000Y-98358000D03*
%TO.P,J4,A4,VBUS*%
%TO.N,VBUS*%
X138450000Y-98358000D03*
%TO.P,J4,A5,CC1*%
%TO.N,Net-(J4-CC1)*%
X138950000Y-98358000D03*
%TO.P,J4,A6,D+*%
%TO.N,USB_CONN_D+*%
X139450000Y-98358000D03*
%TO.P,J4,A7,D-*%
%TO.N,USB_CONN_D-*%
X139950000Y-98358000D03*
%TO.P,J4,A8*%
%TO.N,N/C*%
X140450000Y-98358000D03*
%TO.P,J4,A9,VBUS*%
%TO.N,VBUS*%
X140950000Y-98358000D03*
%TO.P,J4,A10*%
%TO.N,N/C*%
X141450000Y-98358000D03*
%TO.P,J4,A11*%
X141950000Y-98358000D03*
%TO.P,J4,A12,GND*%
%TO.N,GND*%
X142450000Y-98358000D03*
%TO.P,J4,B1,GND*%
X142200000Y-100058000D03*
%TO.P,J4,B2*%
%TO.N,N/C*%
X141700000Y-100058000D03*
%TO.P,J4,B3*%
X141200000Y-100058000D03*
%TO.P,J4,B4,VBUS*%
%TO.N,VBUS*%
X140700000Y-100058000D03*
%TO.P,J4,B5,CC2*%
%TO.N,Net-(J4-CC2)*%
X140200000Y-100058000D03*
%TO.P,J4,B6,D+*%
%TO.N,unconnected-(J4-D+-PadB6)*%
X139700000Y-100058000D03*
%TO.P,J4,B7,D-*%
%TO.N,unconnected-(J4-D--PadB7)*%
X139200000Y-100058000D03*
%TO.P,J4,B8*%
%TO.N,N/C*%
X138700000Y-100058000D03*
%TO.P,J4,B9,VBUS*%
%TO.N,VBUS*%
X138200000Y-100058000D03*
%TO.P,J4,B10*%
%TO.N,N/C*%
X137700000Y-100058000D03*
%TO.P,J4,B11*%
X137200000Y-100058000D03*
%TO.P,J4,B12,GND*%
%TO.N,GND*%
X136700000Y-100058000D03*
D37*
%TO.P,J4,S1,SHIELD*%
X135210000Y-106218000D03*
X135570000Y-100268000D03*
X143830000Y-100268000D03*
X144190000Y-106218000D03*
%TD*%
D31*
%TO.P,R6,1*%
%TO.N,GND*%
X142748000Y-75946000D03*
%TO.P,R6,2*%
%TO.N,Net-(U3-AIN0)*%
X141098000Y-75946000D03*
%TD*%
D38*
%TO.P,MK1,1,WS*%
%TO.N,Net-(MK1-WS)*%
X140092000Y-66862000D03*
%TO.P,MK1,2,SEL*%
%TO.N,GND*%
X140092000Y-66040000D03*
D39*
%TO.P,MK1,3,GND*%
X138530000Y-64788000D03*
D38*
%TO.P,MK1,4,BCLK*%
%TO.N,Net-(MK1-BCLK)*%
X138292000Y-66040000D03*
%TO.P,MK1,5,VDD*%
%TO.N,+3.3V*%
X138292000Y-66862000D03*
%TO.P,MK1,6,DATA*%
%TO.N,Net-(MK1-DATA)*%
X139192000Y-66862000D03*
%TD*%
D40*
%TO.P,J2,1,Pin_1*%
%TO.N,+3.3V*%
X150317200Y-67106800D03*
D41*
%TO.P,J2,2,Pin_2*%
%TO.N,unconnected-(J2-Pin_2-Pad2)*%
X150317200Y-69646800D03*
%TO.P,J2,3,Pin_3*%
%TO.N,io00*%
X150317200Y-72186800D03*
%TO.P,J2,4,Pin_4*%
%TO.N,GND*%
X150317200Y-74726800D03*
%TO.P,J2,5,Pin_5*%
%TO.N,unconnected-(J2-Pin_5-Pad5)*%
X150317200Y-77266800D03*
%TO.P,J2,6,Pin_6*%
%TO.N,UART_USB_RX*%
X150317200Y-79806800D03*
%TO.P,J2,7,Pin_7*%
%TO.N,UART_USB_TX*%
X150317200Y-82346800D03*
%TO.P,J2,8,Pin_8*%
%TO.N,GND*%
X150317200Y-84886800D03*
%TD*%
D13*
%TO.P,C8,1*%
%TO.N,+3.3V*%
X137414000Y-72108000D03*
%TO.P,C8,2*%
%TO.N,GND*%
X137414000Y-71148000D03*
%TD*%
D30*
%TO.P,R4,1*%
%TO.N,Net-(U2-EN)*%
X131064000Y-76964000D03*
%TO.P,R4,2*%
%TO.N,Net-(SW2-A)*%
X131064000Y-75944000D03*
%TD*%
D40*
%TO.P,J1,1,Pin_1*%
%TO.N,unconnected-(J1-Pin_1-Pad1)*%
X127254000Y-67106800D03*
D41*
%TO.P,J1,2,Pin_2*%
%TO.N,GND*%
X127254000Y-69646800D03*
%TO.P,J1,3,Pin_3*%
%TO.N,I2S_BCLK*%
X127254000Y-72186800D03*
%TO.P,J1,4,Pin_4*%
%TO.N,I2S_DATA*%
X127254000Y-74726800D03*
%TO.P,J1,5,Pin_5*%
%TO.N,I2S_WS*%
X127254000Y-77266800D03*
%TO.P,J1,6,Pin_6*%
%TO.N,I2C_SCL*%
X127254000Y-79806800D03*
%TO.P,J1,7,Pin_7*%
%TO.N,I2C_SDA*%
X127254000Y-82346800D03*
%TO.P,J1,8,Pin_8*%
%TO.N,unconnected-(J1-Pin_8-Pad8)*%
X127254000Y-84886800D03*
%TD*%
D42*
%TO.N,VBUS*%
X138176000Y-101092000D03*
X137668000Y-96520000D03*
%TO.N,GND*%
X135636000Y-92456000D03*
X136906000Y-86995000D03*
X144100900Y-93778834D03*
X137629889Y-77495727D03*
X147828000Y-101600000D03*
X148751468Y-87082303D03*
X145764465Y-88370168D03*
X144780000Y-72390000D03*
X130004138Y-95070565D03*
X133477000Y-79502000D03*
X137922000Y-68072000D03*
X141224000Y-89154000D03*
X141224000Y-66040000D03*
X144780000Y-80772000D03*
X136398000Y-71120000D03*
X144018000Y-75946000D03*
X133604000Y-100584000D03*
X147955000Y-90424000D03*
X141351000Y-93345000D03*
%TO.N,+3.3V*%
X134620000Y-71374000D03*
X134620000Y-68072000D03*
%TO.N,VBUS*%
X139192000Y-87122000D03*
X131318000Y-85090000D03*
X147828000Y-82042000D03*
X146812000Y-88138000D03*
%TO.N,I2C_SDA*%
X141478000Y-74676000D03*
%TO.N,I2C_SCL*%
X138430000Y-74676000D03*
%TO.N,Net-(U4-OC)*%
X133604000Y-84836000D03*
X134432000Y-83312000D03*
%TO.N,Net-(D1-K)*%
X130104753Y-93117964D03*
X138430000Y-93218000D03*
%TO.N,UART_USB_TX*%
X144526000Y-79156800D03*
X146304000Y-80772000D03*
%TD*%
D43*
%TO.N,GND*%
X138530000Y-65046653D02*
X138530000Y-64788000D01*
X139523347Y-66040000D02*
X138530000Y-65046653D01*
X140092000Y-66040000D02*
X139523347Y-66040000D01*
X143120000Y-72390000D02*
X144780000Y-72390000D01*
D44*
%TO.N,VBUS*%
X138176000Y-100082000D02*
X138200000Y-100058000D01*
X138176000Y-101092000D02*
X138176000Y-100082000D01*
%TO.N,Net-(J4-CC1)*%
X135312313Y-98548000D02*
X133604000Y-98548000D01*
X136324313Y-97536000D02*
X135312313Y-98548000D01*
X138730000Y-97536000D02*
X136324313Y-97536000D01*
X138950000Y-97756000D02*
X138730000Y-97536000D01*
X138950000Y-98358000D02*
X138950000Y-97756000D01*
D43*
%TO.N,VBUS*%
X138054000Y-96134000D02*
X137668000Y-96520000D01*
X139289000Y-96134000D02*
X138054000Y-96134000D01*
%TO.N,GND*%
X136144000Y-92964000D02*
X135636000Y-92456000D01*
X136144000Y-93982000D02*
X136144000Y-92964000D01*
X135382000Y-94744000D02*
X136144000Y-93982000D01*
%TO.N,Net-(U3-AIN0)*%
X142243000Y-71890000D02*
X143120000Y-71890000D01*
X142129000Y-74945654D02*
X142129000Y-72004000D01*
X141128654Y-75946000D02*
X142129000Y-74945654D01*
X141098000Y-75946000D02*
X141128654Y-75946000D01*
X142129000Y-72004000D02*
X142243000Y-71890000D01*
%TO.N,Net-(MK1-DATA)*%
X139192000Y-68070000D02*
X139192000Y-66862000D01*
%TO.N,GND*%
X135382000Y-88392000D02*
X135862000Y-87912000D01*
X135780000Y-100058000D02*
X135570000Y-100268000D01*
D44*
X142450000Y-98358000D02*
X142716000Y-98092000D01*
D43*
X136950000Y-99270000D02*
X136950000Y-98358000D01*
X144100900Y-92472900D02*
X144084000Y-92456000D01*
X131563435Y-95070565D02*
X131572000Y-95062000D01*
X144764000Y-81990000D02*
X144764000Y-82790000D01*
X149600000Y-90424000D02*
X149624000Y-90400000D01*
X142748000Y-75946000D02*
X144018000Y-75946000D01*
X137640000Y-76454000D02*
X137640000Y-75438000D01*
X137922000Y-68072000D02*
X136906000Y-68072000D01*
X141351000Y-93345000D02*
X141351000Y-94395000D01*
X136906000Y-87912000D02*
X136906000Y-86995000D01*
X133477000Y-81032000D02*
X133482000Y-81037000D01*
X142200000Y-100058000D02*
X143620000Y-100058000D01*
D44*
X143833562Y-98092000D02*
X144376000Y-98634438D01*
D43*
X141224000Y-89154000D02*
X141224000Y-90398000D01*
X143764000Y-85090000D02*
X143764000Y-83790000D01*
D44*
X144376000Y-99722000D02*
X143830000Y-100268000D01*
D43*
X135410000Y-95758000D02*
X135382000Y-95786000D01*
X136700000Y-100058000D02*
X135780000Y-100058000D01*
X130004138Y-95070565D02*
X131563435Y-95070565D01*
X144780000Y-80772000D02*
X144780000Y-81974000D01*
X148751468Y-87082303D02*
X147839697Y-87082303D01*
X136878000Y-68100000D02*
X136906000Y-68072000D01*
X135553178Y-76774000D02*
X136274905Y-77495727D01*
X136700000Y-100058000D02*
X136700000Y-99520000D01*
X137629889Y-77495727D02*
X137629889Y-76464111D01*
X144780000Y-81974000D02*
X144764000Y-81990000D01*
X134432000Y-81037000D02*
X133482000Y-81037000D01*
X137414000Y-71148000D02*
X136426000Y-71148000D01*
D44*
X142716000Y-98092000D02*
X143833562Y-98092000D01*
D43*
X133604000Y-99568000D02*
X133604000Y-100584000D01*
X145764465Y-88370168D02*
X145764465Y-87351535D01*
X146812000Y-101600000D02*
X147828000Y-101600000D01*
X144100900Y-93778834D02*
X144100900Y-92472900D01*
X147830000Y-87092000D02*
X147800000Y-87122000D01*
X137629889Y-76464111D02*
X137640000Y-76454000D01*
X147830000Y-84074000D02*
X147830000Y-87092000D01*
X141351000Y-94395000D02*
X141321000Y-94425000D01*
X145764465Y-87351535D02*
X145768000Y-87348000D01*
X135862000Y-87912000D02*
X136906000Y-87912000D01*
X135890000Y-68100000D02*
X136878000Y-68100000D01*
X136274905Y-77495727D02*
X137629889Y-77495727D01*
X136426000Y-71148000D02*
X136398000Y-71120000D01*
X144764000Y-82790000D02*
X144014000Y-83540000D01*
X135382000Y-94744000D02*
X135382000Y-95786000D01*
D44*
X144376000Y-98634438D02*
X144376000Y-99722000D01*
D43*
X141224000Y-66040000D02*
X140092000Y-66040000D01*
X147955000Y-90424000D02*
X149600000Y-90424000D01*
X143764000Y-83790000D02*
X144014000Y-83540000D01*
X132853000Y-76774000D02*
X135553178Y-76774000D01*
X133477000Y-79502000D02*
X133477000Y-81032000D01*
X147839697Y-87082303D02*
X147800000Y-87122000D01*
X136700000Y-99520000D02*
X136950000Y-99270000D01*
X143620000Y-100058000D02*
X143830000Y-100268000D01*
%TO.N,Net-(MK1-BCLK)*%
X136908000Y-66040000D02*
X138292000Y-66040000D01*
%TO.N,Net-(MK1-WS)*%
X140208000Y-68070000D02*
X140208000Y-66978000D01*
X140208000Y-66978000D02*
X140092000Y-66862000D01*
%TO.N,+3.3V*%
X138820000Y-72390000D02*
X139697000Y-72390000D01*
X136906000Y-67112000D02*
X138042000Y-67112000D01*
D45*
X136680000Y-75438000D02*
X136394000Y-75152000D01*
X136394000Y-75447000D02*
X136017000Y-75824000D01*
X136294000Y-75824000D02*
X136680000Y-75438000D01*
D43*
X135890000Y-67140000D02*
X135552000Y-67140000D01*
D45*
X136394000Y-75152000D02*
X136396000Y-75150000D01*
D43*
X136396000Y-74166000D02*
X136394000Y-74168000D01*
D45*
X135128000Y-75824000D02*
X136017000Y-75824000D01*
X136394000Y-75152000D02*
X136394000Y-74168000D01*
D43*
X144980200Y-67106800D02*
X150317200Y-67106800D01*
X136878000Y-67140000D02*
X136906000Y-67112000D01*
X137414000Y-72134000D02*
X136396000Y-73152000D01*
X138820000Y-72390000D02*
X137696000Y-72390000D01*
X135552000Y-67140000D02*
X134620000Y-68072000D01*
X135890000Y-67140000D02*
X136878000Y-67140000D01*
X137696000Y-72390000D02*
X137414000Y-72108000D01*
D45*
X136680000Y-76210000D02*
X136294000Y-75824000D01*
X136680000Y-76454000D02*
X136680000Y-76210000D01*
X136017000Y-75824000D02*
X136294000Y-75824000D01*
D43*
X134620000Y-71374000D02*
X134620000Y-71376000D01*
D45*
X136394000Y-75152000D02*
X136394000Y-75447000D01*
D43*
X134620000Y-71376000D02*
X136396000Y-73152000D01*
D45*
X136396000Y-75150000D02*
X136396000Y-73152000D01*
D43*
X139697000Y-72390000D02*
X144980200Y-67106800D01*
X138042000Y-67112000D02*
X138292000Y-66862000D01*
X137414000Y-72108000D02*
X137414000Y-72134000D01*
%TO.N,VBUS*%
X141493654Y-88503000D02*
X139335000Y-88503000D01*
X141321000Y-96075000D02*
X142240000Y-95156000D01*
X135382000Y-96746000D02*
X134581000Y-96746000D01*
X146812000Y-88138000D02*
X146812000Y-87150000D01*
X138450000Y-98358000D02*
X138450000Y-99040000D01*
X139192000Y-87122000D02*
X139192000Y-88646000D01*
X147828000Y-83054000D02*
X147832000Y-83058000D01*
X139348000Y-96075000D02*
X139289000Y-96134000D01*
X140716000Y-99314000D02*
X140950000Y-99080000D01*
X145768000Y-86388000D02*
X145768000Y-84494000D01*
X140950000Y-99080000D02*
X140950000Y-98358000D01*
X146415465Y-89296535D02*
X146812000Y-88900000D01*
X146840000Y-86136000D02*
X146812000Y-86108000D01*
X134581000Y-96746000D02*
X133847000Y-96012000D01*
X144084000Y-90606178D02*
X144672322Y-91194500D01*
X139335000Y-88503000D02*
X139192000Y-88646000D01*
X131318000Y-85090000D02*
X131318000Y-86517000D01*
X145768000Y-84494000D02*
X145564000Y-84290000D01*
X141321000Y-96075000D02*
X139348000Y-96075000D01*
X145395678Y-91194500D02*
X146415465Y-90174713D01*
X140700000Y-100058000D02*
X140700000Y-99552000D01*
X138200000Y-100058000D02*
X138200000Y-99544000D01*
X144672322Y-91194500D02*
X145395678Y-91194500D01*
X144084000Y-90181000D02*
X144084000Y-90606178D01*
X138200000Y-99544000D02*
X138577000Y-99167000D01*
X146840000Y-87122000D02*
X146840000Y-86136000D01*
X138724000Y-99314000D02*
X140462000Y-99314000D01*
X142240000Y-89249346D02*
X141493654Y-88503000D01*
X146532000Y-86388000D02*
X146812000Y-86108000D01*
X142240000Y-95156000D02*
X142240000Y-89249346D01*
X132790000Y-87989000D02*
X131366500Y-86565500D01*
X146812000Y-88900000D02*
X146812000Y-88138000D01*
X146415465Y-90174713D02*
X146415465Y-89296535D01*
X140462000Y-99314000D02*
X140716000Y-99314000D01*
X131366500Y-86565500D02*
X131318000Y-86517000D01*
X133847000Y-96012000D02*
X132790000Y-94955000D01*
X146812000Y-87150000D02*
X146840000Y-87122000D01*
X140700000Y-99552000D02*
X140462000Y-99314000D01*
X138450000Y-99040000D02*
X138724000Y-99314000D01*
X132790000Y-94955000D02*
X132790000Y-87989000D01*
X145768000Y-86388000D02*
X146532000Y-86388000D01*
X147828000Y-82042000D02*
X147828000Y-83054000D01*
%TO.N,Net-(U4-VCC)*%
X134432000Y-89787000D02*
X134432000Y-88392000D01*
X136906000Y-88872000D02*
X135991000Y-89787000D01*
X135991000Y-89787000D02*
X134432000Y-89787000D01*
X133541000Y-90678000D02*
X134432000Y-89787000D01*
%TO.N,+BATT*%
X137414000Y-92901000D02*
X135191000Y-90678000D01*
X137414000Y-92901000D02*
X137922000Y-92393000D01*
X135759260Y-97377000D02*
X137414000Y-95722260D01*
X132937000Y-97377000D02*
X135759260Y-97377000D01*
X131572000Y-96012000D02*
X132937000Y-97377000D01*
X137922000Y-92393000D02*
X137922000Y-79248000D01*
X137414000Y-95722260D02*
X137414000Y-95184000D01*
X131572000Y-100108000D02*
X131572000Y-96012000D01*
X131064000Y-100616000D02*
X131572000Y-100108000D01*
X137922000Y-79248000D02*
X139637000Y-77533000D01*
X137414000Y-95184000D02*
X137414000Y-92901000D01*
%TO.N,Net-(U3-AIN0)*%
X139637000Y-75883000D02*
X141035000Y-75883000D01*
X141035000Y-75883000D02*
X141098000Y-75946000D01*
%TO.N,Net-(D2-K)*%
X131318000Y-89916000D02*
X131318000Y-88392000D01*
%TO.N,Net-(U1-STAT)*%
X131572000Y-94112000D02*
X131572000Y-91820000D01*
X131572000Y-91820000D02*
X131318000Y-91566000D01*
%TO.N,Net-(U1-PROG)*%
X133847000Y-94112000D02*
X134994000Y-94112000D01*
X134994000Y-94112000D02*
X135382000Y-93724000D01*
%TO.N,Net-(J4-CC2)*%
X145792000Y-101600000D02*
X140589000Y-101600000D01*
X140589000Y-101600000D02*
X140200000Y-101211000D01*
X140200000Y-101211000D02*
X140200000Y-100058000D01*
%TO.N,Net-(U5-~{RST})*%
X145564000Y-83290000D02*
X146580000Y-83290000D01*
X146580000Y-83290000D02*
X146812000Y-83058000D01*
%TO.N,I2C_SDA*%
X139692000Y-72890000D02*
X141478000Y-74676000D01*
X137678000Y-72890000D02*
X137416000Y-73152000D01*
X138820000Y-72890000D02*
X137678000Y-72890000D01*
X138820000Y-72890000D02*
X139692000Y-72890000D01*
%TO.N,Net-(U5-VBUS)*%
X146526000Y-83790000D02*
X146810000Y-84074000D01*
X146812000Y-85088000D02*
X146812000Y-84076000D01*
X146812000Y-84076000D02*
X146810000Y-84074000D01*
X145564000Y-83790000D02*
X146526000Y-83790000D01*
%TO.N,I2S_WS*%
X134493000Y-69850000D02*
X127254000Y-77089000D01*
X140208000Y-69090000D02*
X139448000Y-69850000D01*
X139448000Y-69850000D02*
X134493000Y-69850000D01*
X127254000Y-77089000D02*
X127254000Y-77266800D01*
%TO.N,Net-(U4-CS)*%
X134432000Y-86779499D02*
X134432000Y-86117000D01*
X134783001Y-87130500D02*
X134432000Y-86779499D01*
X136906000Y-83822000D02*
X136906000Y-85968178D01*
X135743678Y-87130500D02*
X134783001Y-87130500D01*
X136906000Y-85968178D02*
X135743678Y-87130500D01*
%TO.N,Net-(Q2-Pad6)*%
X135382000Y-83312000D02*
X136396000Y-83312000D01*
X136396000Y-83312000D02*
X136906000Y-82802000D01*
%TO.N,I2C_SCL*%
X138192000Y-73390000D02*
X137414000Y-74168000D01*
X137414000Y-74168000D02*
X137922000Y-74168000D01*
X138820000Y-73390000D02*
X138192000Y-73390000D01*
X137922000Y-74168000D02*
X138430000Y-74676000D01*
%TO.N,Net-(U2-EN)*%
X131824000Y-77724000D02*
X132853000Y-77724000D01*
X131064000Y-76964000D02*
X131824000Y-77724000D01*
%TO.N,Net-(SW2-A)*%
X132733000Y-75944000D02*
X132853000Y-75824000D01*
X128252000Y-90112000D02*
X129794000Y-88570000D01*
X129794000Y-88570000D02*
X129794000Y-77214000D01*
X131064000Y-75944000D02*
X132733000Y-75944000D01*
X129794000Y-77214000D02*
X131064000Y-75944000D01*
%TO.N,USB_D+*%
X144264000Y-85860000D02*
X143134000Y-86990000D01*
X143134000Y-86990000D02*
X143134000Y-90181000D01*
X144264000Y-85090000D02*
X144264000Y-85860000D01*
%TO.N,USB_CONN_D-*%
X139950000Y-98358000D02*
X139950000Y-97740520D01*
X142037294Y-97327000D02*
X145034000Y-94330294D01*
X139950000Y-97740520D02*
X140363520Y-97327000D01*
X145034000Y-94330294D02*
X145034000Y-92456000D01*
X140363520Y-97327000D02*
X142037294Y-97327000D01*
%TO.N,USB_D-*%
X144764000Y-89911000D02*
X144764000Y-85090000D01*
X145034000Y-90181000D02*
X144764000Y-89911000D01*
%TO.N,USB_CONN_D+*%
X139450000Y-97532000D02*
X140156000Y-96826000D01*
X141829774Y-96826000D02*
X143134000Y-95521774D01*
X139450000Y-98358000D02*
X139450000Y-97532000D01*
X143134000Y-95521774D02*
X143134000Y-92456000D01*
X140156000Y-96826000D02*
X141829774Y-96826000D01*
%TO.N,Net-(U4-OC)*%
X133482000Y-84958000D02*
X133604000Y-84836000D01*
X133482000Y-86117000D02*
X133482000Y-84958000D01*
%TO.N,Net-(U4-OD)*%
X133482000Y-83737178D02*
X133482000Y-83312000D01*
X135382000Y-86117000D02*
X135382000Y-85637178D01*
X135382000Y-85637178D02*
X133482000Y-83737178D01*
%TO.N,Net-(D1-K)*%
X130098789Y-93112000D02*
X130104753Y-93117964D01*
X128252000Y-93112000D02*
X130098789Y-93112000D01*
X141222000Y-91946000D02*
X141224000Y-91948000D01*
X138430000Y-93218000D02*
X139289000Y-94077000D01*
X139192000Y-91946000D02*
X141222000Y-91946000D01*
X139192000Y-92456000D02*
X139192000Y-91946000D01*
X139289000Y-94077000D02*
X139289000Y-94234000D01*
X138430000Y-93218000D02*
X139192000Y-92456000D01*
%TO.N,UART_USB_RX*%
X142951200Y-79806800D02*
X150317200Y-79806800D01*
X141986000Y-80772000D02*
X142951200Y-79806800D01*
X142464000Y-82790000D02*
X141986000Y-82312000D01*
X141986000Y-82312000D02*
X141986000Y-80772000D01*
%TO.N,UART_USB_TX*%
X142464000Y-83290000D02*
X141710000Y-83290000D01*
X141224000Y-80518000D02*
X142240000Y-79502000D01*
X142240000Y-79502000D02*
X142585200Y-79156800D01*
X142585200Y-79156800D02*
X144526000Y-79156800D01*
X146304000Y-80772000D02*
X148742400Y-80772000D01*
X141224000Y-82804000D02*
X141224000Y-80518000D01*
X148742400Y-80772000D02*
X150317200Y-82346800D01*
X141710000Y-83290000D02*
X141224000Y-82804000D01*
%TO.N,io00*%
X147526000Y-91900000D02*
X149624000Y-91900000D01*
X150317200Y-72186800D02*
X151892000Y-73761600D01*
X147066000Y-91440000D02*
X147526000Y-91900000D01*
X147066000Y-89916000D02*
X147066000Y-91440000D01*
X151892000Y-73761600D02*
X151892000Y-85090000D01*
X151892000Y-85090000D02*
X147066000Y-89916000D01*
%TO.N,I2S_DATA*%
X128219200Y-74726800D02*
X127254000Y-74726800D01*
X133856000Y-69090000D02*
X128219200Y-74726800D01*
X139192000Y-69090000D02*
X133856000Y-69090000D01*
%TO.N,I2S_BCLK*%
X135636000Y-66040000D02*
X129489200Y-72186800D01*
X135888000Y-66040000D02*
X135888000Y-66092800D01*
X129489200Y-72186800D02*
X127254000Y-72186800D01*
X135888000Y-66040000D02*
X135636000Y-66040000D01*
%TD*%
M02*
