%TF.GenerationSoftware,KiCad,Pcbnew,9.0.0*%
%TF.CreationDate,2025-05-10T20:39:51+02:00*%
%TF.ProjectId,ESP32CAM Shield,45535033-3243-4414-9d20-536869656c64,rev?*%
%TF.SameCoordinates,Original*%
%TF.FileFunction,Legend,Top*%
%TF.FilePolarity,Positive*%
%FSLAX46Y46*%
G04 Gerber Fmt 4.6, Leading zero omitted, Abs format (unit mm)*
G04 Created by KiCad (PCBNEW 9.0.0) date 2025-05-10 20:39:51*
%MOMM*%
%LPD*%
G01*
G04 APERTURE LIST*
%ADD10C,0.150000*%
%ADD11C,0.100000*%
%ADD12C,0.120000*%
G04 APERTURE END LIST*
D10*
X149225095Y-101648819D02*
X149225095Y-100648819D01*
X149225095Y-101125009D02*
X149796523Y-101125009D01*
X149796523Y-101648819D02*
X149796523Y-100648819D01*
X150796523Y-101648819D02*
X150225095Y-101648819D01*
X150510809Y-101648819D02*
X150510809Y-100648819D01*
X150510809Y-100648819D02*
X150415571Y-100791676D01*
X150415571Y-100791676D02*
X150320333Y-100886914D01*
X150320333Y-100886914D02*
X150225095Y-100934533D01*
D11*
X135887966Y-74792666D02*
X135921300Y-74825999D01*
X135921300Y-74825999D02*
X135954633Y-74925999D01*
X135954633Y-74925999D02*
X135954633Y-74992666D01*
X135954633Y-74992666D02*
X135921300Y-75092666D01*
X135921300Y-75092666D02*
X135854633Y-75159333D01*
X135854633Y-75159333D02*
X135787966Y-75192666D01*
X135787966Y-75192666D02*
X135654633Y-75225999D01*
X135654633Y-75225999D02*
X135554633Y-75225999D01*
X135554633Y-75225999D02*
X135421300Y-75192666D01*
X135421300Y-75192666D02*
X135354633Y-75159333D01*
X135354633Y-75159333D02*
X135287966Y-75092666D01*
X135287966Y-75092666D02*
X135254633Y-74992666D01*
X135254633Y-74992666D02*
X135254633Y-74925999D01*
X135254633Y-74925999D02*
X135287966Y-74825999D01*
X135287966Y-74825999D02*
X135321300Y-74792666D01*
X135254633Y-74159333D02*
X135254633Y-74492666D01*
X135254633Y-74492666D02*
X135587966Y-74525999D01*
X135587966Y-74525999D02*
X135554633Y-74492666D01*
X135554633Y-74492666D02*
X135521300Y-74425999D01*
X135521300Y-74425999D02*
X135521300Y-74259333D01*
X135521300Y-74259333D02*
X135554633Y-74192666D01*
X135554633Y-74192666D02*
X135587966Y-74159333D01*
X135587966Y-74159333D02*
X135654633Y-74125999D01*
X135654633Y-74125999D02*
X135821300Y-74125999D01*
X135821300Y-74125999D02*
X135887966Y-74159333D01*
X135887966Y-74159333D02*
X135921300Y-74192666D01*
X135921300Y-74192666D02*
X135954633Y-74259333D01*
X135954633Y-74259333D02*
X135954633Y-74425999D01*
X135954633Y-74425999D02*
X135921300Y-74492666D01*
X135921300Y-74492666D02*
X135887966Y-74525999D01*
D10*
X137392580Y-69635666D02*
X137440200Y-69683285D01*
X137440200Y-69683285D02*
X137487819Y-69826142D01*
X137487819Y-69826142D02*
X137487819Y-69921380D01*
X137487819Y-69921380D02*
X137440200Y-70064237D01*
X137440200Y-70064237D02*
X137344961Y-70159475D01*
X137344961Y-70159475D02*
X137249723Y-70207094D01*
X137249723Y-70207094D02*
X137059247Y-70254713D01*
X137059247Y-70254713D02*
X136916390Y-70254713D01*
X136916390Y-70254713D02*
X136725914Y-70207094D01*
X136725914Y-70207094D02*
X136630676Y-70159475D01*
X136630676Y-70159475D02*
X136535438Y-70064237D01*
X136535438Y-70064237D02*
X136487819Y-69921380D01*
X136487819Y-69921380D02*
X136487819Y-69826142D01*
X136487819Y-69826142D02*
X136535438Y-69683285D01*
X136535438Y-69683285D02*
X136583057Y-69635666D01*
X136487819Y-69302332D02*
X136487819Y-68683285D01*
X136487819Y-68683285D02*
X136868771Y-69016618D01*
X136868771Y-69016618D02*
X136868771Y-68873761D01*
X136868771Y-68873761D02*
X136916390Y-68778523D01*
X136916390Y-68778523D02*
X136964009Y-68730904D01*
X136964009Y-68730904D02*
X137059247Y-68683285D01*
X137059247Y-68683285D02*
X137297342Y-68683285D01*
X137297342Y-68683285D02*
X137392580Y-68730904D01*
X137392580Y-68730904D02*
X137440200Y-68778523D01*
X137440200Y-68778523D02*
X137487819Y-68873761D01*
X137487819Y-68873761D02*
X137487819Y-69159475D01*
X137487819Y-69159475D02*
X137440200Y-69254713D01*
X137440200Y-69254713D02*
X137392580Y-69302332D01*
X137011580Y-78017666D02*
X137059200Y-78065285D01*
X137059200Y-78065285D02*
X137106819Y-78208142D01*
X137106819Y-78208142D02*
X137106819Y-78303380D01*
X137106819Y-78303380D02*
X137059200Y-78446237D01*
X137059200Y-78446237D02*
X136963961Y-78541475D01*
X136963961Y-78541475D02*
X136868723Y-78589094D01*
X136868723Y-78589094D02*
X136678247Y-78636713D01*
X136678247Y-78636713D02*
X136535390Y-78636713D01*
X136535390Y-78636713D02*
X136344914Y-78589094D01*
X136344914Y-78589094D02*
X136249676Y-78541475D01*
X136249676Y-78541475D02*
X136154438Y-78446237D01*
X136154438Y-78446237D02*
X136106819Y-78303380D01*
X136106819Y-78303380D02*
X136106819Y-78208142D01*
X136106819Y-78208142D02*
X136154438Y-78065285D01*
X136154438Y-78065285D02*
X136202057Y-78017666D01*
X136440152Y-77160523D02*
X137106819Y-77160523D01*
X136059200Y-77398618D02*
X136773485Y-77636713D01*
X136773485Y-77636713D02*
X136773485Y-77017666D01*
X146804142Y-82242819D02*
X146470809Y-81766628D01*
X146232714Y-82242819D02*
X146232714Y-81242819D01*
X146232714Y-81242819D02*
X146613666Y-81242819D01*
X146613666Y-81242819D02*
X146708904Y-81290438D01*
X146708904Y-81290438D02*
X146756523Y-81338057D01*
X146756523Y-81338057D02*
X146804142Y-81433295D01*
X146804142Y-81433295D02*
X146804142Y-81576152D01*
X146804142Y-81576152D02*
X146756523Y-81671390D01*
X146756523Y-81671390D02*
X146708904Y-81719009D01*
X146708904Y-81719009D02*
X146613666Y-81766628D01*
X146613666Y-81766628D02*
X146232714Y-81766628D01*
X147756523Y-82242819D02*
X147185095Y-82242819D01*
X147470809Y-82242819D02*
X147470809Y-81242819D01*
X147470809Y-81242819D02*
X147375571Y-81385676D01*
X147375571Y-81385676D02*
X147280333Y-81480914D01*
X147280333Y-81480914D02*
X147185095Y-81528533D01*
X148613666Y-81242819D02*
X148423190Y-81242819D01*
X148423190Y-81242819D02*
X148327952Y-81290438D01*
X148327952Y-81290438D02*
X148280333Y-81338057D01*
X148280333Y-81338057D02*
X148185095Y-81480914D01*
X148185095Y-81480914D02*
X148137476Y-81671390D01*
X148137476Y-81671390D02*
X148137476Y-82052342D01*
X148137476Y-82052342D02*
X148185095Y-82147580D01*
X148185095Y-82147580D02*
X148232714Y-82195200D01*
X148232714Y-82195200D02*
X148327952Y-82242819D01*
X148327952Y-82242819D02*
X148518428Y-82242819D01*
X148518428Y-82242819D02*
X148613666Y-82195200D01*
X148613666Y-82195200D02*
X148661285Y-82147580D01*
X148661285Y-82147580D02*
X148708904Y-82052342D01*
X148708904Y-82052342D02*
X148708904Y-81814247D01*
X148708904Y-81814247D02*
X148661285Y-81719009D01*
X148661285Y-81719009D02*
X148613666Y-81671390D01*
X148613666Y-81671390D02*
X148518428Y-81623771D01*
X148518428Y-81623771D02*
X148327952Y-81623771D01*
X148327952Y-81623771D02*
X148232714Y-81671390D01*
X148232714Y-81671390D02*
X148185095Y-81719009D01*
X148185095Y-81719009D02*
X148137476Y-81814247D01*
X134725580Y-96432666D02*
X134773200Y-96480285D01*
X134773200Y-96480285D02*
X134820819Y-96623142D01*
X134820819Y-96623142D02*
X134820819Y-96718380D01*
X134820819Y-96718380D02*
X134773200Y-96861237D01*
X134773200Y-96861237D02*
X134677961Y-96956475D01*
X134677961Y-96956475D02*
X134582723Y-97004094D01*
X134582723Y-97004094D02*
X134392247Y-97051713D01*
X134392247Y-97051713D02*
X134249390Y-97051713D01*
X134249390Y-97051713D02*
X134058914Y-97004094D01*
X134058914Y-97004094D02*
X133963676Y-96956475D01*
X133963676Y-96956475D02*
X133868438Y-96861237D01*
X133868438Y-96861237D02*
X133820819Y-96718380D01*
X133820819Y-96718380D02*
X133820819Y-96623142D01*
X133820819Y-96623142D02*
X133868438Y-96480285D01*
X133868438Y-96480285D02*
X133916057Y-96432666D01*
X134820819Y-95480285D02*
X134820819Y-96051713D01*
X134820819Y-95765999D02*
X133820819Y-95765999D01*
X133820819Y-95765999D02*
X133963676Y-95861237D01*
X133963676Y-95861237D02*
X134058914Y-95956475D01*
X134058914Y-95956475D02*
X134106533Y-96051713D01*
X134058819Y-101861857D02*
X133582628Y-102195190D01*
X134058819Y-102433285D02*
X133058819Y-102433285D01*
X133058819Y-102433285D02*
X133058819Y-102052333D01*
X133058819Y-102052333D02*
X133106438Y-101957095D01*
X133106438Y-101957095D02*
X133154057Y-101909476D01*
X133154057Y-101909476D02*
X133249295Y-101861857D01*
X133249295Y-101861857D02*
X133392152Y-101861857D01*
X133392152Y-101861857D02*
X133487390Y-101909476D01*
X133487390Y-101909476D02*
X133535009Y-101957095D01*
X133535009Y-101957095D02*
X133582628Y-102052333D01*
X133582628Y-102052333D02*
X133582628Y-102433285D01*
X134058819Y-100909476D02*
X134058819Y-101480904D01*
X134058819Y-101195190D02*
X133058819Y-101195190D01*
X133058819Y-101195190D02*
X133201676Y-101290428D01*
X133201676Y-101290428D02*
X133296914Y-101385666D01*
X133296914Y-101385666D02*
X133344533Y-101480904D01*
X133487390Y-100338047D02*
X133439771Y-100433285D01*
X133439771Y-100433285D02*
X133392152Y-100480904D01*
X133392152Y-100480904D02*
X133296914Y-100528523D01*
X133296914Y-100528523D02*
X133249295Y-100528523D01*
X133249295Y-100528523D02*
X133154057Y-100480904D01*
X133154057Y-100480904D02*
X133106438Y-100433285D01*
X133106438Y-100433285D02*
X133058819Y-100338047D01*
X133058819Y-100338047D02*
X133058819Y-100147571D01*
X133058819Y-100147571D02*
X133106438Y-100052333D01*
X133106438Y-100052333D02*
X133154057Y-100004714D01*
X133154057Y-100004714D02*
X133249295Y-99957095D01*
X133249295Y-99957095D02*
X133296914Y-99957095D01*
X133296914Y-99957095D02*
X133392152Y-100004714D01*
X133392152Y-100004714D02*
X133439771Y-100052333D01*
X133439771Y-100052333D02*
X133487390Y-100147571D01*
X133487390Y-100147571D02*
X133487390Y-100338047D01*
X133487390Y-100338047D02*
X133535009Y-100433285D01*
X133535009Y-100433285D02*
X133582628Y-100480904D01*
X133582628Y-100480904D02*
X133677866Y-100528523D01*
X133677866Y-100528523D02*
X133868342Y-100528523D01*
X133868342Y-100528523D02*
X133963580Y-100480904D01*
X133963580Y-100480904D02*
X134011200Y-100433285D01*
X134011200Y-100433285D02*
X134058819Y-100338047D01*
X134058819Y-100338047D02*
X134058819Y-100147571D01*
X134058819Y-100147571D02*
X134011200Y-100052333D01*
X134011200Y-100052333D02*
X133963580Y-100004714D01*
X133963580Y-100004714D02*
X133868342Y-99957095D01*
X133868342Y-99957095D02*
X133677866Y-99957095D01*
X133677866Y-99957095D02*
X133582628Y-100004714D01*
X133582628Y-100004714D02*
X133535009Y-100052333D01*
X133535009Y-100052333D02*
X133487390Y-100147571D01*
D11*
X135265333Y-73724633D02*
X135032000Y-73391300D01*
X134865333Y-73724633D02*
X134865333Y-73024633D01*
X134865333Y-73024633D02*
X135132000Y-73024633D01*
X135132000Y-73024633D02*
X135198667Y-73057966D01*
X135198667Y-73057966D02*
X135232000Y-73091300D01*
X135232000Y-73091300D02*
X135265333Y-73157966D01*
X135265333Y-73157966D02*
X135265333Y-73257966D01*
X135265333Y-73257966D02*
X135232000Y-73324633D01*
X135232000Y-73324633D02*
X135198667Y-73357966D01*
X135198667Y-73357966D02*
X135132000Y-73391300D01*
X135132000Y-73391300D02*
X134865333Y-73391300D01*
X135665333Y-73324633D02*
X135598667Y-73291300D01*
X135598667Y-73291300D02*
X135565333Y-73257966D01*
X135565333Y-73257966D02*
X135532000Y-73191300D01*
X135532000Y-73191300D02*
X135532000Y-73157966D01*
X135532000Y-73157966D02*
X135565333Y-73091300D01*
X135565333Y-73091300D02*
X135598667Y-73057966D01*
X135598667Y-73057966D02*
X135665333Y-73024633D01*
X135665333Y-73024633D02*
X135798667Y-73024633D01*
X135798667Y-73024633D02*
X135865333Y-73057966D01*
X135865333Y-73057966D02*
X135898667Y-73091300D01*
X135898667Y-73091300D02*
X135932000Y-73157966D01*
X135932000Y-73157966D02*
X135932000Y-73191300D01*
X135932000Y-73191300D02*
X135898667Y-73257966D01*
X135898667Y-73257966D02*
X135865333Y-73291300D01*
X135865333Y-73291300D02*
X135798667Y-73324633D01*
X135798667Y-73324633D02*
X135665333Y-73324633D01*
X135665333Y-73324633D02*
X135598667Y-73357966D01*
X135598667Y-73357966D02*
X135565333Y-73391300D01*
X135565333Y-73391300D02*
X135532000Y-73457966D01*
X135532000Y-73457966D02*
X135532000Y-73591300D01*
X135532000Y-73591300D02*
X135565333Y-73657966D01*
X135565333Y-73657966D02*
X135598667Y-73691300D01*
X135598667Y-73691300D02*
X135665333Y-73724633D01*
X135665333Y-73724633D02*
X135798667Y-73724633D01*
X135798667Y-73724633D02*
X135865333Y-73691300D01*
X135865333Y-73691300D02*
X135898667Y-73657966D01*
X135898667Y-73657966D02*
X135932000Y-73591300D01*
X135932000Y-73591300D02*
X135932000Y-73457966D01*
X135932000Y-73457966D02*
X135898667Y-73391300D01*
X135898667Y-73391300D02*
X135865333Y-73357966D01*
X135865333Y-73357966D02*
X135798667Y-73324633D01*
D10*
X140377057Y-95218238D02*
X140329438Y-95313476D01*
X140329438Y-95313476D02*
X140234200Y-95408714D01*
X140234200Y-95408714D02*
X140091342Y-95551571D01*
X140091342Y-95551571D02*
X140043723Y-95646809D01*
X140043723Y-95646809D02*
X140043723Y-95742047D01*
X140281819Y-95694428D02*
X140234200Y-95789666D01*
X140234200Y-95789666D02*
X140138961Y-95884904D01*
X140138961Y-95884904D02*
X139948485Y-95932523D01*
X139948485Y-95932523D02*
X139615152Y-95932523D01*
X139615152Y-95932523D02*
X139424676Y-95884904D01*
X139424676Y-95884904D02*
X139329438Y-95789666D01*
X139329438Y-95789666D02*
X139281819Y-95694428D01*
X139281819Y-95694428D02*
X139281819Y-95503952D01*
X139281819Y-95503952D02*
X139329438Y-95408714D01*
X139329438Y-95408714D02*
X139424676Y-95313476D01*
X139424676Y-95313476D02*
X139615152Y-95265857D01*
X139615152Y-95265857D02*
X139948485Y-95265857D01*
X139948485Y-95265857D02*
X140138961Y-95313476D01*
X140138961Y-95313476D02*
X140234200Y-95408714D01*
X140234200Y-95408714D02*
X140281819Y-95503952D01*
X140281819Y-95503952D02*
X140281819Y-95694428D01*
X140281819Y-94313476D02*
X140281819Y-94884904D01*
X140281819Y-94599190D02*
X139281819Y-94599190D01*
X139281819Y-94599190D02*
X139424676Y-94694428D01*
X139424676Y-94694428D02*
X139519914Y-94789666D01*
X139519914Y-94789666D02*
X139567533Y-94884904D01*
X142059819Y-69730857D02*
X141583628Y-70064190D01*
X142059819Y-70302285D02*
X141059819Y-70302285D01*
X141059819Y-70302285D02*
X141059819Y-69921333D01*
X141059819Y-69921333D02*
X141107438Y-69826095D01*
X141107438Y-69826095D02*
X141155057Y-69778476D01*
X141155057Y-69778476D02*
X141250295Y-69730857D01*
X141250295Y-69730857D02*
X141393152Y-69730857D01*
X141393152Y-69730857D02*
X141488390Y-69778476D01*
X141488390Y-69778476D02*
X141536009Y-69826095D01*
X141536009Y-69826095D02*
X141583628Y-69921333D01*
X141583628Y-69921333D02*
X141583628Y-70302285D01*
X142059819Y-68778476D02*
X142059819Y-69349904D01*
X142059819Y-69064190D02*
X141059819Y-69064190D01*
X141059819Y-69064190D02*
X141202676Y-69159428D01*
X141202676Y-69159428D02*
X141297914Y-69254666D01*
X141297914Y-69254666D02*
X141345533Y-69349904D01*
X141059819Y-68159428D02*
X141059819Y-68064190D01*
X141059819Y-68064190D02*
X141107438Y-67968952D01*
X141107438Y-67968952D02*
X141155057Y-67921333D01*
X141155057Y-67921333D02*
X141250295Y-67873714D01*
X141250295Y-67873714D02*
X141440771Y-67826095D01*
X141440771Y-67826095D02*
X141678866Y-67826095D01*
X141678866Y-67826095D02*
X141869342Y-67873714D01*
X141869342Y-67873714D02*
X141964580Y-67921333D01*
X141964580Y-67921333D02*
X142012200Y-67968952D01*
X142012200Y-67968952D02*
X142059819Y-68064190D01*
X142059819Y-68064190D02*
X142059819Y-68159428D01*
X142059819Y-68159428D02*
X142012200Y-68254666D01*
X142012200Y-68254666D02*
X141964580Y-68302285D01*
X141964580Y-68302285D02*
X141869342Y-68349904D01*
X141869342Y-68349904D02*
X141678866Y-68397523D01*
X141678866Y-68397523D02*
X141440771Y-68397523D01*
X141440771Y-68397523D02*
X141250295Y-68349904D01*
X141250295Y-68349904D02*
X141155057Y-68302285D01*
X141155057Y-68302285D02*
X141107438Y-68254666D01*
X141107438Y-68254666D02*
X141059819Y-68159428D01*
X128190666Y-105118819D02*
X128190666Y-105833104D01*
X128190666Y-105833104D02*
X128143047Y-105975961D01*
X128143047Y-105975961D02*
X128047809Y-106071200D01*
X128047809Y-106071200D02*
X127904952Y-106118819D01*
X127904952Y-106118819D02*
X127809714Y-106118819D01*
X128571619Y-105118819D02*
X129190666Y-105118819D01*
X129190666Y-105118819D02*
X128857333Y-105499771D01*
X128857333Y-105499771D02*
X129000190Y-105499771D01*
X129000190Y-105499771D02*
X129095428Y-105547390D01*
X129095428Y-105547390D02*
X129143047Y-105595009D01*
X129143047Y-105595009D02*
X129190666Y-105690247D01*
X129190666Y-105690247D02*
X129190666Y-105928342D01*
X129190666Y-105928342D02*
X129143047Y-106023580D01*
X129143047Y-106023580D02*
X129095428Y-106071200D01*
X129095428Y-106071200D02*
X129000190Y-106118819D01*
X129000190Y-106118819D02*
X128714476Y-106118819D01*
X128714476Y-106118819D02*
X128619238Y-106071200D01*
X128619238Y-106071200D02*
X128571619Y-106023580D01*
X137646819Y-91034094D02*
X136646819Y-91034094D01*
X136646819Y-91034094D02*
X136646819Y-90795999D01*
X136646819Y-90795999D02*
X136694438Y-90653142D01*
X136694438Y-90653142D02*
X136789676Y-90557904D01*
X136789676Y-90557904D02*
X136884914Y-90510285D01*
X136884914Y-90510285D02*
X137075390Y-90462666D01*
X137075390Y-90462666D02*
X137218247Y-90462666D01*
X137218247Y-90462666D02*
X137408723Y-90510285D01*
X137408723Y-90510285D02*
X137503961Y-90557904D01*
X137503961Y-90557904D02*
X137599200Y-90653142D01*
X137599200Y-90653142D02*
X137646819Y-90795999D01*
X137646819Y-90795999D02*
X137646819Y-91034094D01*
X137646819Y-89510285D02*
X137646819Y-90081713D01*
X137646819Y-89795999D02*
X136646819Y-89795999D01*
X136646819Y-89795999D02*
X136789676Y-89891237D01*
X136789676Y-89891237D02*
X136884914Y-89986475D01*
X136884914Y-89986475D02*
X136932533Y-90081713D01*
X146012819Y-93598904D02*
X146822342Y-93598904D01*
X146822342Y-93598904D02*
X146917580Y-93551285D01*
X146917580Y-93551285D02*
X146965200Y-93503666D01*
X146965200Y-93503666D02*
X147012819Y-93408428D01*
X147012819Y-93408428D02*
X147012819Y-93217952D01*
X147012819Y-93217952D02*
X146965200Y-93122714D01*
X146965200Y-93122714D02*
X146917580Y-93075095D01*
X146917580Y-93075095D02*
X146822342Y-93027476D01*
X146822342Y-93027476D02*
X146012819Y-93027476D01*
X146012819Y-92122714D02*
X146012819Y-92313190D01*
X146012819Y-92313190D02*
X146060438Y-92408428D01*
X146060438Y-92408428D02*
X146108057Y-92456047D01*
X146108057Y-92456047D02*
X146250914Y-92551285D01*
X146250914Y-92551285D02*
X146441390Y-92598904D01*
X146441390Y-92598904D02*
X146822342Y-92598904D01*
X146822342Y-92598904D02*
X146917580Y-92551285D01*
X146917580Y-92551285D02*
X146965200Y-92503666D01*
X146965200Y-92503666D02*
X147012819Y-92408428D01*
X147012819Y-92408428D02*
X147012819Y-92217952D01*
X147012819Y-92217952D02*
X146965200Y-92122714D01*
X146965200Y-92122714D02*
X146917580Y-92075095D01*
X146917580Y-92075095D02*
X146822342Y-92027476D01*
X146822342Y-92027476D02*
X146584247Y-92027476D01*
X146584247Y-92027476D02*
X146489009Y-92075095D01*
X146489009Y-92075095D02*
X146441390Y-92122714D01*
X146441390Y-92122714D02*
X146393771Y-92217952D01*
X146393771Y-92217952D02*
X146393771Y-92408428D01*
X146393771Y-92408428D02*
X146441390Y-92503666D01*
X146441390Y-92503666D02*
X146489009Y-92551285D01*
X146489009Y-92551285D02*
X146584247Y-92598904D01*
X140468819Y-84301904D02*
X141278342Y-84301904D01*
X141278342Y-84301904D02*
X141373580Y-84254285D01*
X141373580Y-84254285D02*
X141421200Y-84206666D01*
X141421200Y-84206666D02*
X141468819Y-84111428D01*
X141468819Y-84111428D02*
X141468819Y-83920952D01*
X141468819Y-83920952D02*
X141421200Y-83825714D01*
X141421200Y-83825714D02*
X141373580Y-83778095D01*
X141373580Y-83778095D02*
X141278342Y-83730476D01*
X141278342Y-83730476D02*
X140468819Y-83730476D01*
X140468819Y-82778095D02*
X140468819Y-83254285D01*
X140468819Y-83254285D02*
X140945009Y-83301904D01*
X140945009Y-83301904D02*
X140897390Y-83254285D01*
X140897390Y-83254285D02*
X140849771Y-83159047D01*
X140849771Y-83159047D02*
X140849771Y-82920952D01*
X140849771Y-82920952D02*
X140897390Y-82825714D01*
X140897390Y-82825714D02*
X140945009Y-82778095D01*
X140945009Y-82778095D02*
X141040247Y-82730476D01*
X141040247Y-82730476D02*
X141278342Y-82730476D01*
X141278342Y-82730476D02*
X141373580Y-82778095D01*
X141373580Y-82778095D02*
X141421200Y-82825714D01*
X141421200Y-82825714D02*
X141468819Y-82920952D01*
X141468819Y-82920952D02*
X141468819Y-83159047D01*
X141468819Y-83159047D02*
X141421200Y-83254285D01*
X141421200Y-83254285D02*
X141373580Y-83301904D01*
X140281819Y-79033666D02*
X139805628Y-79366999D01*
X140281819Y-79605094D02*
X139281819Y-79605094D01*
X139281819Y-79605094D02*
X139281819Y-79224142D01*
X139281819Y-79224142D02*
X139329438Y-79128904D01*
X139329438Y-79128904D02*
X139377057Y-79081285D01*
X139377057Y-79081285D02*
X139472295Y-79033666D01*
X139472295Y-79033666D02*
X139615152Y-79033666D01*
X139615152Y-79033666D02*
X139710390Y-79081285D01*
X139710390Y-79081285D02*
X139758009Y-79128904D01*
X139758009Y-79128904D02*
X139805628Y-79224142D01*
X139805628Y-79224142D02*
X139805628Y-79605094D01*
X139281819Y-78128904D02*
X139281819Y-78605094D01*
X139281819Y-78605094D02*
X139758009Y-78652713D01*
X139758009Y-78652713D02*
X139710390Y-78605094D01*
X139710390Y-78605094D02*
X139662771Y-78509856D01*
X139662771Y-78509856D02*
X139662771Y-78271761D01*
X139662771Y-78271761D02*
X139710390Y-78176523D01*
X139710390Y-78176523D02*
X139758009Y-78128904D01*
X139758009Y-78128904D02*
X139853247Y-78081285D01*
X139853247Y-78081285D02*
X140091342Y-78081285D01*
X140091342Y-78081285D02*
X140186580Y-78128904D01*
X140186580Y-78128904D02*
X140234200Y-78176523D01*
X140234200Y-78176523D02*
X140281819Y-78271761D01*
X140281819Y-78271761D02*
X140281819Y-78509856D01*
X140281819Y-78509856D02*
X140234200Y-78605094D01*
X140234200Y-78605094D02*
X140186580Y-78652713D01*
X130342819Y-90907666D02*
X129866628Y-91240999D01*
X130342819Y-91479094D02*
X129342819Y-91479094D01*
X129342819Y-91479094D02*
X129342819Y-91098142D01*
X129342819Y-91098142D02*
X129390438Y-91002904D01*
X129390438Y-91002904D02*
X129438057Y-90955285D01*
X129438057Y-90955285D02*
X129533295Y-90907666D01*
X129533295Y-90907666D02*
X129676152Y-90907666D01*
X129676152Y-90907666D02*
X129771390Y-90955285D01*
X129771390Y-90955285D02*
X129819009Y-91002904D01*
X129819009Y-91002904D02*
X129866628Y-91098142D01*
X129866628Y-91098142D02*
X129866628Y-91479094D01*
X129342819Y-90574332D02*
X129342819Y-89955285D01*
X129342819Y-89955285D02*
X129723771Y-90288618D01*
X129723771Y-90288618D02*
X129723771Y-90145761D01*
X129723771Y-90145761D02*
X129771390Y-90050523D01*
X129771390Y-90050523D02*
X129819009Y-90002904D01*
X129819009Y-90002904D02*
X129914247Y-89955285D01*
X129914247Y-89955285D02*
X130152342Y-89955285D01*
X130152342Y-89955285D02*
X130247580Y-90002904D01*
X130247580Y-90002904D02*
X130295200Y-90050523D01*
X130295200Y-90050523D02*
X130342819Y-90145761D01*
X130342819Y-90145761D02*
X130342819Y-90431475D01*
X130342819Y-90431475D02*
X130295200Y-90526713D01*
X130295200Y-90526713D02*
X130247580Y-90574332D01*
X133228595Y-73828819D02*
X133228595Y-74638342D01*
X133228595Y-74638342D02*
X133276214Y-74733580D01*
X133276214Y-74733580D02*
X133323833Y-74781200D01*
X133323833Y-74781200D02*
X133419071Y-74828819D01*
X133419071Y-74828819D02*
X133609547Y-74828819D01*
X133609547Y-74828819D02*
X133704785Y-74781200D01*
X133704785Y-74781200D02*
X133752404Y-74733580D01*
X133752404Y-74733580D02*
X133800023Y-74638342D01*
X133800023Y-74638342D02*
X133800023Y-73828819D01*
X134228595Y-73924057D02*
X134276214Y-73876438D01*
X134276214Y-73876438D02*
X134371452Y-73828819D01*
X134371452Y-73828819D02*
X134609547Y-73828819D01*
X134609547Y-73828819D02*
X134704785Y-73876438D01*
X134704785Y-73876438D02*
X134752404Y-73924057D01*
X134752404Y-73924057D02*
X134800023Y-74019295D01*
X134800023Y-74019295D02*
X134800023Y-74114533D01*
X134800023Y-74114533D02*
X134752404Y-74257390D01*
X134752404Y-74257390D02*
X134180976Y-74828819D01*
X134180976Y-74828819D02*
X134800023Y-74828819D01*
D11*
X147569285Y-85235371D02*
X147369285Y-84949657D01*
X147226428Y-85235371D02*
X147226428Y-84635371D01*
X147226428Y-84635371D02*
X147454999Y-84635371D01*
X147454999Y-84635371D02*
X147512142Y-84663942D01*
X147512142Y-84663942D02*
X147540713Y-84692514D01*
X147540713Y-84692514D02*
X147569285Y-84749657D01*
X147569285Y-84749657D02*
X147569285Y-84835371D01*
X147569285Y-84835371D02*
X147540713Y-84892514D01*
X147540713Y-84892514D02*
X147512142Y-84921085D01*
X147512142Y-84921085D02*
X147454999Y-84949657D01*
X147454999Y-84949657D02*
X147226428Y-84949657D01*
X148140713Y-85235371D02*
X147797856Y-85235371D01*
X147969285Y-85235371D02*
X147969285Y-84635371D01*
X147969285Y-84635371D02*
X147912142Y-84721085D01*
X147912142Y-84721085D02*
X147854999Y-84778228D01*
X147854999Y-84778228D02*
X147797856Y-84806800D01*
X148683571Y-84635371D02*
X148397857Y-84635371D01*
X148397857Y-84635371D02*
X148369285Y-84921085D01*
X148369285Y-84921085D02*
X148397857Y-84892514D01*
X148397857Y-84892514D02*
X148455000Y-84863942D01*
X148455000Y-84863942D02*
X148597857Y-84863942D01*
X148597857Y-84863942D02*
X148655000Y-84892514D01*
X148655000Y-84892514D02*
X148683571Y-84921085D01*
X148683571Y-84921085D02*
X148712142Y-84978228D01*
X148712142Y-84978228D02*
X148712142Y-85121085D01*
X148712142Y-85121085D02*
X148683571Y-85178228D01*
X148683571Y-85178228D02*
X148655000Y-85206800D01*
X148655000Y-85206800D02*
X148597857Y-85235371D01*
X148597857Y-85235371D02*
X148455000Y-85235371D01*
X148455000Y-85235371D02*
X148397857Y-85206800D01*
X148397857Y-85206800D02*
X148369285Y-85178228D01*
D10*
X125158667Y-97689200D02*
X125301524Y-97736819D01*
X125301524Y-97736819D02*
X125539619Y-97736819D01*
X125539619Y-97736819D02*
X125634857Y-97689200D01*
X125634857Y-97689200D02*
X125682476Y-97641580D01*
X125682476Y-97641580D02*
X125730095Y-97546342D01*
X125730095Y-97546342D02*
X125730095Y-97451104D01*
X125730095Y-97451104D02*
X125682476Y-97355866D01*
X125682476Y-97355866D02*
X125634857Y-97308247D01*
X125634857Y-97308247D02*
X125539619Y-97260628D01*
X125539619Y-97260628D02*
X125349143Y-97213009D01*
X125349143Y-97213009D02*
X125253905Y-97165390D01*
X125253905Y-97165390D02*
X125206286Y-97117771D01*
X125206286Y-97117771D02*
X125158667Y-97022533D01*
X125158667Y-97022533D02*
X125158667Y-96927295D01*
X125158667Y-96927295D02*
X125206286Y-96832057D01*
X125206286Y-96832057D02*
X125253905Y-96784438D01*
X125253905Y-96784438D02*
X125349143Y-96736819D01*
X125349143Y-96736819D02*
X125587238Y-96736819D01*
X125587238Y-96736819D02*
X125730095Y-96784438D01*
X126063429Y-96736819D02*
X126301524Y-97736819D01*
X126301524Y-97736819D02*
X126492000Y-97022533D01*
X126492000Y-97022533D02*
X126682476Y-97736819D01*
X126682476Y-97736819D02*
X126920572Y-96736819D01*
X127253905Y-96832057D02*
X127301524Y-96784438D01*
X127301524Y-96784438D02*
X127396762Y-96736819D01*
X127396762Y-96736819D02*
X127634857Y-96736819D01*
X127634857Y-96736819D02*
X127730095Y-96784438D01*
X127730095Y-96784438D02*
X127777714Y-96832057D01*
X127777714Y-96832057D02*
X127825333Y-96927295D01*
X127825333Y-96927295D02*
X127825333Y-97022533D01*
X127825333Y-97022533D02*
X127777714Y-97165390D01*
X127777714Y-97165390D02*
X127206286Y-97736819D01*
X127206286Y-97736819D02*
X127825333Y-97736819D01*
X134820819Y-94400666D02*
X134344628Y-94733999D01*
X134820819Y-94972094D02*
X133820819Y-94972094D01*
X133820819Y-94972094D02*
X133820819Y-94591142D01*
X133820819Y-94591142D02*
X133868438Y-94495904D01*
X133868438Y-94495904D02*
X133916057Y-94448285D01*
X133916057Y-94448285D02*
X134011295Y-94400666D01*
X134011295Y-94400666D02*
X134154152Y-94400666D01*
X134154152Y-94400666D02*
X134249390Y-94448285D01*
X134249390Y-94448285D02*
X134297009Y-94495904D01*
X134297009Y-94495904D02*
X134344628Y-94591142D01*
X134344628Y-94591142D02*
X134344628Y-94972094D01*
X133916057Y-94019713D02*
X133868438Y-93972094D01*
X133868438Y-93972094D02*
X133820819Y-93876856D01*
X133820819Y-93876856D02*
X133820819Y-93638761D01*
X133820819Y-93638761D02*
X133868438Y-93543523D01*
X133868438Y-93543523D02*
X133916057Y-93495904D01*
X133916057Y-93495904D02*
X134011295Y-93448285D01*
X134011295Y-93448285D02*
X134106533Y-93448285D01*
X134106533Y-93448285D02*
X134249390Y-93495904D01*
X134249390Y-93495904D02*
X134820819Y-94067332D01*
X134820819Y-94067332D02*
X134820819Y-93448285D01*
X138757819Y-84081857D02*
X138281628Y-84415190D01*
X138757819Y-84653285D02*
X137757819Y-84653285D01*
X137757819Y-84653285D02*
X137757819Y-84272333D01*
X137757819Y-84272333D02*
X137805438Y-84177095D01*
X137805438Y-84177095D02*
X137853057Y-84129476D01*
X137853057Y-84129476D02*
X137948295Y-84081857D01*
X137948295Y-84081857D02*
X138091152Y-84081857D01*
X138091152Y-84081857D02*
X138186390Y-84129476D01*
X138186390Y-84129476D02*
X138234009Y-84177095D01*
X138234009Y-84177095D02*
X138281628Y-84272333D01*
X138281628Y-84272333D02*
X138281628Y-84653285D01*
X138757819Y-83129476D02*
X138757819Y-83700904D01*
X138757819Y-83415190D02*
X137757819Y-83415190D01*
X137757819Y-83415190D02*
X137900676Y-83510428D01*
X137900676Y-83510428D02*
X137995914Y-83605666D01*
X137995914Y-83605666D02*
X138043533Y-83700904D01*
X137853057Y-82748523D02*
X137805438Y-82700904D01*
X137805438Y-82700904D02*
X137757819Y-82605666D01*
X137757819Y-82605666D02*
X137757819Y-82367571D01*
X137757819Y-82367571D02*
X137805438Y-82272333D01*
X137805438Y-82272333D02*
X137853057Y-82224714D01*
X137853057Y-82224714D02*
X137948295Y-82177095D01*
X137948295Y-82177095D02*
X138043533Y-82177095D01*
X138043533Y-82177095D02*
X138186390Y-82224714D01*
X138186390Y-82224714D02*
X138757819Y-82796142D01*
X138757819Y-82796142D02*
X138757819Y-82177095D01*
X134199333Y-92562819D02*
X133866000Y-92086628D01*
X133627905Y-92562819D02*
X133627905Y-91562819D01*
X133627905Y-91562819D02*
X134008857Y-91562819D01*
X134008857Y-91562819D02*
X134104095Y-91610438D01*
X134104095Y-91610438D02*
X134151714Y-91658057D01*
X134151714Y-91658057D02*
X134199333Y-91753295D01*
X134199333Y-91753295D02*
X134199333Y-91896152D01*
X134199333Y-91896152D02*
X134151714Y-91991390D01*
X134151714Y-91991390D02*
X134104095Y-92039009D01*
X134104095Y-92039009D02*
X134008857Y-92086628D01*
X134008857Y-92086628D02*
X133627905Y-92086628D01*
X134532667Y-91562819D02*
X135199333Y-91562819D01*
X135199333Y-91562819D02*
X134770762Y-92562819D01*
X143248142Y-87227580D02*
X143200523Y-87275200D01*
X143200523Y-87275200D02*
X143057666Y-87322819D01*
X143057666Y-87322819D02*
X142962428Y-87322819D01*
X142962428Y-87322819D02*
X142819571Y-87275200D01*
X142819571Y-87275200D02*
X142724333Y-87179961D01*
X142724333Y-87179961D02*
X142676714Y-87084723D01*
X142676714Y-87084723D02*
X142629095Y-86894247D01*
X142629095Y-86894247D02*
X142629095Y-86751390D01*
X142629095Y-86751390D02*
X142676714Y-86560914D01*
X142676714Y-86560914D02*
X142724333Y-86465676D01*
X142724333Y-86465676D02*
X142819571Y-86370438D01*
X142819571Y-86370438D02*
X142962428Y-86322819D01*
X142962428Y-86322819D02*
X143057666Y-86322819D01*
X143057666Y-86322819D02*
X143200523Y-86370438D01*
X143200523Y-86370438D02*
X143248142Y-86418057D01*
X144200523Y-87322819D02*
X143629095Y-87322819D01*
X143914809Y-87322819D02*
X143914809Y-86322819D01*
X143914809Y-86322819D02*
X143819571Y-86465676D01*
X143819571Y-86465676D02*
X143724333Y-86560914D01*
X143724333Y-86560914D02*
X143629095Y-86608533D01*
X144819571Y-86322819D02*
X144914809Y-86322819D01*
X144914809Y-86322819D02*
X145010047Y-86370438D01*
X145010047Y-86370438D02*
X145057666Y-86418057D01*
X145057666Y-86418057D02*
X145105285Y-86513295D01*
X145105285Y-86513295D02*
X145152904Y-86703771D01*
X145152904Y-86703771D02*
X145152904Y-86941866D01*
X145152904Y-86941866D02*
X145105285Y-87132342D01*
X145105285Y-87132342D02*
X145057666Y-87227580D01*
X145057666Y-87227580D02*
X145010047Y-87275200D01*
X145010047Y-87275200D02*
X144914809Y-87322819D01*
X144914809Y-87322819D02*
X144819571Y-87322819D01*
X144819571Y-87322819D02*
X144724333Y-87275200D01*
X144724333Y-87275200D02*
X144676714Y-87227580D01*
X144676714Y-87227580D02*
X144629095Y-87132342D01*
X144629095Y-87132342D02*
X144581476Y-86941866D01*
X144581476Y-86941866D02*
X144581476Y-86703771D01*
X144581476Y-86703771D02*
X144629095Y-86513295D01*
X144629095Y-86513295D02*
X144676714Y-86418057D01*
X144676714Y-86418057D02*
X144724333Y-86370438D01*
X144724333Y-86370438D02*
X144819571Y-86322819D01*
X136122580Y-69635666D02*
X136170200Y-69683285D01*
X136170200Y-69683285D02*
X136217819Y-69826142D01*
X136217819Y-69826142D02*
X136217819Y-69921380D01*
X136217819Y-69921380D02*
X136170200Y-70064237D01*
X136170200Y-70064237D02*
X136074961Y-70159475D01*
X136074961Y-70159475D02*
X135979723Y-70207094D01*
X135979723Y-70207094D02*
X135789247Y-70254713D01*
X135789247Y-70254713D02*
X135646390Y-70254713D01*
X135646390Y-70254713D02*
X135455914Y-70207094D01*
X135455914Y-70207094D02*
X135360676Y-70159475D01*
X135360676Y-70159475D02*
X135265438Y-70064237D01*
X135265438Y-70064237D02*
X135217819Y-69921380D01*
X135217819Y-69921380D02*
X135217819Y-69826142D01*
X135217819Y-69826142D02*
X135265438Y-69683285D01*
X135265438Y-69683285D02*
X135313057Y-69635666D01*
X135217819Y-68778523D02*
X135217819Y-68968999D01*
X135217819Y-68968999D02*
X135265438Y-69064237D01*
X135265438Y-69064237D02*
X135313057Y-69111856D01*
X135313057Y-69111856D02*
X135455914Y-69207094D01*
X135455914Y-69207094D02*
X135646390Y-69254713D01*
X135646390Y-69254713D02*
X136027342Y-69254713D01*
X136027342Y-69254713D02*
X136122580Y-69207094D01*
X136122580Y-69207094D02*
X136170200Y-69159475D01*
X136170200Y-69159475D02*
X136217819Y-69064237D01*
X136217819Y-69064237D02*
X136217819Y-68873761D01*
X136217819Y-68873761D02*
X136170200Y-68778523D01*
X136170200Y-68778523D02*
X136122580Y-68730904D01*
X136122580Y-68730904D02*
X136027342Y-68683285D01*
X136027342Y-68683285D02*
X135789247Y-68683285D01*
X135789247Y-68683285D02*
X135694009Y-68730904D01*
X135694009Y-68730904D02*
X135646390Y-68778523D01*
X135646390Y-68778523D02*
X135598771Y-68873761D01*
X135598771Y-68873761D02*
X135598771Y-69064237D01*
X135598771Y-69064237D02*
X135646390Y-69159475D01*
X135646390Y-69159475D02*
X135694009Y-69207094D01*
X135694009Y-69207094D02*
X135789247Y-69254713D01*
X145661142Y-100884819D02*
X145327809Y-100408628D01*
X145089714Y-100884819D02*
X145089714Y-99884819D01*
X145089714Y-99884819D02*
X145470666Y-99884819D01*
X145470666Y-99884819D02*
X145565904Y-99932438D01*
X145565904Y-99932438D02*
X145613523Y-99980057D01*
X145613523Y-99980057D02*
X145661142Y-100075295D01*
X145661142Y-100075295D02*
X145661142Y-100218152D01*
X145661142Y-100218152D02*
X145613523Y-100313390D01*
X145613523Y-100313390D02*
X145565904Y-100361009D01*
X145565904Y-100361009D02*
X145470666Y-100408628D01*
X145470666Y-100408628D02*
X145089714Y-100408628D01*
X146613523Y-100884819D02*
X146042095Y-100884819D01*
X146327809Y-100884819D02*
X146327809Y-99884819D01*
X146327809Y-99884819D02*
X146232571Y-100027676D01*
X146232571Y-100027676D02*
X146137333Y-100122914D01*
X146137333Y-100122914D02*
X146042095Y-100170533D01*
X146946857Y-99884819D02*
X147613523Y-99884819D01*
X147613523Y-99884819D02*
X147184952Y-100884819D01*
X143205819Y-95416666D02*
X142729628Y-95749999D01*
X143205819Y-95988094D02*
X142205819Y-95988094D01*
X142205819Y-95988094D02*
X142205819Y-95607142D01*
X142205819Y-95607142D02*
X142253438Y-95511904D01*
X142253438Y-95511904D02*
X142301057Y-95464285D01*
X142301057Y-95464285D02*
X142396295Y-95416666D01*
X142396295Y-95416666D02*
X142539152Y-95416666D01*
X142539152Y-95416666D02*
X142634390Y-95464285D01*
X142634390Y-95464285D02*
X142682009Y-95511904D01*
X142682009Y-95511904D02*
X142729628Y-95607142D01*
X142729628Y-95607142D02*
X142729628Y-95988094D01*
X143205819Y-94464285D02*
X143205819Y-95035713D01*
X143205819Y-94749999D02*
X142205819Y-94749999D01*
X142205819Y-94749999D02*
X142348676Y-94845237D01*
X142348676Y-94845237D02*
X142443914Y-94940475D01*
X142443914Y-94940475D02*
X142491533Y-95035713D01*
D11*
X147696285Y-86505371D02*
X147496285Y-86219657D01*
X147353428Y-86505371D02*
X147353428Y-85905371D01*
X147353428Y-85905371D02*
X147581999Y-85905371D01*
X147581999Y-85905371D02*
X147639142Y-85933942D01*
X147639142Y-85933942D02*
X147667713Y-85962514D01*
X147667713Y-85962514D02*
X147696285Y-86019657D01*
X147696285Y-86019657D02*
X147696285Y-86105371D01*
X147696285Y-86105371D02*
X147667713Y-86162514D01*
X147667713Y-86162514D02*
X147639142Y-86191085D01*
X147639142Y-86191085D02*
X147581999Y-86219657D01*
X147581999Y-86219657D02*
X147353428Y-86219657D01*
X148267713Y-86505371D02*
X147924856Y-86505371D01*
X148096285Y-86505371D02*
X148096285Y-85905371D01*
X148096285Y-85905371D02*
X148039142Y-85991085D01*
X148039142Y-85991085D02*
X147981999Y-86048228D01*
X147981999Y-86048228D02*
X147924856Y-86076800D01*
X148782000Y-86105371D02*
X148782000Y-86505371D01*
X148639142Y-85876800D02*
X148496285Y-86305371D01*
X148496285Y-86305371D02*
X148867714Y-86305371D01*
D10*
X132503057Y-82269738D02*
X132455438Y-82364976D01*
X132455438Y-82364976D02*
X132360200Y-82460214D01*
X132360200Y-82460214D02*
X132217342Y-82603071D01*
X132217342Y-82603071D02*
X132169723Y-82698309D01*
X132169723Y-82698309D02*
X132169723Y-82793547D01*
X132407819Y-82745928D02*
X132360200Y-82841166D01*
X132360200Y-82841166D02*
X132264961Y-82936404D01*
X132264961Y-82936404D02*
X132074485Y-82984023D01*
X132074485Y-82984023D02*
X131741152Y-82984023D01*
X131741152Y-82984023D02*
X131550676Y-82936404D01*
X131550676Y-82936404D02*
X131455438Y-82841166D01*
X131455438Y-82841166D02*
X131407819Y-82745928D01*
X131407819Y-82745928D02*
X131407819Y-82555452D01*
X131407819Y-82555452D02*
X131455438Y-82460214D01*
X131455438Y-82460214D02*
X131550676Y-82364976D01*
X131550676Y-82364976D02*
X131741152Y-82317357D01*
X131741152Y-82317357D02*
X132074485Y-82317357D01*
X132074485Y-82317357D02*
X132264961Y-82364976D01*
X132264961Y-82364976D02*
X132360200Y-82460214D01*
X132360200Y-82460214D02*
X132407819Y-82555452D01*
X132407819Y-82555452D02*
X132407819Y-82745928D01*
X131503057Y-81936404D02*
X131455438Y-81888785D01*
X131455438Y-81888785D02*
X131407819Y-81793547D01*
X131407819Y-81793547D02*
X131407819Y-81555452D01*
X131407819Y-81555452D02*
X131455438Y-81460214D01*
X131455438Y-81460214D02*
X131503057Y-81412595D01*
X131503057Y-81412595D02*
X131598295Y-81364976D01*
X131598295Y-81364976D02*
X131693533Y-81364976D01*
X131693533Y-81364976D02*
X131836390Y-81412595D01*
X131836390Y-81412595D02*
X132407819Y-81984023D01*
X132407819Y-81984023D02*
X132407819Y-81364976D01*
D11*
X135900333Y-72708633D02*
X135667000Y-72375300D01*
X135500333Y-72708633D02*
X135500333Y-72008633D01*
X135500333Y-72008633D02*
X135767000Y-72008633D01*
X135767000Y-72008633D02*
X135833667Y-72041966D01*
X135833667Y-72041966D02*
X135867000Y-72075300D01*
X135867000Y-72075300D02*
X135900333Y-72141966D01*
X135900333Y-72141966D02*
X135900333Y-72241966D01*
X135900333Y-72241966D02*
X135867000Y-72308633D01*
X135867000Y-72308633D02*
X135833667Y-72341966D01*
X135833667Y-72341966D02*
X135767000Y-72375300D01*
X135767000Y-72375300D02*
X135500333Y-72375300D01*
X136233667Y-72708633D02*
X136367000Y-72708633D01*
X136367000Y-72708633D02*
X136433667Y-72675300D01*
X136433667Y-72675300D02*
X136467000Y-72641966D01*
X136467000Y-72641966D02*
X136533667Y-72541966D01*
X136533667Y-72541966D02*
X136567000Y-72408633D01*
X136567000Y-72408633D02*
X136567000Y-72141966D01*
X136567000Y-72141966D02*
X136533667Y-72075300D01*
X136533667Y-72075300D02*
X136500333Y-72041966D01*
X136500333Y-72041966D02*
X136433667Y-72008633D01*
X136433667Y-72008633D02*
X136300333Y-72008633D01*
X136300333Y-72008633D02*
X136233667Y-72041966D01*
X136233667Y-72041966D02*
X136200333Y-72075300D01*
X136200333Y-72075300D02*
X136167000Y-72141966D01*
X136167000Y-72141966D02*
X136167000Y-72308633D01*
X136167000Y-72308633D02*
X136200333Y-72375300D01*
X136200333Y-72375300D02*
X136233667Y-72408633D01*
X136233667Y-72408633D02*
X136300333Y-72441966D01*
X136300333Y-72441966D02*
X136433667Y-72441966D01*
X136433667Y-72441966D02*
X136500333Y-72408633D01*
X136500333Y-72408633D02*
X136533667Y-72375300D01*
X136533667Y-72375300D02*
X136567000Y-72308633D01*
D10*
X148042333Y-88624580D02*
X147994714Y-88672200D01*
X147994714Y-88672200D02*
X147851857Y-88719819D01*
X147851857Y-88719819D02*
X147756619Y-88719819D01*
X147756619Y-88719819D02*
X147613762Y-88672200D01*
X147613762Y-88672200D02*
X147518524Y-88576961D01*
X147518524Y-88576961D02*
X147470905Y-88481723D01*
X147470905Y-88481723D02*
X147423286Y-88291247D01*
X147423286Y-88291247D02*
X147423286Y-88148390D01*
X147423286Y-88148390D02*
X147470905Y-87957914D01*
X147470905Y-87957914D02*
X147518524Y-87862676D01*
X147518524Y-87862676D02*
X147613762Y-87767438D01*
X147613762Y-87767438D02*
X147756619Y-87719819D01*
X147756619Y-87719819D02*
X147851857Y-87719819D01*
X147851857Y-87719819D02*
X147994714Y-87767438D01*
X147994714Y-87767438D02*
X148042333Y-87815057D01*
X148518524Y-88719819D02*
X148709000Y-88719819D01*
X148709000Y-88719819D02*
X148804238Y-88672200D01*
X148804238Y-88672200D02*
X148851857Y-88624580D01*
X148851857Y-88624580D02*
X148947095Y-88481723D01*
X148947095Y-88481723D02*
X148994714Y-88291247D01*
X148994714Y-88291247D02*
X148994714Y-87910295D01*
X148994714Y-87910295D02*
X148947095Y-87815057D01*
X148947095Y-87815057D02*
X148899476Y-87767438D01*
X148899476Y-87767438D02*
X148804238Y-87719819D01*
X148804238Y-87719819D02*
X148613762Y-87719819D01*
X148613762Y-87719819D02*
X148518524Y-87767438D01*
X148518524Y-87767438D02*
X148470905Y-87815057D01*
X148470905Y-87815057D02*
X148423286Y-87910295D01*
X148423286Y-87910295D02*
X148423286Y-88148390D01*
X148423286Y-88148390D02*
X148470905Y-88243628D01*
X148470905Y-88243628D02*
X148518524Y-88291247D01*
X148518524Y-88291247D02*
X148613762Y-88338866D01*
X148613762Y-88338866D02*
X148804238Y-88338866D01*
X148804238Y-88338866D02*
X148899476Y-88291247D01*
X148899476Y-88291247D02*
X148947095Y-88243628D01*
X148947095Y-88243628D02*
X148994714Y-88148390D01*
X141710580Y-89066666D02*
X141758200Y-89114285D01*
X141758200Y-89114285D02*
X141805819Y-89257142D01*
X141805819Y-89257142D02*
X141805819Y-89352380D01*
X141805819Y-89352380D02*
X141758200Y-89495237D01*
X141758200Y-89495237D02*
X141662961Y-89590475D01*
X141662961Y-89590475D02*
X141567723Y-89638094D01*
X141567723Y-89638094D02*
X141377247Y-89685713D01*
X141377247Y-89685713D02*
X141234390Y-89685713D01*
X141234390Y-89685713D02*
X141043914Y-89638094D01*
X141043914Y-89638094D02*
X140948676Y-89590475D01*
X140948676Y-89590475D02*
X140853438Y-89495237D01*
X140853438Y-89495237D02*
X140805819Y-89352380D01*
X140805819Y-89352380D02*
X140805819Y-89257142D01*
X140805819Y-89257142D02*
X140853438Y-89114285D01*
X140853438Y-89114285D02*
X140901057Y-89066666D01*
X140901057Y-88685713D02*
X140853438Y-88638094D01*
X140853438Y-88638094D02*
X140805819Y-88542856D01*
X140805819Y-88542856D02*
X140805819Y-88304761D01*
X140805819Y-88304761D02*
X140853438Y-88209523D01*
X140853438Y-88209523D02*
X140901057Y-88161904D01*
X140901057Y-88161904D02*
X140996295Y-88114285D01*
X140996295Y-88114285D02*
X141091533Y-88114285D01*
X141091533Y-88114285D02*
X141234390Y-88161904D01*
X141234390Y-88161904D02*
X141805819Y-88733332D01*
X141805819Y-88733332D02*
X141805819Y-88114285D01*
X135628142Y-65351819D02*
X135294809Y-64875628D01*
X135056714Y-65351819D02*
X135056714Y-64351819D01*
X135056714Y-64351819D02*
X135437666Y-64351819D01*
X135437666Y-64351819D02*
X135532904Y-64399438D01*
X135532904Y-64399438D02*
X135580523Y-64447057D01*
X135580523Y-64447057D02*
X135628142Y-64542295D01*
X135628142Y-64542295D02*
X135628142Y-64685152D01*
X135628142Y-64685152D02*
X135580523Y-64780390D01*
X135580523Y-64780390D02*
X135532904Y-64828009D01*
X135532904Y-64828009D02*
X135437666Y-64875628D01*
X135437666Y-64875628D02*
X135056714Y-64875628D01*
X136580523Y-65351819D02*
X136009095Y-65351819D01*
X136294809Y-65351819D02*
X136294809Y-64351819D01*
X136294809Y-64351819D02*
X136199571Y-64494676D01*
X136199571Y-64494676D02*
X136104333Y-64589914D01*
X136104333Y-64589914D02*
X136009095Y-64637533D01*
X137532904Y-65351819D02*
X136961476Y-65351819D01*
X137247190Y-65351819D02*
X137247190Y-64351819D01*
X137247190Y-64351819D02*
X137151952Y-64494676D01*
X137151952Y-64494676D02*
X137056714Y-64589914D01*
X137056714Y-64589914D02*
X136961476Y-64637533D01*
X138549142Y-70558819D02*
X138215809Y-70082628D01*
X137977714Y-70558819D02*
X137977714Y-69558819D01*
X137977714Y-69558819D02*
X138358666Y-69558819D01*
X138358666Y-69558819D02*
X138453904Y-69606438D01*
X138453904Y-69606438D02*
X138501523Y-69654057D01*
X138501523Y-69654057D02*
X138549142Y-69749295D01*
X138549142Y-69749295D02*
X138549142Y-69892152D01*
X138549142Y-69892152D02*
X138501523Y-69987390D01*
X138501523Y-69987390D02*
X138453904Y-70035009D01*
X138453904Y-70035009D02*
X138358666Y-70082628D01*
X138358666Y-70082628D02*
X137977714Y-70082628D01*
X139501523Y-70558819D02*
X138930095Y-70558819D01*
X139215809Y-70558819D02*
X139215809Y-69558819D01*
X139215809Y-69558819D02*
X139120571Y-69701676D01*
X139120571Y-69701676D02*
X139025333Y-69796914D01*
X139025333Y-69796914D02*
X138930095Y-69844533D01*
X139834857Y-69558819D02*
X140453904Y-69558819D01*
X140453904Y-69558819D02*
X140120571Y-69939771D01*
X140120571Y-69939771D02*
X140263428Y-69939771D01*
X140263428Y-69939771D02*
X140358666Y-69987390D01*
X140358666Y-69987390D02*
X140406285Y-70035009D01*
X140406285Y-70035009D02*
X140453904Y-70130247D01*
X140453904Y-70130247D02*
X140453904Y-70368342D01*
X140453904Y-70368342D02*
X140406285Y-70463580D01*
X140406285Y-70463580D02*
X140358666Y-70511200D01*
X140358666Y-70511200D02*
X140263428Y-70558819D01*
X140263428Y-70558819D02*
X139977714Y-70558819D01*
X139977714Y-70558819D02*
X139882476Y-70511200D01*
X139882476Y-70511200D02*
X139834857Y-70463580D01*
X150050667Y-98451200D02*
X150193524Y-98498819D01*
X150193524Y-98498819D02*
X150431619Y-98498819D01*
X150431619Y-98498819D02*
X150526857Y-98451200D01*
X150526857Y-98451200D02*
X150574476Y-98403580D01*
X150574476Y-98403580D02*
X150622095Y-98308342D01*
X150622095Y-98308342D02*
X150622095Y-98213104D01*
X150622095Y-98213104D02*
X150574476Y-98117866D01*
X150574476Y-98117866D02*
X150526857Y-98070247D01*
X150526857Y-98070247D02*
X150431619Y-98022628D01*
X150431619Y-98022628D02*
X150241143Y-97975009D01*
X150241143Y-97975009D02*
X150145905Y-97927390D01*
X150145905Y-97927390D02*
X150098286Y-97879771D01*
X150098286Y-97879771D02*
X150050667Y-97784533D01*
X150050667Y-97784533D02*
X150050667Y-97689295D01*
X150050667Y-97689295D02*
X150098286Y-97594057D01*
X150098286Y-97594057D02*
X150145905Y-97546438D01*
X150145905Y-97546438D02*
X150241143Y-97498819D01*
X150241143Y-97498819D02*
X150479238Y-97498819D01*
X150479238Y-97498819D02*
X150622095Y-97546438D01*
X150955429Y-97498819D02*
X151193524Y-98498819D01*
X151193524Y-98498819D02*
X151384000Y-97784533D01*
X151384000Y-97784533D02*
X151574476Y-98498819D01*
X151574476Y-98498819D02*
X151812572Y-97498819D01*
X152717333Y-98498819D02*
X152145905Y-98498819D01*
X152431619Y-98498819D02*
X152431619Y-97498819D01*
X152431619Y-97498819D02*
X152336381Y-97641676D01*
X152336381Y-97641676D02*
X152241143Y-97736914D01*
X152241143Y-97736914D02*
X152145905Y-97784533D01*
X136741819Y-87629904D02*
X137551342Y-87629904D01*
X137551342Y-87629904D02*
X137646580Y-87582285D01*
X137646580Y-87582285D02*
X137694200Y-87534666D01*
X137694200Y-87534666D02*
X137741819Y-87439428D01*
X137741819Y-87439428D02*
X137741819Y-87248952D01*
X137741819Y-87248952D02*
X137694200Y-87153714D01*
X137694200Y-87153714D02*
X137646580Y-87106095D01*
X137646580Y-87106095D02*
X137551342Y-87058476D01*
X137551342Y-87058476D02*
X136741819Y-87058476D01*
X137075152Y-86153714D02*
X137741819Y-86153714D01*
X136694200Y-86391809D02*
X137408485Y-86629904D01*
X137408485Y-86629904D02*
X137408485Y-86010857D01*
X130122819Y-88192594D02*
X129122819Y-88192594D01*
X129122819Y-88192594D02*
X129122819Y-87954499D01*
X129122819Y-87954499D02*
X129170438Y-87811642D01*
X129170438Y-87811642D02*
X129265676Y-87716404D01*
X129265676Y-87716404D02*
X129360914Y-87668785D01*
X129360914Y-87668785D02*
X129551390Y-87621166D01*
X129551390Y-87621166D02*
X129694247Y-87621166D01*
X129694247Y-87621166D02*
X129884723Y-87668785D01*
X129884723Y-87668785D02*
X129979961Y-87716404D01*
X129979961Y-87716404D02*
X130075200Y-87811642D01*
X130075200Y-87811642D02*
X130122819Y-87954499D01*
X130122819Y-87954499D02*
X130122819Y-88192594D01*
X129218057Y-87240213D02*
X129170438Y-87192594D01*
X129170438Y-87192594D02*
X129122819Y-87097356D01*
X129122819Y-87097356D02*
X129122819Y-86859261D01*
X129122819Y-86859261D02*
X129170438Y-86764023D01*
X129170438Y-86764023D02*
X129218057Y-86716404D01*
X129218057Y-86716404D02*
X129313295Y-86668785D01*
X129313295Y-86668785D02*
X129408533Y-86668785D01*
X129408533Y-86668785D02*
X129551390Y-86716404D01*
X129551390Y-86716404D02*
X130122819Y-87287832D01*
X130122819Y-87287832D02*
X130122819Y-86668785D01*
X142875095Y-69558819D02*
X142875095Y-70368342D01*
X142875095Y-70368342D02*
X142922714Y-70463580D01*
X142922714Y-70463580D02*
X142970333Y-70511200D01*
X142970333Y-70511200D02*
X143065571Y-70558819D01*
X143065571Y-70558819D02*
X143256047Y-70558819D01*
X143256047Y-70558819D02*
X143351285Y-70511200D01*
X143351285Y-70511200D02*
X143398904Y-70463580D01*
X143398904Y-70463580D02*
X143446523Y-70368342D01*
X143446523Y-70368342D02*
X143446523Y-69558819D01*
X143827476Y-69558819D02*
X144446523Y-69558819D01*
X144446523Y-69558819D02*
X144113190Y-69939771D01*
X144113190Y-69939771D02*
X144256047Y-69939771D01*
X144256047Y-69939771D02*
X144351285Y-69987390D01*
X144351285Y-69987390D02*
X144398904Y-70035009D01*
X144398904Y-70035009D02*
X144446523Y-70130247D01*
X144446523Y-70130247D02*
X144446523Y-70368342D01*
X144446523Y-70368342D02*
X144398904Y-70463580D01*
X144398904Y-70463580D02*
X144351285Y-70511200D01*
X144351285Y-70511200D02*
X144256047Y-70558819D01*
X144256047Y-70558819D02*
X143970333Y-70558819D01*
X143970333Y-70558819D02*
X143875095Y-70511200D01*
X143875095Y-70511200D02*
X143827476Y-70463580D01*
X131947595Y-96990819D02*
X131947595Y-97800342D01*
X131947595Y-97800342D02*
X131995214Y-97895580D01*
X131995214Y-97895580D02*
X132042833Y-97943200D01*
X132042833Y-97943200D02*
X132138071Y-97990819D01*
X132138071Y-97990819D02*
X132328547Y-97990819D01*
X132328547Y-97990819D02*
X132423785Y-97943200D01*
X132423785Y-97943200D02*
X132471404Y-97895580D01*
X132471404Y-97895580D02*
X132519023Y-97800342D01*
X132519023Y-97800342D02*
X132519023Y-96990819D01*
X133519023Y-97990819D02*
X132947595Y-97990819D01*
X133233309Y-97990819D02*
X133233309Y-96990819D01*
X133233309Y-96990819D02*
X133138071Y-97133676D01*
X133138071Y-97133676D02*
X133042833Y-97228914D01*
X133042833Y-97228914D02*
X132947595Y-97276533D01*
D11*
X136395966Y-89270666D02*
X136429300Y-89303999D01*
X136429300Y-89303999D02*
X136462633Y-89403999D01*
X136462633Y-89403999D02*
X136462633Y-89470666D01*
X136462633Y-89470666D02*
X136429300Y-89570666D01*
X136429300Y-89570666D02*
X136362633Y-89637333D01*
X136362633Y-89637333D02*
X136295966Y-89670666D01*
X136295966Y-89670666D02*
X136162633Y-89703999D01*
X136162633Y-89703999D02*
X136062633Y-89703999D01*
X136062633Y-89703999D02*
X135929300Y-89670666D01*
X135929300Y-89670666D02*
X135862633Y-89637333D01*
X135862633Y-89637333D02*
X135795966Y-89570666D01*
X135795966Y-89570666D02*
X135762633Y-89470666D01*
X135762633Y-89470666D02*
X135762633Y-89403999D01*
X135762633Y-89403999D02*
X135795966Y-89303999D01*
X135795966Y-89303999D02*
X135829300Y-89270666D01*
X135762633Y-89037333D02*
X135762633Y-88570666D01*
X135762633Y-88570666D02*
X136462633Y-88870666D01*
D10*
X145462666Y-103594819D02*
X145462666Y-104309104D01*
X145462666Y-104309104D02*
X145415047Y-104451961D01*
X145415047Y-104451961D02*
X145319809Y-104547200D01*
X145319809Y-104547200D02*
X145176952Y-104594819D01*
X145176952Y-104594819D02*
X145081714Y-104594819D01*
X146367428Y-103928152D02*
X146367428Y-104594819D01*
X146129333Y-103547200D02*
X145891238Y-104261485D01*
X145891238Y-104261485D02*
X146510285Y-104261485D01*
X142708333Y-77797819D02*
X142375000Y-77321628D01*
X142136905Y-77797819D02*
X142136905Y-76797819D01*
X142136905Y-76797819D02*
X142517857Y-76797819D01*
X142517857Y-76797819D02*
X142613095Y-76845438D01*
X142613095Y-76845438D02*
X142660714Y-76893057D01*
X142660714Y-76893057D02*
X142708333Y-76988295D01*
X142708333Y-76988295D02*
X142708333Y-77131152D01*
X142708333Y-77131152D02*
X142660714Y-77226390D01*
X142660714Y-77226390D02*
X142613095Y-77274009D01*
X142613095Y-77274009D02*
X142517857Y-77321628D01*
X142517857Y-77321628D02*
X142136905Y-77321628D01*
X143565476Y-76797819D02*
X143375000Y-76797819D01*
X143375000Y-76797819D02*
X143279762Y-76845438D01*
X143279762Y-76845438D02*
X143232143Y-76893057D01*
X143232143Y-76893057D02*
X143136905Y-77035914D01*
X143136905Y-77035914D02*
X143089286Y-77226390D01*
X143089286Y-77226390D02*
X143089286Y-77607342D01*
X143089286Y-77607342D02*
X143136905Y-77702580D01*
X143136905Y-77702580D02*
X143184524Y-77750200D01*
X143184524Y-77750200D02*
X143279762Y-77797819D01*
X143279762Y-77797819D02*
X143470238Y-77797819D01*
X143470238Y-77797819D02*
X143565476Y-77750200D01*
X143565476Y-77750200D02*
X143613095Y-77702580D01*
X143613095Y-77702580D02*
X143660714Y-77607342D01*
X143660714Y-77607342D02*
X143660714Y-77369247D01*
X143660714Y-77369247D02*
X143613095Y-77274009D01*
X143613095Y-77274009D02*
X143565476Y-77226390D01*
X143565476Y-77226390D02*
X143470238Y-77178771D01*
X143470238Y-77178771D02*
X143279762Y-77178771D01*
X143279762Y-77178771D02*
X143184524Y-77226390D01*
X143184524Y-77226390D02*
X143136905Y-77274009D01*
X143136905Y-77274009D02*
X143089286Y-77369247D01*
X140930476Y-65478819D02*
X140930476Y-64478819D01*
X140930476Y-64478819D02*
X141263809Y-65193104D01*
X141263809Y-65193104D02*
X141597142Y-64478819D01*
X141597142Y-64478819D02*
X141597142Y-65478819D01*
X142073333Y-65478819D02*
X142073333Y-64478819D01*
X142644761Y-65478819D02*
X142216190Y-64907390D01*
X142644761Y-64478819D02*
X142073333Y-65050247D01*
X143597142Y-65478819D02*
X143025714Y-65478819D01*
X143311428Y-65478819D02*
X143311428Y-64478819D01*
X143311428Y-64478819D02*
X143216190Y-64621676D01*
X143216190Y-64621676D02*
X143120952Y-64716914D01*
X143120952Y-64716914D02*
X143025714Y-64764533D01*
X149983866Y-63791619D02*
X149983866Y-64505904D01*
X149983866Y-64505904D02*
X149936247Y-64648761D01*
X149936247Y-64648761D02*
X149841009Y-64744000D01*
X149841009Y-64744000D02*
X149698152Y-64791619D01*
X149698152Y-64791619D02*
X149602914Y-64791619D01*
X150412438Y-63886857D02*
X150460057Y-63839238D01*
X150460057Y-63839238D02*
X150555295Y-63791619D01*
X150555295Y-63791619D02*
X150793390Y-63791619D01*
X150793390Y-63791619D02*
X150888628Y-63839238D01*
X150888628Y-63839238D02*
X150936247Y-63886857D01*
X150936247Y-63886857D02*
X150983866Y-63982095D01*
X150983866Y-63982095D02*
X150983866Y-64077333D01*
X150983866Y-64077333D02*
X150936247Y-64220190D01*
X150936247Y-64220190D02*
X150364819Y-64791619D01*
X150364819Y-64791619D02*
X150983866Y-64791619D01*
X135723333Y-71606580D02*
X135675714Y-71654200D01*
X135675714Y-71654200D02*
X135532857Y-71701819D01*
X135532857Y-71701819D02*
X135437619Y-71701819D01*
X135437619Y-71701819D02*
X135294762Y-71654200D01*
X135294762Y-71654200D02*
X135199524Y-71558961D01*
X135199524Y-71558961D02*
X135151905Y-71463723D01*
X135151905Y-71463723D02*
X135104286Y-71273247D01*
X135104286Y-71273247D02*
X135104286Y-71130390D01*
X135104286Y-71130390D02*
X135151905Y-70939914D01*
X135151905Y-70939914D02*
X135199524Y-70844676D01*
X135199524Y-70844676D02*
X135294762Y-70749438D01*
X135294762Y-70749438D02*
X135437619Y-70701819D01*
X135437619Y-70701819D02*
X135532857Y-70701819D01*
X135532857Y-70701819D02*
X135675714Y-70749438D01*
X135675714Y-70749438D02*
X135723333Y-70797057D01*
X136294762Y-71130390D02*
X136199524Y-71082771D01*
X136199524Y-71082771D02*
X136151905Y-71035152D01*
X136151905Y-71035152D02*
X136104286Y-70939914D01*
X136104286Y-70939914D02*
X136104286Y-70892295D01*
X136104286Y-70892295D02*
X136151905Y-70797057D01*
X136151905Y-70797057D02*
X136199524Y-70749438D01*
X136199524Y-70749438D02*
X136294762Y-70701819D01*
X136294762Y-70701819D02*
X136485238Y-70701819D01*
X136485238Y-70701819D02*
X136580476Y-70749438D01*
X136580476Y-70749438D02*
X136628095Y-70797057D01*
X136628095Y-70797057D02*
X136675714Y-70892295D01*
X136675714Y-70892295D02*
X136675714Y-70939914D01*
X136675714Y-70939914D02*
X136628095Y-71035152D01*
X136628095Y-71035152D02*
X136580476Y-71082771D01*
X136580476Y-71082771D02*
X136485238Y-71130390D01*
X136485238Y-71130390D02*
X136294762Y-71130390D01*
X136294762Y-71130390D02*
X136199524Y-71178009D01*
X136199524Y-71178009D02*
X136151905Y-71225628D01*
X136151905Y-71225628D02*
X136104286Y-71320866D01*
X136104286Y-71320866D02*
X136104286Y-71511342D01*
X136104286Y-71511342D02*
X136151905Y-71606580D01*
X136151905Y-71606580D02*
X136199524Y-71654200D01*
X136199524Y-71654200D02*
X136294762Y-71701819D01*
X136294762Y-71701819D02*
X136485238Y-71701819D01*
X136485238Y-71701819D02*
X136580476Y-71654200D01*
X136580476Y-71654200D02*
X136628095Y-71606580D01*
X136628095Y-71606580D02*
X136675714Y-71511342D01*
X136675714Y-71511342D02*
X136675714Y-71320866D01*
X136675714Y-71320866D02*
X136628095Y-71225628D01*
X136628095Y-71225628D02*
X136580476Y-71178009D01*
X136580476Y-71178009D02*
X136485238Y-71130390D01*
X130348819Y-76620666D02*
X129872628Y-76953999D01*
X130348819Y-77192094D02*
X129348819Y-77192094D01*
X129348819Y-77192094D02*
X129348819Y-76811142D01*
X129348819Y-76811142D02*
X129396438Y-76715904D01*
X129396438Y-76715904D02*
X129444057Y-76668285D01*
X129444057Y-76668285D02*
X129539295Y-76620666D01*
X129539295Y-76620666D02*
X129682152Y-76620666D01*
X129682152Y-76620666D02*
X129777390Y-76668285D01*
X129777390Y-76668285D02*
X129825009Y-76715904D01*
X129825009Y-76715904D02*
X129872628Y-76811142D01*
X129872628Y-76811142D02*
X129872628Y-77192094D01*
X129682152Y-75763523D02*
X130348819Y-75763523D01*
X129301200Y-76001618D02*
X130015485Y-76239713D01*
X130015485Y-76239713D02*
X130015485Y-75620666D01*
X126920666Y-63791619D02*
X126920666Y-64505904D01*
X126920666Y-64505904D02*
X126873047Y-64648761D01*
X126873047Y-64648761D02*
X126777809Y-64744000D01*
X126777809Y-64744000D02*
X126634952Y-64791619D01*
X126634952Y-64791619D02*
X126539714Y-64791619D01*
X127920666Y-64791619D02*
X127349238Y-64791619D01*
X127634952Y-64791619D02*
X127634952Y-63791619D01*
X127634952Y-63791619D02*
X127539714Y-63934476D01*
X127539714Y-63934476D02*
X127444476Y-64029714D01*
X127444476Y-64029714D02*
X127349238Y-64077333D01*
D12*
%TO.C,C5*%
X137052164Y-75078000D02*
X137267836Y-75078000D01*
X137052164Y-75798000D02*
X137267836Y-75798000D01*
%TO.C,C3*%
X136546000Y-67484164D02*
X136546000Y-67699836D01*
X137266000Y-67484164D02*
X137266000Y-67699836D01*
%TO.C,C4*%
X137052164Y-76094000D02*
X137267836Y-76094000D01*
X137052164Y-76814000D02*
X137267836Y-76814000D01*
%TO.C,R16*%
X147475641Y-82678000D02*
X147168359Y-82678000D01*
X147475641Y-83438000D02*
X147168359Y-83438000D01*
%TO.C,C1*%
X135022000Y-96373836D02*
X135022000Y-96158164D01*
X135742000Y-96373836D02*
X135742000Y-96158164D01*
%TO.C,R18*%
X133984000Y-98904359D02*
X133984000Y-99211641D01*
X133224000Y-98904359D02*
X133224000Y-99211641D01*
%TO.C,R8*%
X137057641Y-73788000D02*
X136750359Y-73788000D01*
X137057641Y-74548000D02*
X136750359Y-74548000D01*
%TO.C,Q1*%
X138351500Y-93624000D02*
X137701500Y-93624000D01*
X138351500Y-93624000D02*
X139001500Y-93624000D01*
X138351500Y-96744000D02*
X137701500Y-96744000D01*
X138351500Y-96744000D02*
X139001500Y-96744000D01*
X139754000Y-97024000D02*
X139274000Y-97024000D01*
X139514000Y-96694000D01*
X139754000Y-97024000D01*
G36*
X139754000Y-97024000D02*
G01*
X139274000Y-97024000D01*
X139514000Y-96694000D01*
X139754000Y-97024000D01*
G37*
%TO.C,R10*%
X139828000Y-68426359D02*
X139828000Y-68733641D01*
X140588000Y-68426359D02*
X140588000Y-68733641D01*
%TO.C,J3*%
X124704000Y-98556000D02*
X124704000Y-104676000D01*
X124704000Y-101116000D02*
X129064000Y-101116000D01*
X124704000Y-104676000D02*
X132524000Y-104676000D01*
X126964000Y-99316000D02*
X126964000Y-100316000D01*
X126964000Y-99816000D02*
X124704000Y-99816000D01*
X126964000Y-100316000D02*
X124704000Y-100316000D01*
X126964000Y-100316000D02*
X128564000Y-100316000D01*
X126964000Y-102916000D02*
X128564000Y-102916000D01*
X126964000Y-103916000D02*
X126964000Y-102916000D01*
X128564000Y-99316000D02*
X126964000Y-99316000D01*
X128564000Y-100316000D02*
X128564000Y-99316000D01*
X128564000Y-102916000D02*
X128564000Y-103916000D01*
X128564000Y-103916000D02*
X126964000Y-103916000D01*
X129064000Y-101116000D02*
X129064000Y-102116000D01*
X129064000Y-102116000D02*
X124704000Y-102116000D01*
X130924000Y-98556000D02*
X130924000Y-99476000D01*
X130924000Y-99476000D02*
X132524000Y-99476000D01*
X130924000Y-99756000D02*
X130924000Y-99476000D01*
X130924000Y-99756000D02*
X132139000Y-99756000D01*
X130924000Y-103756000D02*
X130924000Y-103476000D01*
X130924000Y-104676000D02*
X130924000Y-103756000D01*
X132524000Y-98556000D02*
X124704000Y-98556000D01*
X132524000Y-99476000D02*
X132524000Y-98556000D01*
X132524000Y-103756000D02*
X130924000Y-103756000D01*
X132524000Y-104676000D02*
X132524000Y-103756000D01*
%TO.C,D1*%
X138192000Y-92656000D02*
X138192000Y-88646000D01*
X138192000Y-92656000D02*
X140192000Y-92656000D01*
X140192000Y-92656000D02*
X140192000Y-88646000D01*
%TO.C,U6*%
X142524000Y-91318500D02*
X142524000Y-90518500D01*
X142524000Y-91318500D02*
X142524000Y-92118500D01*
X145644000Y-91318500D02*
X145644000Y-90518500D01*
X145644000Y-91318500D02*
X145644000Y-92118500D01*
X142574000Y-92618500D02*
X142244000Y-92858500D01*
X142244000Y-92378500D01*
X142574000Y-92618500D01*
G36*
X142574000Y-92618500D02*
G01*
X142244000Y-92858500D01*
X142244000Y-92378500D01*
X142574000Y-92618500D01*
G37*
%TO.C,U5*%
X142354000Y-81880000D02*
X142854000Y-81880000D01*
X142354000Y-82380000D02*
X142354000Y-81880000D01*
X142354000Y-84700000D02*
X142354000Y-84900000D01*
X142854000Y-85200000D02*
X142604000Y-85200000D01*
X145674000Y-81880000D02*
X145174000Y-81880000D01*
X145674000Y-82380000D02*
X145674000Y-81880000D01*
X145674000Y-84700000D02*
X145674000Y-85200000D01*
X145674000Y-85200000D02*
X145174000Y-85200000D01*
X142354000Y-85200000D02*
X142024000Y-85440000D01*
X142024000Y-84960000D01*
X142354000Y-85200000D01*
G36*
X142354000Y-85200000D02*
G01*
X142024000Y-85440000D01*
X142024000Y-84960000D01*
X142354000Y-85200000D01*
G37*
%TO.C,R5*%
X139114500Y-76470742D02*
X139114500Y-76945258D01*
X140159500Y-76470742D02*
X140159500Y-76945258D01*
%TO.C,R3*%
X130795500Y-90978258D02*
X130795500Y-90503742D01*
X131840500Y-90978258D02*
X131840500Y-90503742D01*
%TO.C,U2*%
X133990500Y-75214000D02*
X133190500Y-75214000D01*
X133990500Y-75214000D02*
X134790500Y-75214000D01*
X133990500Y-78334000D02*
X133190500Y-78334000D01*
X133990500Y-78334000D02*
X134790500Y-78334000D01*
X132690500Y-75264000D02*
X132450500Y-74934000D01*
X132930500Y-74934000D01*
X132690500Y-75264000D01*
G36*
X132690500Y-75264000D02*
G01*
X132450500Y-74934000D01*
X132930500Y-74934000D01*
X132690500Y-75264000D01*
G37*
%TO.C,R15*%
X147166359Y-83694000D02*
X147473641Y-83694000D01*
X147166359Y-84454000D02*
X147473641Y-84454000D01*
%TO.C,SW2*%
X123592000Y-91162000D02*
X123592000Y-92062000D01*
X123802000Y-90962000D02*
X123592000Y-91162000D01*
X123802000Y-92262000D02*
X123592000Y-92062000D01*
X123802000Y-92262000D02*
X125092000Y-92262000D01*
X125092000Y-89512000D02*
X125092000Y-95212000D01*
X125092000Y-90962000D02*
X123802000Y-90962000D01*
X126102000Y-95812000D02*
X126892000Y-95812000D01*
X126892000Y-88912000D02*
X126102000Y-88912000D01*
X127942000Y-90762000D02*
X127942000Y-92462000D01*
X127942000Y-93762000D02*
X127942000Y-93962000D01*
%TO.C,R2*%
X135002000Y-94387641D02*
X135002000Y-94080359D01*
X135762000Y-94387641D02*
X135762000Y-94080359D01*
%TO.C,R12*%
X136526000Y-83465641D02*
X136526000Y-83158359D01*
X137286000Y-83465641D02*
X137286000Y-83158359D01*
%TO.C,R7*%
X134603258Y-90155500D02*
X134128742Y-90155500D01*
X134603258Y-91200500D02*
X134128742Y-91200500D01*
%TO.C,C10*%
X145408000Y-86760164D02*
X145408000Y-86975836D01*
X146128000Y-86760164D02*
X146128000Y-86975836D01*
%TO.C,C6*%
X135530000Y-67512164D02*
X135530000Y-67727836D01*
X136250000Y-67512164D02*
X136250000Y-67727836D01*
%TO.C,R17*%
X146148359Y-101220000D02*
X146455641Y-101220000D01*
X146148359Y-101980000D02*
X146455641Y-101980000D01*
%TO.C,R1*%
X140798500Y-95012742D02*
X140798500Y-95487258D01*
X141843500Y-95012742D02*
X141843500Y-95487258D01*
%TO.C,R14*%
X146432000Y-85751641D02*
X146432000Y-85444359D01*
X147192000Y-85751641D02*
X147192000Y-85444359D01*
%TO.C,Q2*%
X132872000Y-82174500D02*
X132872000Y-81374500D01*
X132872000Y-82174500D02*
X132872000Y-82974500D01*
X135992000Y-82174500D02*
X135992000Y-81374500D01*
X135992000Y-82174500D02*
X135992000Y-82974500D01*
X136272000Y-81114500D02*
X135942000Y-80874500D01*
X136272000Y-80634500D01*
X136272000Y-81114500D01*
G36*
X136272000Y-81114500D02*
G01*
X135942000Y-80874500D01*
X136272000Y-80634500D01*
X136272000Y-81114500D01*
G37*
%TO.C,R9*%
X137059641Y-72772000D02*
X136752359Y-72772000D01*
X137059641Y-73532000D02*
X136752359Y-73532000D01*
%TO.C,C9*%
X147212164Y-86762000D02*
X147427836Y-86762000D01*
X147212164Y-87482000D02*
X147427836Y-87482000D01*
%TO.C,C2*%
X140714000Y-91313580D02*
X140714000Y-91032420D01*
X141734000Y-91313580D02*
X141734000Y-91032420D01*
%TO.C,R11*%
X136551641Y-65660000D02*
X136244359Y-65660000D01*
X136551641Y-66420000D02*
X136244359Y-66420000D01*
%TO.C,R13*%
X138812000Y-68426359D02*
X138812000Y-68733641D01*
X139572000Y-68426359D02*
X139572000Y-68733641D01*
%TO.C,SW1*%
X149934000Y-91250000D02*
X149934000Y-91050000D01*
X149934000Y-94250000D02*
X149934000Y-92550000D01*
X150984000Y-96100000D02*
X151774000Y-96100000D01*
X151774000Y-89200000D02*
X150984000Y-89200000D01*
X152784000Y-94050000D02*
X154074000Y-94050000D01*
X152784000Y-95500000D02*
X152784000Y-89800000D01*
X154074000Y-92750000D02*
X152784000Y-92750000D01*
X154074000Y-92750000D02*
X154284000Y-92950000D01*
X154074000Y-94050000D02*
X154284000Y-93850000D01*
X154284000Y-93850000D02*
X154284000Y-92950000D01*
%TO.C,U4*%
X132872000Y-87254500D02*
X132872000Y-86454500D01*
X132872000Y-87254500D02*
X132872000Y-88054500D01*
X135992000Y-87254500D02*
X135992000Y-86454500D01*
X135992000Y-87254500D02*
X135992000Y-88054500D01*
X136272000Y-86194500D02*
X135942000Y-85954500D01*
X136272000Y-85714500D01*
X136272000Y-86194500D01*
G36*
X136272000Y-86194500D02*
G01*
X135942000Y-85954500D01*
X136272000Y-85714500D01*
X136272000Y-86194500D01*
G37*
%TO.C,D2*%
X130358000Y-86454500D02*
X130358000Y-89139500D01*
X130358000Y-89139500D02*
X132278000Y-89139500D01*
X132278000Y-89139500D02*
X132278000Y-86454500D01*
D10*
%TO.C,U3*%
X139345000Y-70765000D02*
X139345000Y-70990000D01*
X139345000Y-74015000D02*
X139345000Y-73790000D01*
X142595000Y-70765000D02*
X139345000Y-70765000D01*
X142595000Y-70765000D02*
X142595000Y-70990000D01*
X142595000Y-74015000D02*
X139345000Y-74015000D01*
X142595000Y-74015000D02*
X142595000Y-73790000D01*
D12*
X143310000Y-74120000D02*
X142830000Y-74120000D01*
X143070000Y-73790000D01*
X143310000Y-74120000D01*
G36*
X143310000Y-74120000D02*
G01*
X142830000Y-74120000D01*
X143070000Y-73790000D01*
X143310000Y-74120000D01*
G37*
%TO.C,U1*%
X132709500Y-93502000D02*
X131909500Y-93502000D01*
X132709500Y-93502000D02*
X133509500Y-93502000D01*
X132709500Y-96622000D02*
X131909500Y-96622000D01*
X132709500Y-96622000D02*
X133509500Y-96622000D01*
X131409500Y-93552000D02*
X131169500Y-93222000D01*
X131649500Y-93222000D01*
X131409500Y-93552000D01*
G36*
X131409500Y-93552000D02*
G01*
X131169500Y-93222000D01*
X131649500Y-93222000D01*
X131409500Y-93552000D01*
G37*
%TO.C,C7*%
X136546000Y-88499836D02*
X136546000Y-88284164D01*
X137266000Y-88499836D02*
X137266000Y-88284164D01*
%TO.C,J4*%
X134950000Y-98008000D02*
X134950000Y-105268000D01*
X134950000Y-98008000D02*
X136450000Y-98008000D01*
X142950000Y-98008000D02*
X144450000Y-98008000D01*
X144450000Y-98008000D02*
X144450000Y-105268000D01*
%TO.C,R6*%
X142160258Y-75423500D02*
X141685742Y-75423500D01*
X142160258Y-76468500D02*
X141685742Y-76468500D01*
%TO.C,MK1*%
X137767000Y-63648000D02*
X140617000Y-63648000D01*
X137767000Y-67348000D02*
X137767000Y-63648000D01*
X140317000Y-67348000D02*
X137767000Y-67348000D01*
X140617000Y-63648000D02*
X140617000Y-67048000D01*
X140617000Y-67628000D02*
X140617000Y-67348000D01*
X140897000Y-67348000D01*
X140617000Y-67628000D01*
G36*
X140617000Y-67628000D02*
G01*
X140617000Y-67348000D01*
X140897000Y-67348000D01*
X140617000Y-67628000D01*
G37*
%TO.C,J2*%
X148987200Y-68376800D02*
X148987200Y-86216800D01*
X148987200Y-68376800D02*
X151647200Y-68376800D01*
X148987200Y-86216800D02*
X151647200Y-86216800D01*
X150317200Y-65776800D02*
X151647200Y-65776800D01*
X151647200Y-65776800D02*
X151647200Y-67106800D01*
X151647200Y-68376800D02*
X151647200Y-86216800D01*
%TO.C,C8*%
X137054000Y-71735836D02*
X137054000Y-71520164D01*
X137774000Y-71735836D02*
X137774000Y-71520164D01*
%TO.C,R4*%
X130684000Y-76607641D02*
X130684000Y-76300359D01*
X131444000Y-76607641D02*
X131444000Y-76300359D01*
%TO.C,J1*%
X125924000Y-68376800D02*
X125924000Y-86216800D01*
X125924000Y-68376800D02*
X128584000Y-68376800D01*
X125924000Y-86216800D02*
X128584000Y-86216800D01*
X127254000Y-65776800D02*
X128584000Y-65776800D01*
X128584000Y-65776800D02*
X128584000Y-67106800D01*
X128584000Y-68376800D02*
X128584000Y-86216800D01*
%TD*%
M02*
