%TF.GenerationSoftware,KiCad,Pcbnew,9.0.0*%
%TF.CreationDate,2025-05-10T20:39:51+02:00*%
%TF.ProjectId,ESP32CAM Shield,45535033-3243-4414-9d20-536869656c64,rev?*%
%TF.SameCoordinates,Original*%
%TF.FileFunction,Copper,L3,Inr*%
%TF.FilePolarity,Positive*%
%FSLAX46Y46*%
G04 Gerber Fmt 4.6, Leading zero omitted, Abs format (unit mm)*
G04 Created by KiCad (PCBNEW 9.0.0) date 2025-05-10 20:39:51*
%MOMM*%
%LPD*%
G01*
G04 APERTURE LIST*
G04 Aperture macros list*
%AMRoundRect*
0 Rectangle with rounded corners*
0 $1 Rounding radius*
0 $2 $3 $4 $5 $6 $7 $8 $9 X,Y pos of 4 corners*
0 Add a 4 corners polygon primitive as box body*
4,1,4,$2,$3,$4,$5,$6,$7,$8,$9,$2,$3,0*
0 Add four circle primitives for the rounded corners*
1,1,$1+$1,$2,$3*
1,1,$1+$1,$4,$5*
1,1,$1+$1,$6,$7*
1,1,$1+$1,$8,$9*
0 Add four rect primitives between the rounded corners*
20,1,$1+$1,$2,$3,$4,$5,0*
20,1,$1+$1,$4,$5,$6,$7,0*
20,1,$1+$1,$6,$7,$8,$9,0*
20,1,$1+$1,$8,$9,$2,$3,0*%
G04 Aperture macros list end*
%TA.AperFunction,ComponentPad*%
%ADD10RoundRect,0.250000X-0.625000X0.350000X-0.625000X-0.350000X0.625000X-0.350000X0.625000X0.350000X0*%
%TD*%
%TA.AperFunction,ComponentPad*%
%ADD11O,1.750000X1.200000*%
%TD*%
%TA.AperFunction,HeatsinkPad*%
%ADD12O,0.800000X1.400000*%
%TD*%
%TA.AperFunction,ComponentPad*%
%ADD13R,1.700000X1.700000*%
%TD*%
%TA.AperFunction,ComponentPad*%
%ADD14O,1.700000X1.700000*%
%TD*%
%TA.AperFunction,ViaPad*%
%ADD15C,0.600000*%
%TD*%
G04 APERTURE END LIST*
D10*
%TO.N,+BATT*%
%TO.C,J3*%
X131064000Y-100616000D03*
D11*
%TO.N,GND*%
X131064000Y-102616000D03*
%TD*%
D12*
%TO.N,GND*%
%TO.C,J4*%
X135210000Y-106218000D03*
X135570000Y-100268000D03*
X143830000Y-100268000D03*
X144190000Y-106218000D03*
%TD*%
D13*
%TO.N,+3.3V*%
%TO.C,J2*%
X150317200Y-67106800D03*
D14*
%TO.N,unconnected-(J2-Pin_2-Pad2)*%
X150317200Y-69646800D03*
%TO.N,io00*%
X150317200Y-72186800D03*
%TO.N,GND*%
X150317200Y-74726800D03*
%TO.N,unconnected-(J2-Pin_5-Pad5)*%
X150317200Y-77266800D03*
%TO.N,UART_USB_RX*%
X150317200Y-79806800D03*
%TO.N,UART_USB_TX*%
X150317200Y-82346800D03*
%TO.N,GND*%
X150317200Y-84886800D03*
%TD*%
D13*
%TO.N,unconnected-(J1-Pin_1-Pad1)*%
%TO.C,J1*%
X127254000Y-67106800D03*
D14*
%TO.N,GND*%
X127254000Y-69646800D03*
%TO.N,I2S_BCLK*%
X127254000Y-72186800D03*
%TO.N,I2S_DATA*%
X127254000Y-74726800D03*
%TO.N,I2S_WS*%
X127254000Y-77266800D03*
%TO.N,I2C_SCL*%
X127254000Y-79806800D03*
%TO.N,I2C_SDA*%
X127254000Y-82346800D03*
%TO.N,unconnected-(J1-Pin_8-Pad8)*%
X127254000Y-84886800D03*
%TD*%
D15*
%TO.N,VBUS*%
X138176000Y-101092000D03*
X137668000Y-96520000D03*
%TO.N,GND*%
X135636000Y-92456000D03*
X136906000Y-86995000D03*
X144100900Y-93778834D03*
X137629889Y-77495727D03*
X147828000Y-101600000D03*
X148751468Y-87082303D03*
X145764465Y-88370168D03*
X144780000Y-72390000D03*
X130004138Y-95070565D03*
X133477000Y-79502000D03*
X137922000Y-68072000D03*
X141224000Y-89154000D03*
X141224000Y-66040000D03*
X144780000Y-80772000D03*
X136398000Y-71120000D03*
X144018000Y-75946000D03*
X133604000Y-100584000D03*
X147955000Y-90424000D03*
X141351000Y-93345000D03*
%TO.N,+3.3V*%
X134620000Y-71374000D03*
X134620000Y-68072000D03*
%TO.N,VBUS*%
X139192000Y-87122000D03*
X131318000Y-85090000D03*
X147828000Y-82042000D03*
X146812000Y-88138000D03*
%TO.N,I2C_SDA*%
X141478000Y-74676000D03*
%TO.N,I2C_SCL*%
X138430000Y-74676000D03*
%TO.N,Net-(U4-OC)*%
X133604000Y-84836000D03*
X134432000Y-83312000D03*
%TO.N,Net-(D1-K)*%
X130104753Y-93117964D03*
X138430000Y-93218000D03*
%TO.N,UART_USB_TX*%
X144526000Y-79156800D03*
X146304000Y-80772000D03*
%TD*%
%TA.AperFunction,Conductor*%
%TO.N,VBUS*%
G36*
X144540253Y-81541376D02*
G01*
X144540680Y-81539970D01*
X144546499Y-81541735D01*
X144546503Y-81541737D01*
X144546507Y-81541737D01*
X144546511Y-81541739D01*
X144701153Y-81572499D01*
X144701156Y-81572500D01*
X144701158Y-81572500D01*
X144858844Y-81572500D01*
X144858845Y-81572499D01*
X144953431Y-81553685D01*
X145013488Y-81541739D01*
X145013490Y-81541738D01*
X145013497Y-81541737D01*
X145013503Y-81541734D01*
X145019320Y-81539970D01*
X145019746Y-81541376D01*
X145056840Y-81534000D01*
X146027160Y-81534000D01*
X146064253Y-81541376D01*
X146064680Y-81539970D01*
X146070499Y-81541735D01*
X146070503Y-81541737D01*
X146070507Y-81541737D01*
X146070511Y-81541739D01*
X146225153Y-81572499D01*
X146225156Y-81572500D01*
X146225158Y-81572500D01*
X146382844Y-81572500D01*
X146382845Y-81572499D01*
X146477431Y-81553685D01*
X146537488Y-81541739D01*
X146537490Y-81541738D01*
X146537497Y-81541737D01*
X146537503Y-81541734D01*
X146543320Y-81539970D01*
X146543746Y-81541376D01*
X146580840Y-81534000D01*
X148466000Y-81534000D01*
X148533039Y-81553685D01*
X148578794Y-81606489D01*
X148590000Y-81658000D01*
X148590000Y-84836000D01*
X148999556Y-85245556D01*
X149029806Y-85294918D01*
X149065644Y-85405216D01*
X149162151Y-85594620D01*
X149287090Y-85766586D01*
X149315681Y-85795177D01*
X149349166Y-85856500D01*
X149352000Y-85882858D01*
X149352000Y-86288824D01*
X149332315Y-86355863D01*
X149279511Y-86401618D01*
X149210353Y-86411562D01*
X149159109Y-86391926D01*
X149130653Y-86372912D01*
X149130640Y-86372905D01*
X148984969Y-86312567D01*
X148984957Y-86312564D01*
X148830313Y-86281803D01*
X148830310Y-86281803D01*
X148672626Y-86281803D01*
X148672623Y-86281803D01*
X148517978Y-86312564D01*
X148517966Y-86312567D01*
X148372295Y-86372905D01*
X148372282Y-86372912D01*
X148241179Y-86460513D01*
X148241175Y-86460516D01*
X148129681Y-86572010D01*
X148129678Y-86572014D01*
X148042077Y-86703117D01*
X148042070Y-86703130D01*
X147981732Y-86848801D01*
X147981729Y-86848813D01*
X147950968Y-87003456D01*
X147950968Y-87161149D01*
X147981729Y-87315792D01*
X147981732Y-87315804D01*
X148042070Y-87461475D01*
X148042077Y-87461488D01*
X148129678Y-87592591D01*
X148129681Y-87592595D01*
X148241175Y-87704089D01*
X148241179Y-87704092D01*
X148372282Y-87791693D01*
X148372295Y-87791700D01*
X148517966Y-87852038D01*
X148517971Y-87852040D01*
X148672621Y-87882802D01*
X148672624Y-87882803D01*
X148672626Y-87882803D01*
X148830312Y-87882803D01*
X148830313Y-87882802D01*
X148984965Y-87852040D01*
X149130647Y-87791697D01*
X149159108Y-87772679D01*
X149225784Y-87751801D01*
X149293165Y-87770284D01*
X149339856Y-87822262D01*
X149352000Y-87875781D01*
X149352000Y-89538000D01*
X149332315Y-89605039D01*
X149279511Y-89650794D01*
X149228000Y-89662000D01*
X148231840Y-89662000D01*
X148194746Y-89654623D01*
X148194320Y-89656030D01*
X148188488Y-89654260D01*
X148033845Y-89623500D01*
X148033842Y-89623500D01*
X147876158Y-89623500D01*
X147876155Y-89623500D01*
X147721511Y-89654260D01*
X147715680Y-89656030D01*
X147715253Y-89654623D01*
X147678160Y-89662000D01*
X142065614Y-89662000D01*
X141998575Y-89642315D01*
X141952820Y-89589511D01*
X141942876Y-89520353D01*
X141951053Y-89490548D01*
X141993735Y-89387501D01*
X141993737Y-89387497D01*
X142024500Y-89232842D01*
X142024500Y-89075158D01*
X142024500Y-89075155D01*
X142024499Y-89075153D01*
X142007950Y-88991957D01*
X141993737Y-88920503D01*
X141977149Y-88880456D01*
X141933397Y-88774827D01*
X141933390Y-88774814D01*
X141845789Y-88643711D01*
X141845786Y-88643707D01*
X141734292Y-88532213D01*
X141734288Y-88532210D01*
X141603185Y-88444609D01*
X141603172Y-88444602D01*
X141494996Y-88399795D01*
X141457501Y-88384264D01*
X141457489Y-88384261D01*
X141302845Y-88353500D01*
X141302842Y-88353500D01*
X141145158Y-88353500D01*
X141145155Y-88353500D01*
X140990510Y-88384261D01*
X140990498Y-88384264D01*
X140844827Y-88444602D01*
X140844814Y-88444609D01*
X140713711Y-88532210D01*
X140713707Y-88532213D01*
X140602213Y-88643707D01*
X140602210Y-88643711D01*
X140514609Y-88774814D01*
X140514602Y-88774827D01*
X140454264Y-88920498D01*
X140454261Y-88920510D01*
X140423500Y-89075153D01*
X140423500Y-89232846D01*
X140454261Y-89387489D01*
X140454264Y-89387501D01*
X140496947Y-89490548D01*
X140504416Y-89560017D01*
X140473140Y-89622496D01*
X140413051Y-89658148D01*
X140382386Y-89662000D01*
X128902000Y-89662000D01*
X128834961Y-89642315D01*
X128789206Y-89589511D01*
X128778000Y-89538000D01*
X128778000Y-88291321D01*
X144963965Y-88291321D01*
X144963965Y-88449014D01*
X144994726Y-88603657D01*
X144994729Y-88603669D01*
X145055067Y-88749340D01*
X145055074Y-88749353D01*
X145142675Y-88880456D01*
X145142678Y-88880460D01*
X145254172Y-88991954D01*
X145254176Y-88991957D01*
X145385279Y-89079558D01*
X145385292Y-89079565D01*
X145530963Y-89139903D01*
X145530968Y-89139905D01*
X145685618Y-89170667D01*
X145685621Y-89170668D01*
X145685623Y-89170668D01*
X145843309Y-89170668D01*
X145843310Y-89170667D01*
X145997962Y-89139905D01*
X146143644Y-89079562D01*
X146274754Y-88991957D01*
X146386254Y-88880457D01*
X146473859Y-88749347D01*
X146534202Y-88603665D01*
X146564965Y-88449010D01*
X146564965Y-88291326D01*
X146564965Y-88291323D01*
X146564964Y-88291321D01*
X146534203Y-88136678D01*
X146534202Y-88136671D01*
X146534200Y-88136666D01*
X146473862Y-87990995D01*
X146473855Y-87990982D01*
X146386254Y-87859879D01*
X146386251Y-87859875D01*
X146274757Y-87748381D01*
X146274753Y-87748378D01*
X146143650Y-87660777D01*
X146143637Y-87660770D01*
X145997966Y-87600432D01*
X145997954Y-87600429D01*
X145843310Y-87569668D01*
X145843307Y-87569668D01*
X145685623Y-87569668D01*
X145685620Y-87569668D01*
X145530975Y-87600429D01*
X145530963Y-87600432D01*
X145385292Y-87660770D01*
X145385279Y-87660777D01*
X145254176Y-87748378D01*
X145254172Y-87748381D01*
X145142678Y-87859875D01*
X145142675Y-87859879D01*
X145055074Y-87990982D01*
X145055067Y-87990995D01*
X144994729Y-88136666D01*
X144994726Y-88136678D01*
X144963965Y-88291321D01*
X128778000Y-88291321D01*
X128778000Y-86916153D01*
X136105500Y-86916153D01*
X136105500Y-87073846D01*
X136136261Y-87228489D01*
X136136264Y-87228501D01*
X136196602Y-87374172D01*
X136196609Y-87374185D01*
X136284210Y-87505288D01*
X136284213Y-87505292D01*
X136395707Y-87616786D01*
X136395711Y-87616789D01*
X136526814Y-87704390D01*
X136526827Y-87704397D01*
X136641272Y-87751801D01*
X136672503Y-87764737D01*
X136827153Y-87795499D01*
X136827156Y-87795500D01*
X136827158Y-87795500D01*
X136984844Y-87795500D01*
X136984845Y-87795499D01*
X137139497Y-87764737D01*
X137285179Y-87704394D01*
X137416289Y-87616789D01*
X137527789Y-87505289D01*
X137615394Y-87374179D01*
X137675737Y-87228497D01*
X137706500Y-87073842D01*
X137706500Y-86916158D01*
X137706500Y-86916155D01*
X137706499Y-86916153D01*
X137675738Y-86761510D01*
X137675737Y-86761503D01*
X137675735Y-86761498D01*
X137615397Y-86615827D01*
X137615390Y-86615814D01*
X137527789Y-86484711D01*
X137527786Y-86484707D01*
X137416292Y-86373213D01*
X137416288Y-86373210D01*
X137285185Y-86285609D01*
X137285172Y-86285602D01*
X137139501Y-86225264D01*
X137139489Y-86225261D01*
X136984845Y-86194500D01*
X136984842Y-86194500D01*
X136827158Y-86194500D01*
X136827155Y-86194500D01*
X136672510Y-86225261D01*
X136672498Y-86225264D01*
X136526827Y-86285602D01*
X136526814Y-86285609D01*
X136395711Y-86373210D01*
X136395707Y-86373213D01*
X136284213Y-86484707D01*
X136284210Y-86484711D01*
X136196609Y-86615814D01*
X136196602Y-86615827D01*
X136136264Y-86761498D01*
X136136261Y-86761510D01*
X136105500Y-86916153D01*
X128778000Y-86916153D01*
X128778000Y-84757153D01*
X132803500Y-84757153D01*
X132803500Y-84914846D01*
X132834261Y-85069489D01*
X132834264Y-85069501D01*
X132894602Y-85215172D01*
X132894609Y-85215185D01*
X132982210Y-85346288D01*
X132982213Y-85346292D01*
X133093707Y-85457786D01*
X133093711Y-85457789D01*
X133224814Y-85545390D01*
X133224827Y-85545397D01*
X133343654Y-85594616D01*
X133370503Y-85605737D01*
X133525153Y-85636499D01*
X133525156Y-85636500D01*
X133525158Y-85636500D01*
X133682844Y-85636500D01*
X133682845Y-85636499D01*
X133837497Y-85605737D01*
X133983179Y-85545394D01*
X134114289Y-85457789D01*
X134225789Y-85346289D01*
X134313394Y-85215179D01*
X134373737Y-85069497D01*
X134404500Y-84914842D01*
X134404500Y-84757158D01*
X134404500Y-84757155D01*
X134404499Y-84757153D01*
X134373738Y-84602510D01*
X134373737Y-84602503D01*
X134360505Y-84570557D01*
X134313397Y-84456827D01*
X134313390Y-84456814D01*
X134225789Y-84325711D01*
X134225786Y-84325707D01*
X134217058Y-84316979D01*
X134183573Y-84255656D01*
X134188557Y-84185964D01*
X134230429Y-84130031D01*
X134295893Y-84105614D01*
X134328931Y-84107680D01*
X134337876Y-84109460D01*
X134353157Y-84112500D01*
X134353158Y-84112500D01*
X134510844Y-84112500D01*
X134510845Y-84112499D01*
X134665497Y-84081737D01*
X134811179Y-84021394D01*
X134942289Y-83933789D01*
X135053789Y-83822289D01*
X135141394Y-83691179D01*
X135201737Y-83545497D01*
X135232500Y-83390842D01*
X135232500Y-83233158D01*
X135232500Y-83233155D01*
X135232499Y-83233153D01*
X135201738Y-83078510D01*
X135201737Y-83078503D01*
X135191843Y-83054616D01*
X135141397Y-82932827D01*
X135141390Y-82932814D01*
X135053789Y-82801711D01*
X135053786Y-82801707D01*
X134942292Y-82690213D01*
X134942288Y-82690210D01*
X134811185Y-82602609D01*
X134811172Y-82602602D01*
X134665501Y-82542264D01*
X134665489Y-82542261D01*
X134510845Y-82511500D01*
X134510842Y-82511500D01*
X134353158Y-82511500D01*
X134353155Y-82511500D01*
X134198510Y-82542261D01*
X134198498Y-82542264D01*
X134052827Y-82602602D01*
X134052814Y-82602609D01*
X133921711Y-82690210D01*
X133921707Y-82690213D01*
X133810213Y-82801707D01*
X133810210Y-82801711D01*
X133722609Y-82932814D01*
X133722602Y-82932827D01*
X133662264Y-83078498D01*
X133662261Y-83078510D01*
X133631500Y-83233153D01*
X133631500Y-83390846D01*
X133662261Y-83545489D01*
X133662264Y-83545501D01*
X133722602Y-83691172D01*
X133722609Y-83691185D01*
X133810210Y-83822288D01*
X133810213Y-83822292D01*
X133818941Y-83831020D01*
X133852426Y-83892343D01*
X133847442Y-83962035D01*
X133805570Y-84017968D01*
X133740106Y-84042385D01*
X133707070Y-84040319D01*
X133682842Y-84035500D01*
X133525158Y-84035500D01*
X133525155Y-84035500D01*
X133370510Y-84066261D01*
X133370498Y-84066264D01*
X133224827Y-84126602D01*
X133224814Y-84126609D01*
X133093711Y-84214210D01*
X133093707Y-84214213D01*
X132982213Y-84325707D01*
X132982210Y-84325711D01*
X132894609Y-84456814D01*
X132894602Y-84456827D01*
X132834264Y-84602498D01*
X132834261Y-84602510D01*
X132803500Y-84757153D01*
X128778000Y-84757153D01*
X128778000Y-81658000D01*
X128797685Y-81590961D01*
X128850489Y-81545206D01*
X128902000Y-81534000D01*
X144503160Y-81534000D01*
X144540253Y-81541376D01*
G37*
%TD.AperFunction*%
%TD*%
%TA.AperFunction,Conductor*%
%TO.N,VBUS*%
G36*
X146247039Y-95015685D02*
G01*
X146292794Y-95068489D01*
X146304000Y-95120000D01*
X146304000Y-101984000D01*
X146284315Y-102051039D01*
X146231511Y-102096794D01*
X146180000Y-102108000D01*
X135252000Y-102108000D01*
X135184961Y-102088315D01*
X135139206Y-102035511D01*
X135128000Y-101984000D01*
X135128000Y-101545190D01*
X135147685Y-101478151D01*
X135200489Y-101432396D01*
X135269647Y-101422452D01*
X135299448Y-101430627D01*
X135307334Y-101433894D01*
X135307337Y-101433894D01*
X135307341Y-101433896D01*
X135481304Y-101468499D01*
X135481307Y-101468500D01*
X135481309Y-101468500D01*
X135658693Y-101468500D01*
X135658694Y-101468499D01*
X135716682Y-101456964D01*
X135832658Y-101433896D01*
X135832661Y-101433894D01*
X135832666Y-101433894D01*
X135996547Y-101366013D01*
X136144035Y-101267464D01*
X136269464Y-101142035D01*
X136368013Y-100994547D01*
X136435894Y-100830666D01*
X136470500Y-100656691D01*
X136470500Y-99879309D01*
X136470500Y-99879306D01*
X136470499Y-99879304D01*
X136435896Y-99705341D01*
X136435893Y-99705332D01*
X136419236Y-99665119D01*
X136405060Y-99630895D01*
X136397592Y-99561427D01*
X136428867Y-99498948D01*
X136447447Y-99484159D01*
X136446914Y-99483465D01*
X136453358Y-99478518D01*
X136453365Y-99478515D01*
X136560515Y-99371365D01*
X136636281Y-99240135D01*
X136675500Y-99093766D01*
X136675500Y-98942234D01*
X142574500Y-98942234D01*
X142574500Y-99093765D01*
X142613719Y-99240136D01*
X142651602Y-99305750D01*
X142689485Y-99371365D01*
X142796635Y-99478515D01*
X142913429Y-99545946D01*
X142961643Y-99596512D01*
X142974867Y-99665119D01*
X142965993Y-99700776D01*
X142964106Y-99705330D01*
X142964104Y-99705336D01*
X142929500Y-99879304D01*
X142929500Y-100656695D01*
X142964103Y-100830658D01*
X142964106Y-100830667D01*
X143031983Y-100994540D01*
X143031990Y-100994553D01*
X143130535Y-101142034D01*
X143130538Y-101142038D01*
X143255961Y-101267461D01*
X143255965Y-101267464D01*
X143403446Y-101366009D01*
X143403459Y-101366016D01*
X143526363Y-101416923D01*
X143567334Y-101433894D01*
X143567336Y-101433894D01*
X143567341Y-101433896D01*
X143741304Y-101468499D01*
X143741307Y-101468500D01*
X143741309Y-101468500D01*
X143918693Y-101468500D01*
X143918694Y-101468499D01*
X143976682Y-101456964D01*
X144092658Y-101433896D01*
X144092661Y-101433894D01*
X144092666Y-101433894D01*
X144256547Y-101366013D01*
X144404035Y-101267464D01*
X144529464Y-101142035D01*
X144628013Y-100994547D01*
X144695894Y-100830666D01*
X144730500Y-100656691D01*
X144730500Y-99879309D01*
X144730500Y-99879306D01*
X144730499Y-99879304D01*
X144695896Y-99705341D01*
X144695893Y-99705332D01*
X144628016Y-99541459D01*
X144628009Y-99541446D01*
X144529464Y-99393965D01*
X144529461Y-99393961D01*
X144404038Y-99268538D01*
X144404034Y-99268535D01*
X144256553Y-99169990D01*
X144256544Y-99169985D01*
X144102047Y-99105991D01*
X144047644Y-99062150D01*
X144025579Y-98995856D01*
X144025500Y-98991430D01*
X144025500Y-98942236D01*
X144025500Y-98942234D01*
X143986281Y-98795865D01*
X143910515Y-98664635D01*
X143803365Y-98557485D01*
X143737750Y-98519602D01*
X143672136Y-98481719D01*
X143598950Y-98462109D01*
X143525766Y-98442500D01*
X143074234Y-98442500D01*
X142927863Y-98481719D01*
X142796635Y-98557485D01*
X142796632Y-98557487D01*
X142689487Y-98664632D01*
X142689485Y-98664635D01*
X142613719Y-98795863D01*
X142574500Y-98942234D01*
X136675500Y-98942234D01*
X136636281Y-98795865D01*
X136560515Y-98664635D01*
X136453365Y-98557485D01*
X136387750Y-98519602D01*
X136322136Y-98481719D01*
X136248950Y-98462109D01*
X136175766Y-98442500D01*
X136024234Y-98442500D01*
X135877863Y-98481719D01*
X135746635Y-98557485D01*
X135746632Y-98557487D01*
X135639487Y-98664632D01*
X135639485Y-98664635D01*
X135563719Y-98795863D01*
X135524500Y-98942234D01*
X135524500Y-98957144D01*
X135516001Y-98986085D01*
X135509847Y-99015618D01*
X135506257Y-99019270D01*
X135504815Y-99024183D01*
X135482022Y-99043932D01*
X135460875Y-99065453D01*
X135454467Y-99067809D01*
X135452011Y-99069938D01*
X135427915Y-99078075D01*
X135426266Y-99078448D01*
X135307334Y-99102106D01*
X135289709Y-99109406D01*
X135279415Y-99111740D01*
X135254647Y-99110186D01*
X135229975Y-99112837D01*
X135220386Y-99108036D01*
X135209683Y-99107365D01*
X135189688Y-99092667D01*
X135167498Y-99081558D01*
X135162025Y-99072333D01*
X135153386Y-99065983D01*
X135144511Y-99042810D01*
X135131850Y-99021467D01*
X135129660Y-99004031D01*
X135128398Y-99000735D01*
X135128927Y-98998194D01*
X135128000Y-98990809D01*
X135128000Y-95120000D01*
X135147685Y-95052961D01*
X135200489Y-95007206D01*
X135252000Y-94996000D01*
X146180000Y-94996000D01*
X146247039Y-95015685D01*
G37*
%TD.AperFunction*%
%TD*%
M02*
