%TF.GenerationSoftware,KiCad,Pcbnew,9.0.0*%
%TF.CreationDate,2025-05-10T20:39:51+02:00*%
%TF.ProjectId,ESP32CAM Shield,45535033-3243-4414-9d20-536869656c64,rev?*%
%TF.SameCoordinates,Original*%
%TF.FileFunction,Soldermask,Top*%
%TF.FilePolarity,Negative*%
%FSLAX46Y46*%
G04 Gerber Fmt 4.6, Leading zero omitted, Abs format (unit mm)*
G04 Created by KiCad (PCBNEW 9.0.0) date 2025-05-10 20:39:51*
%MOMM*%
%LPD*%
G01*
G04 APERTURE LIST*
G04 Aperture macros list*
%AMRoundRect*
0 Rectangle with rounded corners*
0 $1 Rounding radius*
0 $2 $3 $4 $5 $6 $7 $8 $9 X,Y pos of 4 corners*
0 Add a 4 corners polygon primitive as box body*
4,1,4,$2,$3,$4,$5,$6,$7,$8,$9,$2,$3,0*
0 Add four circle primitives for the rounded corners*
1,1,$1+$1,$2,$3*
1,1,$1+$1,$4,$5*
1,1,$1+$1,$6,$7*
1,1,$1+$1,$8,$9*
0 Add four rect primitives between the rounded corners*
20,1,$1+$1,$2,$3,$4,$5,0*
20,1,$1+$1,$4,$5,$6,$7,0*
20,1,$1+$1,$6,$7,$8,$9,0*
20,1,$1+$1,$8,$9,$2,$3,0*%
%AMFreePoly0*
4,1,64,0.235711,1.439036,0.382774,1.378120,0.515127,1.289684,0.627684,1.177127,0.716120,1.044774,0.777036,0.897711,0.808090,0.741590,0.808090,0.582410,0.777036,0.426289,0.716120,0.279226,0.627684,0.146873,0.515127,0.034316,0.382774,-0.054120,0.235711,-0.115036,0.079590,-0.146090,0.031746,-0.146090,0.029264,-0.147118,-0.029264,-0.147118,-0.031746,-0.146090,-0.079590,-0.146090,
-0.235711,-0.115036,-0.382774,-0.054120,-0.515127,0.034316,-0.627684,0.146873,-0.716120,0.279226,-0.777036,0.426289,-0.808090,0.582410,-0.808090,0.729406,-0.512000,0.729406,-0.512000,0.594594,-0.477108,0.464375,-0.409702,0.347625,-0.314375,0.252298,-0.197625,0.184892,-0.067406,0.150000,0.067406,0.150000,0.197625,0.184892,0.314375,0.252298,0.409702,0.347625,0.477108,0.464375,
0.512000,0.594594,0.512000,0.729406,0.477108,0.859625,0.409702,0.976375,0.314375,1.071702,0.197625,1.139108,0.067406,1.174000,-0.067406,1.174000,-0.197625,1.139108,-0.314375,1.071702,-0.409702,0.976375,-0.477108,0.859625,-0.512000,0.729406,-0.808090,0.729406,-0.808090,0.741590,-0.777036,0.897711,-0.716120,1.044774,-0.627684,1.177127,-0.515127,1.289684,-0.382774,1.378120,
-0.235711,1.439036,-0.079590,1.470090,0.079590,1.470090,0.235711,1.439036,0.235711,1.439036,$1*%
G04 Aperture macros list end*
%ADD10C,2.200000*%
%ADD11RoundRect,0.140000X-0.140000X-0.170000X0.140000X-0.170000X0.140000X0.170000X-0.140000X0.170000X0*%
%ADD12RoundRect,0.140000X-0.170000X0.140000X-0.170000X-0.140000X0.170000X-0.140000X0.170000X0.140000X0*%
%ADD13RoundRect,0.135000X0.135000X0.185000X-0.135000X0.185000X-0.135000X-0.185000X0.135000X-0.185000X0*%
%ADD14RoundRect,0.140000X0.170000X-0.140000X0.170000X0.140000X-0.170000X0.140000X-0.170000X-0.140000X0*%
%ADD15RoundRect,0.135000X-0.185000X0.135000X-0.185000X-0.135000X0.185000X-0.135000X0.185000X0.135000X0*%
%ADD16RoundRect,0.150000X0.587500X0.150000X-0.587500X0.150000X-0.587500X-0.150000X0.587500X-0.150000X0*%
%ADD17RoundRect,0.250000X-0.625000X0.350000X-0.625000X-0.350000X0.625000X-0.350000X0.625000X0.350000X0*%
%ADD18O,1.750000X1.200000*%
%ADD19RoundRect,0.225000X0.375000X-0.225000X0.375000X0.225000X-0.375000X0.225000X-0.375000X-0.225000X0*%
%ADD20RoundRect,0.150000X0.150000X-0.512500X0.150000X0.512500X-0.150000X0.512500X-0.150000X-0.512500X0*%
%ADD21R,0.300000X0.300000*%
%ADD22R,0.300000X0.900000*%
%ADD23R,0.900000X0.300000*%
%ADD24R,1.800000X1.800000*%
%ADD25RoundRect,0.200000X-0.275000X0.200000X-0.275000X-0.200000X0.275000X-0.200000X0.275000X0.200000X0*%
%ADD26RoundRect,0.200000X0.275000X-0.200000X0.275000X0.200000X-0.275000X0.200000X-0.275000X-0.200000X0*%
%ADD27RoundRect,0.150000X-0.512500X-0.150000X0.512500X-0.150000X0.512500X0.150000X-0.512500X0.150000X0*%
%ADD28RoundRect,0.135000X-0.135000X-0.185000X0.135000X-0.185000X0.135000X0.185000X-0.135000X0.185000X0*%
%ADD29R,0.800000X1.000000*%
%ADD30C,0.900000*%
%ADD31R,1.500000X0.700000*%
%ADD32RoundRect,0.135000X0.185000X-0.135000X0.185000X0.135000X-0.185000X0.135000X-0.185000X-0.135000X0*%
%ADD33RoundRect,0.200000X0.200000X0.275000X-0.200000X0.275000X-0.200000X-0.275000X0.200000X-0.275000X0*%
%ADD34RoundRect,0.150000X-0.150000X0.512500X-0.150000X-0.512500X0.150000X-0.512500X0.150000X0.512500X0*%
%ADD35RoundRect,0.225000X0.250000X-0.225000X0.250000X0.225000X-0.250000X0.225000X-0.250000X-0.225000X0*%
%ADD36RoundRect,0.243750X0.456250X-0.243750X0.456250X0.243750X-0.456250X0.243750X-0.456250X-0.243750X0*%
%ADD37R,1.100000X0.250000*%
%ADD38C,0.650000*%
%ADD39O,0.950000X0.650000*%
%ADD40R,0.300000X0.700000*%
%ADD41O,0.800000X1.400000*%
%ADD42C,0.500000*%
%ADD43RoundRect,0.130500X0.169500X0.130500X-0.169500X0.130500X-0.169500X-0.130500X0.169500X-0.130500X0*%
%ADD44FreePoly0,270.000000*%
%ADD45R,1.700000X1.700000*%
%ADD46O,1.700000X1.700000*%
G04 APERTURE END LIST*
D10*
%TO.C,H1*%
X149987000Y-104394000D03*
%TD*%
D11*
%TO.C,C5*%
X136680000Y-75438000D03*
X137640000Y-75438000D03*
%TD*%
D12*
%TO.C,C3*%
X136906000Y-67112000D03*
X136906000Y-68072000D03*
%TD*%
D11*
%TO.C,C4*%
X136680000Y-76454000D03*
X137640000Y-76454000D03*
%TD*%
D13*
%TO.C,R16*%
X147832000Y-83058000D03*
X146812000Y-83058000D03*
%TD*%
D14*
%TO.C,C1*%
X135382000Y-96746000D03*
X135382000Y-95786000D03*
%TD*%
D15*
%TO.C,R18*%
X133604000Y-98548000D03*
X133604000Y-99568000D03*
%TD*%
D13*
%TO.C,R8*%
X137414000Y-74168000D03*
X136394000Y-74168000D03*
%TD*%
D16*
%TO.C,Q1*%
X139289000Y-96134000D03*
X139289000Y-94234000D03*
X137414000Y-95184000D03*
%TD*%
D15*
%TO.C,R10*%
X140208000Y-68070000D03*
X140208000Y-69090000D03*
%TD*%
D17*
%TO.C,J3*%
X131064000Y-100616000D03*
D18*
X131064000Y-102616000D03*
%TD*%
D19*
%TO.C,D1*%
X139192000Y-91946000D03*
X139192000Y-88646000D03*
%TD*%
D20*
%TO.C,U6*%
X143134000Y-92456000D03*
X144084000Y-92456000D03*
X145034000Y-92456000D03*
X145034000Y-90181000D03*
X144084000Y-90181000D03*
X143134000Y-90181000D03*
%TD*%
D21*
%TO.C,U5*%
X142764000Y-84790000D03*
D22*
X143264000Y-85090000D03*
X143764000Y-85090000D03*
X144264000Y-85090000D03*
X144764000Y-85090000D03*
D21*
X145264000Y-84790000D03*
D23*
X145564000Y-84290000D03*
X145564000Y-83790000D03*
X145564000Y-83290000D03*
X145564000Y-82790000D03*
D21*
X145264000Y-82290000D03*
D22*
X144764000Y-81990000D03*
X144264000Y-81990000D03*
X143764000Y-81990000D03*
X143264000Y-81990000D03*
D21*
X142764000Y-82290000D03*
D23*
X142464000Y-82790000D03*
X142464000Y-83290000D03*
X142464000Y-83790000D03*
X142464000Y-84290000D03*
D24*
X144014000Y-83540000D03*
%TD*%
D25*
%TO.C,R5*%
X139637000Y-75883000D03*
X139637000Y-77533000D03*
%TD*%
D26*
%TO.C,R3*%
X131318000Y-91566000D03*
X131318000Y-89916000D03*
%TD*%
D27*
%TO.C,U2*%
X132853000Y-75824000D03*
X132853000Y-76774000D03*
X132853000Y-77724000D03*
X135128000Y-77724000D03*
X135128000Y-75824000D03*
%TD*%
D28*
%TO.C,R15*%
X146810000Y-84074000D03*
X147830000Y-84074000D03*
%TD*%
D29*
%TO.C,SW2*%
X127602000Y-88712000D03*
X125392000Y-88712000D03*
D30*
X126492000Y-90862000D03*
X126492000Y-93862000D03*
D29*
X127602000Y-96012000D03*
X125392000Y-96012000D03*
D31*
X128252000Y-90112000D03*
X128252000Y-93112000D03*
X128252000Y-94612000D03*
%TD*%
D32*
%TO.C,R2*%
X135382000Y-94744000D03*
X135382000Y-93724000D03*
%TD*%
%TO.C,R12*%
X136906000Y-83822000D03*
X136906000Y-82802000D03*
%TD*%
D33*
%TO.C,R7*%
X135191000Y-90678000D03*
X133541000Y-90678000D03*
%TD*%
D12*
%TO.C,C10*%
X145768000Y-86388000D03*
X145768000Y-87348000D03*
%TD*%
%TO.C,C6*%
X135890000Y-67140000D03*
X135890000Y-68100000D03*
%TD*%
D28*
%TO.C,R17*%
X145792000Y-101600000D03*
X146812000Y-101600000D03*
%TD*%
D25*
%TO.C,R1*%
X141321000Y-94425000D03*
X141321000Y-96075000D03*
%TD*%
D32*
%TO.C,R14*%
X146812000Y-86108000D03*
X146812000Y-85088000D03*
%TD*%
D34*
%TO.C,Q2*%
X135382000Y-81037000D03*
X134432000Y-81037000D03*
X133482000Y-81037000D03*
X133482000Y-83312000D03*
X134432000Y-83312000D03*
X135382000Y-83312000D03*
%TD*%
D13*
%TO.C,R9*%
X137416000Y-73152000D03*
X136396000Y-73152000D03*
%TD*%
D11*
%TO.C,C9*%
X146840000Y-87122000D03*
X147800000Y-87122000D03*
%TD*%
D35*
%TO.C,C2*%
X141224000Y-91948000D03*
X141224000Y-90398000D03*
%TD*%
D13*
%TO.C,R11*%
X136908000Y-66040000D03*
X135888000Y-66040000D03*
%TD*%
D15*
%TO.C,R13*%
X139192000Y-68070000D03*
X139192000Y-69090000D03*
%TD*%
D29*
%TO.C,SW1*%
X150274000Y-96300000D03*
X152484000Y-96300000D03*
D30*
X151384000Y-94150000D03*
X151384000Y-91150000D03*
D29*
X150274000Y-89000000D03*
X152484000Y-89000000D03*
D31*
X149624000Y-94900000D03*
X149624000Y-91900000D03*
X149624000Y-90400000D03*
%TD*%
D34*
%TO.C,U4*%
X135382000Y-86117000D03*
X134432000Y-86117000D03*
X133482000Y-86117000D03*
X133482000Y-88392000D03*
X134432000Y-88392000D03*
X135382000Y-88392000D03*
%TD*%
D36*
%TO.C,D2*%
X131318000Y-88392000D03*
X131318000Y-86517000D03*
%TD*%
D37*
%TO.C,U3*%
X143120000Y-73390000D03*
X143120000Y-72890000D03*
X143120000Y-72390000D03*
X143120000Y-71890000D03*
X143120000Y-71390000D03*
X138820000Y-71390000D03*
X138820000Y-71890000D03*
X138820000Y-72390000D03*
X138820000Y-72890000D03*
X138820000Y-73390000D03*
%TD*%
D27*
%TO.C,U1*%
X131572000Y-94112000D03*
X131572000Y-95062000D03*
X131572000Y-96012000D03*
X133847000Y-96012000D03*
X133847000Y-94112000D03*
%TD*%
D14*
%TO.C,C7*%
X136906000Y-88872000D03*
X136906000Y-87912000D03*
%TD*%
D38*
%TO.C,J4*%
X136100000Y-99018000D03*
D39*
X143300000Y-99018000D03*
D40*
X136950000Y-98358000D03*
X137450000Y-98358000D03*
X137950000Y-98358000D03*
X138450000Y-98358000D03*
X138950000Y-98358000D03*
X139450000Y-98358000D03*
X139950000Y-98358000D03*
X140450000Y-98358000D03*
X140950000Y-98358000D03*
X141450000Y-98358000D03*
X141950000Y-98358000D03*
X142450000Y-98358000D03*
X142200000Y-100058000D03*
X141700000Y-100058000D03*
X141200000Y-100058000D03*
X140700000Y-100058000D03*
X140200000Y-100058000D03*
X139700000Y-100058000D03*
X139200000Y-100058000D03*
X138700000Y-100058000D03*
X138200000Y-100058000D03*
X137700000Y-100058000D03*
X137200000Y-100058000D03*
X136700000Y-100058000D03*
D41*
X135210000Y-106218000D03*
X135570000Y-100268000D03*
X143830000Y-100268000D03*
X144190000Y-106218000D03*
%TD*%
D33*
%TO.C,R6*%
X142748000Y-75946000D03*
X141098000Y-75946000D03*
%TD*%
D42*
%TO.C,MK1*%
X139192000Y-64788000D03*
D43*
X140092000Y-66862000D03*
X140092000Y-66040000D03*
D44*
X138530000Y-64788000D03*
D43*
X138292000Y-66040000D03*
X138292000Y-66862000D03*
X139192000Y-66862000D03*
%TD*%
D45*
%TO.C,J2*%
X150317200Y-67106800D03*
D46*
X150317200Y-69646800D03*
X150317200Y-72186800D03*
X150317200Y-74726800D03*
X150317200Y-77266800D03*
X150317200Y-79806800D03*
X150317200Y-82346800D03*
X150317200Y-84886800D03*
%TD*%
D14*
%TO.C,C8*%
X137414000Y-72108000D03*
X137414000Y-71148000D03*
%TD*%
D32*
%TO.C,R4*%
X131064000Y-76964000D03*
X131064000Y-75944000D03*
%TD*%
D45*
%TO.C,J1*%
X127254000Y-67106800D03*
D46*
X127254000Y-69646800D03*
X127254000Y-72186800D03*
X127254000Y-74726800D03*
X127254000Y-77266800D03*
X127254000Y-79806800D03*
X127254000Y-82346800D03*
X127254000Y-84886800D03*
%TD*%
M02*
