%TF.GenerationSoftware,KiCad,Pcbnew,9.0.0*%
%TF.CreationDate,2025-05-10T20:39:51+02:00*%
%TF.ProjectId,ESP32CAM Shield,45535033-3243-4414-9d20-536869656c64,rev?*%
%TF.SameCoordinates,Original*%
%TF.FileFunction,Copper,L4,Bot*%
%TF.FilePolarity,Positive*%
%FSLAX46Y46*%
G04 Gerber Fmt 4.6, Leading zero omitted, Abs format (unit mm)*
G04 Created by KiCad (PCBNEW 9.0.0) date 2025-05-10 20:39:51*
%MOMM*%
%LPD*%
G01*
G04 APERTURE LIST*
G04 Aperture macros list*
%AMRoundRect*
0 Rectangle with rounded corners*
0 $1 Rounding radius*
0 $2 $3 $4 $5 $6 $7 $8 $9 X,Y pos of 4 corners*
0 Add a 4 corners polygon primitive as box body*
4,1,4,$2,$3,$4,$5,$6,$7,$8,$9,$2,$3,0*
0 Add four circle primitives for the rounded corners*
1,1,$1+$1,$2,$3*
1,1,$1+$1,$4,$5*
1,1,$1+$1,$6,$7*
1,1,$1+$1,$8,$9*
0 Add four rect primitives between the rounded corners*
20,1,$1+$1,$2,$3,$4,$5,0*
20,1,$1+$1,$4,$5,$6,$7,0*
20,1,$1+$1,$6,$7,$8,$9,0*
20,1,$1+$1,$8,$9,$2,$3,0*%
G04 Aperture macros list end*
%TA.AperFunction,ComponentPad*%
%ADD10RoundRect,0.250000X-0.625000X0.350000X-0.625000X-0.350000X0.625000X-0.350000X0.625000X0.350000X0*%
%TD*%
%TA.AperFunction,ComponentPad*%
%ADD11O,1.750000X1.200000*%
%TD*%
%TA.AperFunction,HeatsinkPad*%
%ADD12O,0.800000X1.400000*%
%TD*%
%TA.AperFunction,ComponentPad*%
%ADD13R,1.700000X1.700000*%
%TD*%
%TA.AperFunction,ComponentPad*%
%ADD14O,1.700000X1.700000*%
%TD*%
%TA.AperFunction,ViaPad*%
%ADD15C,0.600000*%
%TD*%
%TA.AperFunction,Conductor*%
%ADD16C,0.300000*%
%TD*%
G04 APERTURE END LIST*
D10*
%TO.P,J3,1,Pin_1*%
%TO.N,+BATT*%
X131064000Y-100616000D03*
D11*
%TO.P,J3,2,Pin_2*%
%TO.N,GND*%
X131064000Y-102616000D03*
%TD*%
D12*
%TO.P,J4,S1,SHIELD*%
%TO.N,GND*%
X135210000Y-106218000D03*
X135570000Y-100268000D03*
X143830000Y-100268000D03*
X144190000Y-106218000D03*
%TD*%
D13*
%TO.P,J2,1,Pin_1*%
%TO.N,+3.3V*%
X150317200Y-67106800D03*
D14*
%TO.P,J2,2,Pin_2*%
%TO.N,unconnected-(J2-Pin_2-Pad2)*%
X150317200Y-69646800D03*
%TO.P,J2,3,Pin_3*%
%TO.N,io00*%
X150317200Y-72186800D03*
%TO.P,J2,4,Pin_4*%
%TO.N,GND*%
X150317200Y-74726800D03*
%TO.P,J2,5,Pin_5*%
%TO.N,unconnected-(J2-Pin_5-Pad5)*%
X150317200Y-77266800D03*
%TO.P,J2,6,Pin_6*%
%TO.N,UART_USB_RX*%
X150317200Y-79806800D03*
%TO.P,J2,7,Pin_7*%
%TO.N,UART_USB_TX*%
X150317200Y-82346800D03*
%TO.P,J2,8,Pin_8*%
%TO.N,GND*%
X150317200Y-84886800D03*
%TD*%
D13*
%TO.P,J1,1,Pin_1*%
%TO.N,unconnected-(J1-Pin_1-Pad1)*%
X127254000Y-67106800D03*
D14*
%TO.P,J1,2,Pin_2*%
%TO.N,GND*%
X127254000Y-69646800D03*
%TO.P,J1,3,Pin_3*%
%TO.N,I2S_BCLK*%
X127254000Y-72186800D03*
%TO.P,J1,4,Pin_4*%
%TO.N,I2S_DATA*%
X127254000Y-74726800D03*
%TO.P,J1,5,Pin_5*%
%TO.N,I2S_WS*%
X127254000Y-77266800D03*
%TO.P,J1,6,Pin_6*%
%TO.N,I2C_SCL*%
X127254000Y-79806800D03*
%TO.P,J1,7,Pin_7*%
%TO.N,I2C_SDA*%
X127254000Y-82346800D03*
%TO.P,J1,8,Pin_8*%
%TO.N,unconnected-(J1-Pin_8-Pad8)*%
X127254000Y-84886800D03*
%TD*%
D15*
%TO.N,VBUS*%
X138176000Y-101092000D03*
X137668000Y-96520000D03*
%TO.N,GND*%
X135636000Y-92456000D03*
X136906000Y-86995000D03*
X144100900Y-93778834D03*
X137629889Y-77495727D03*
X147828000Y-101600000D03*
X148751468Y-87082303D03*
X145764465Y-88370168D03*
X144780000Y-72390000D03*
X130004138Y-95070565D03*
X133477000Y-79502000D03*
X137922000Y-68072000D03*
X141224000Y-89154000D03*
X141224000Y-66040000D03*
X144780000Y-80772000D03*
X136398000Y-71120000D03*
X144018000Y-75946000D03*
X133604000Y-100584000D03*
X147955000Y-90424000D03*
X141351000Y-93345000D03*
%TO.N,+3.3V*%
X134620000Y-71374000D03*
X134620000Y-68072000D03*
%TO.N,VBUS*%
X139192000Y-87122000D03*
X131318000Y-85090000D03*
X147828000Y-82042000D03*
X146812000Y-88138000D03*
%TO.N,I2C_SDA*%
X141478000Y-74676000D03*
%TO.N,I2C_SCL*%
X138430000Y-74676000D03*
%TO.N,Net-(U4-OC)*%
X133604000Y-84836000D03*
X134432000Y-83312000D03*
%TO.N,Net-(D1-K)*%
X130104753Y-93117964D03*
X138430000Y-93218000D03*
%TO.N,UART_USB_TX*%
X144526000Y-79156800D03*
X146304000Y-80772000D03*
%TD*%
D16*
%TO.N,+3.3V*%
X134620000Y-68072000D02*
X134620000Y-71374000D01*
%TO.N,I2C_SDA*%
X136347200Y-82346800D02*
X127254000Y-82346800D01*
X141478000Y-74676000D02*
X141478000Y-77216000D01*
X141478000Y-77216000D02*
X136347200Y-82346800D01*
%TO.N,I2C_SCL*%
X127711200Y-80264000D02*
X127254000Y-79806800D01*
X138430000Y-77724000D02*
X135890000Y-80264000D01*
X138430000Y-74676000D02*
X138430000Y-77724000D01*
X135890000Y-80264000D02*
X127711200Y-80264000D01*
%TO.N,Net-(U4-OC)*%
X133604000Y-84140000D02*
X134432000Y-83312000D01*
X133604000Y-84836000D02*
X133604000Y-84140000D01*
%TO.N,Net-(D1-K)*%
X138329964Y-93117964D02*
X138430000Y-93218000D01*
X130104753Y-93117964D02*
X138329964Y-93117964D01*
%TO.N,UART_USB_TX*%
X144688800Y-79156800D02*
X146304000Y-80772000D01*
X144526000Y-79156800D02*
X144688800Y-79156800D01*
%TD*%
M02*
