M48
; DRILL file {KiCad 9.0.0} date 2025-05-10T20:39:57+0200
; FORMAT={-:-/ absolute / metric / decimal}
; #@! TF.CreationDate,2025-05-10T20:39:57+02:00
; #@! TF.GenerationSoftware,Kicad,Pcbnew,9.0.0
; #@! TF.FileFunction,Plated,1,4,PTH
FMAT,2
METRIC
; #@! TA.AperFunction,Plated,PTH,ViaDrill
T1C0.300
; #@! TA.AperFunction,Plated,PTH,ComponentDrill
T2C0.500
; #@! TA.AperFunction,Plated,PTH,ComponentDrill
T3C0.750
; #@! TA.AperFunction,Plated,PTH,ComponentDrill
T4C1.000
%
G90
G05
T1
X130.004Y-95.071
X130.105Y-93.118
X131.318Y-85.09
X133.477Y-79.502
X133.604Y-84.836
X133.604Y-100.584
X134.432Y-83.312
X134.62Y-68.072
X134.62Y-71.374
X135.636Y-92.456
X136.398Y-71.12
X136.906Y-86.995
X137.63Y-77.496
X137.668Y-96.52
X137.922Y-68.072
X138.176Y-101.092
X138.43Y-74.676
X138.43Y-93.218
X139.192Y-87.122
X141.224Y-66.04
X141.224Y-89.154
X141.351Y-93.345
X141.478Y-74.676
X144.018Y-75.946
X144.101Y-93.779
X144.526Y-79.157
X144.78Y-72.39
X144.78Y-80.772
X145.764Y-88.37
X146.304Y-80.772
X146.812Y-88.138
X147.828Y-82.042
X147.828Y-101.6
X147.955Y-90.424
X148.751Y-87.082
T3
X131.064Y-100.616
X131.064Y-102.616
T4
X127.254Y-67.107
X127.254Y-69.647
X127.254Y-72.187
X127.254Y-74.727
X127.254Y-77.267
X127.254Y-79.807
X127.254Y-82.347
X127.254Y-84.887
X150.317Y-67.107
X150.317Y-69.647
X150.317Y-72.187
X150.317Y-74.727
X150.317Y-77.267
X150.317Y-79.807
X150.317Y-82.347
X150.317Y-84.887
T2
G00X135.21Y-105.918
M15
G01X135.21Y-106.518
M16
G05
G00X135.57Y-99.968
M15
G01X135.57Y-100.568
M16
G05
G00X143.83Y-99.968
M15
G01X143.83Y-100.568
M16
G05
G00X144.19Y-105.918
M15
G01X144.19Y-106.518
M16
G05
M30
